<svg width="205" height="97" viewBox="0 0 205 97" fill="none" xmlns="http://www.w3.org/2000/svg">
<g filter="url(#filter0_d_307_7)">
<path d="M32.1765 7C32.1765 4.23857 34.415 2 37.1765 2L167.471 2C170.232 2 172.471 4.23858 172.471 7V51.5588C172.471 54.3202 170.232 56.5588 167.471 56.5588L37.1765 56.5588C34.4151 56.5588 32.1765 54.3202 32.1765 51.5588V7Z" fill="white"/>
<path d="M78.2298 25.1953C76.61 25.1953 75.3157 24.6641 74.347 23.6016C73.3834 22.5339 72.9017 21.0911 72.9017 19.2734C72.9017 17.4557 73.3834 16.0156 74.347 14.9531C75.3157 13.8854 76.61 13.3516 78.2298 13.3516C79.4746 13.3516 80.5345 13.6875 81.4095 14.3594C82.2845 15.0312 82.7767 15.9167 82.886 17.0156H81.3235C81.261 16.2917 80.9459 15.7161 80.3782 15.2891C79.8157 14.862 79.1048 14.6484 78.2454 14.6484C77.0839 14.6484 76.1647 15.0495 75.4876 15.8516C74.8105 16.6484 74.472 17.7891 74.472 19.2734C74.472 20.7526 74.8079 21.8932 75.4798 22.6953C76.1517 23.4974 77.0631 23.8984 78.2142 23.8984C79.11 23.8984 79.8339 23.6797 80.386 23.2422C80.9381 22.8047 81.2506 22.1797 81.3235 21.3672H82.886C82.7767 22.5859 82.2975 23.5286 81.4485 24.1953C80.5996 24.862 79.5267 25.1953 78.2298 25.1953ZM88.1595 16.5234C89.3418 16.5234 90.2845 16.901 90.9876 17.6562C91.6959 18.4115 92.0501 19.4792 92.0501 20.8594C92.0501 22.2344 91.6959 23.3021 90.9876 24.0625C90.2845 24.8177 89.3418 25.1953 88.1595 25.1953C86.9824 25.1953 86.0397 24.8177 85.3313 24.0625C84.6282 23.3021 84.2767 22.2344 84.2767 20.8594C84.2767 19.4792 84.6282 18.4115 85.3313 17.6562C86.0397 16.901 86.9824 16.5234 88.1595 16.5234ZM88.1595 24.0391C88.8626 24.0391 89.4329 23.7734 89.8704 23.2422C90.3079 22.7057 90.5267 21.9115 90.5267 20.8594C90.5267 19.8021 90.3079 19.0078 89.8704 18.4766C89.4329 17.9401 88.8626 17.6719 88.1595 17.6719C87.4563 17.6719 86.886 17.9401 86.4485 18.4766C86.011 19.0078 85.7923 19.8021 85.7923 20.8594C85.7923 21.9115 86.011 22.7057 86.4485 23.2422C86.886 23.7734 87.4563 24.0391 88.1595 24.0391ZM95.1829 17.7031C95.8392 16.9167 96.6282 16.5234 97.5501 16.5234C98.6334 16.5234 99.472 16.9089 100.066 17.6797C100.659 18.4453 100.956 19.4818 100.956 20.7891C100.956 22.1484 100.623 23.224 99.9563 24.0156C99.2949 24.8021 98.4589 25.1953 97.4485 25.1953C96.5527 25.1953 95.7975 24.9167 95.1829 24.3594V28.1875H93.7063V16.7109H95.1829V17.7031ZM95.1829 23.0312C95.8131 23.7031 96.5371 24.0391 97.3548 24.0391C97.9902 24.0391 98.4954 23.7682 98.8704 23.2266C99.2454 22.6797 99.4329 21.8672 99.4329 20.7891C99.4329 19.7682 99.2558 18.9948 98.9017 18.4688C98.5475 17.9375 98.0527 17.6719 97.4173 17.6719C96.5996 17.6719 95.8548 18.1458 95.1829 19.0938V23.0312ZM105.972 16.5234C107.154 16.5234 108.097 16.901 108.8 17.6562C109.508 18.4115 109.863 19.4792 109.863 20.8594C109.863 22.2344 109.508 23.3021 108.8 24.0625C108.097 24.8177 107.154 25.1953 105.972 25.1953C104.795 25.1953 103.852 24.8177 103.144 24.0625C102.441 23.3021 102.089 22.2344 102.089 20.8594C102.089 19.4792 102.441 18.4115 103.144 17.6562C103.852 16.901 104.795 16.5234 105.972 16.5234ZM105.972 24.0391C106.675 24.0391 107.245 23.7734 107.683 23.2422C108.12 22.7057 108.339 21.9115 108.339 20.8594C108.339 19.8021 108.12 19.0078 107.683 18.4766C107.245 17.9401 106.675 17.6719 105.972 17.6719C105.269 17.6719 104.699 17.9401 104.261 18.4766C103.824 19.0078 103.605 19.8021 103.605 20.8594C103.605 21.9115 103.824 22.7057 104.261 23.2422C104.699 23.7734 105.269 24.0391 105.972 24.0391ZM121.019 22.6172V18.6797C120.383 18.0078 119.657 17.6719 118.839 17.6719C118.209 17.6719 117.704 17.9453 117.324 18.4922C116.949 19.0339 116.761 19.8438 116.761 20.9219C116.761 21.9427 116.938 22.7188 117.292 23.25C117.652 23.776 118.146 24.0391 118.777 24.0391C119.6 24.0391 120.347 23.5651 121.019 22.6172ZM121.019 24.0078C120.363 24.7995 119.574 25.1953 118.652 25.1953C117.568 25.1953 116.73 24.8099 116.136 24.0391C115.542 23.2682 115.245 22.2292 115.245 20.9219C115.245 19.5677 115.576 18.4974 116.238 17.7109C116.904 16.9193 117.74 16.5234 118.745 16.5234C119.641 16.5234 120.399 16.7995 121.019 17.3516V13.5469H122.488V25H121.019V24.0078ZM129.925 22.8203V20.9844H128.917C126.782 20.9844 125.714 21.5651 125.714 22.7266C125.714 23.1484 125.87 23.474 126.183 23.7031C126.495 23.9271 126.917 24.0391 127.449 24.0391C127.933 24.0391 128.402 23.9297 128.855 23.7109C129.308 23.4922 129.665 23.1953 129.925 22.8203ZM129.925 24.1484C129.175 24.8464 128.209 25.1953 127.027 25.1953C126.204 25.1953 125.527 24.974 124.995 24.5312C124.464 24.0833 124.199 23.5078 124.199 22.8047C124.199 20.8672 125.868 19.8984 129.206 19.8984H129.925C129.925 19.3047 129.894 18.875 129.831 18.6094C129.769 18.3385 129.594 18.1146 129.308 17.9375C129.021 17.7604 128.566 17.6719 127.941 17.6719C126.628 17.6719 125.951 18.1406 125.909 19.0781H124.441C124.55 17.375 125.743 16.5234 128.019 16.5234C129.081 16.5234 129.909 16.7344 130.503 17.1562C131.097 17.5781 131.394 18.4062 131.394 19.6406V25H129.925V24.1484Z" fill="#E61F94"/>
</g>
<g filter="url(#filter1_d_307_7)">
<path d="M1 46.2941C1 40.7713 5.47715 36.2941 11 36.2941H193.647C199.17 36.2941 203.647 40.7713 203.647 46.2941V80.853C203.647 86.3758 199.17 90.853 193.647 90.853H11C5.47716 90.853 1 86.3758 1 80.853V46.2941Z" fill="#E61F94"/>
<path d="M59.4405 78.12C58.6405 78.12 57.9738 77.8267 57.4405 77.24C56.9338 76.6533 56.5338 75.8667 56.2405 74.88C55.9738 73.8933 55.7738 72.8 55.6405 71.6C55.5338 70.3733 55.4805 69.1333 55.4805 67.88C55.4805 67.3467 55.4805 66.84 55.4805 66.36C55.5071 65.8533 55.5338 65.3467 55.5605 64.84C55.4271 64.8667 55.2805 64.88 55.1205 64.88C54.9871 64.88 54.8538 64.88 54.7205 64.88C53.9205 64.88 53.2805 64.8 52.8005 64.64C52.5605 64.56 52.3338 64.36 52.1205 64.04C51.9338 63.72 51.7738 63.3733 51.6405 63C51.5338 62.6267 51.4805 62.3467 51.4805 62.16C51.4805 62.0267 51.5071 61.96 51.5605 61.96H51.6005C52.2405 62.1467 52.8805 62.2933 53.5205 62.4C54.1605 62.5067 54.8005 62.56 55.4405 62.56H55.7205C55.7738 61.8933 55.8271 61.3067 55.8805 60.8C55.9338 60.2667 55.9738 59.8267 56.0005 59.48C56.1605 57.8267 56.3471 56.2667 56.5605 54.8C56.8005 53.3067 57.0538 51.9867 57.3205 50.84C56.3605 50.7067 55.3871 50.6 54.4005 50.52C53.4405 50.4133 52.4538 50.36 51.4405 50.36C50.6671 50.36 49.8671 50.4 49.0405 50.48C48.2405 50.5333 47.4271 50.6533 46.6005 50.84C44.9738 51.1867 43.6005 51.72 42.4805 52.44C41.3605 53.16 40.5205 53.9467 39.9605 54.8C39.4005 55.6533 39.1205 56.48 39.1205 57.28C39.1205 58.1067 39.4538 58.8267 40.1205 59.44C40.8138 60.0267 41.8538 60.32 43.2405 60.32C43.4538 60.32 43.6671 60.32 43.8805 60.32C44.0938 60.2933 44.3205 60.2667 44.5605 60.24C45.2805 60.1333 46.1471 59.9067 47.1605 59.56C48.1738 59.2133 49.2138 58.7867 50.2805 58.28C51.3738 57.7467 52.3471 57.1733 53.2005 56.56C53.2805 56.48 53.4405 56.44 53.6805 56.44C53.7871 56.44 53.8405 56.48 53.8405 56.56C53.8405 56.64 53.7738 56.7733 53.6405 56.96C53.5338 57.12 53.3205 57.36 53.0005 57.68C51.6671 58.9867 50.1071 59.9467 48.3205 60.56C46.5605 61.1467 44.8271 61.44 43.1205 61.44C42.8538 61.44 42.5871 61.44 42.3205 61.44C42.0805 61.4133 41.8405 61.3867 41.6005 61.36C40.1338 61.2 38.9871 60.64 38.1605 59.68C37.3605 58.72 36.9605 57.6133 36.9605 56.36C36.9605 55.4267 37.2138 54.48 37.7205 53.52C38.2271 52.5333 39.0005 51.64 40.0405 50.84C41.1071 50.0133 42.4805 49.36 44.1605 48.88C45.8405 48.3733 47.8538 48.12 50.2005 48.12C51.3205 48.12 52.5338 48.2133 53.8405 48.4C55.1471 48.5867 56.4805 48.8133 57.8405 49.08C57.8671 49.0267 57.8805 48.9733 57.8805 48.92C57.9071 48.84 57.9338 48.7733 57.9605 48.72C57.9871 48.64 58.0405 48.6 58.1205 48.6C58.2271 48.5733 58.3205 48.56 58.4005 48.56C59.0671 48.56 59.6405 48.6533 60.1205 48.84C60.6271 49 60.8805 49.2667 60.8805 49.64C62.0538 49.8267 63.1871 50 64.2805 50.16C65.4005 50.2933 66.4538 50.36 67.4405 50.36C68.3738 50.36 69.2138 50.28 69.9605 50.12C70.4138 50.0133 70.7605 49.8267 71.0005 49.56C71.2405 49.2667 71.3605 48.9867 71.3605 48.72C71.3605 48.3467 71.1871 48.0667 70.8405 47.88C70.8138 47.8533 70.8005 47.8133 70.8005 47.76C70.8005 47.6267 70.8538 47.56 70.9605 47.56C71.4671 47.56 71.8938 47.76 72.2405 48.16C72.6138 48.56 72.8005 49.0267 72.8005 49.56C72.8005 50.0667 72.5605 50.56 72.0805 51.04C71.6271 51.52 70.8271 51.8267 69.6805 51.96C68.9605 52.04 68.2271 52.08 67.4805 52.08C66.3338 52.08 65.1738 52.0133 64.0005 51.88C62.8538 51.72 61.6938 51.5467 60.5205 51.36C60.2538 52.5867 59.9338 54.2267 59.5605 56.28C59.2138 58.3067 58.8938 60.4267 58.6005 62.64C60.0405 62.6133 61.4538 62.52 62.8405 62.36C64.2538 62.1733 65.4538 61.8933 66.4405 61.52C66.5738 61.44 66.6671 61.4 66.7205 61.4C66.9071 61.4 67.0138 61.48 67.0405 61.64V61.72C67.0405 61.88 66.9471 62.0133 66.7605 62.12C66.5738 62.2267 66.4538 62.3067 66.4005 62.36C65.9205 62.5733 65.2405 62.8133 64.3605 63.08C63.5071 63.3467 62.5605 63.6133 61.5205 63.88C60.4805 64.12 59.4271 64.3333 58.3605 64.52C58.3071 65.2667 58.2538 65.9867 58.2005 66.68C58.1471 67.3733 58.1071 68.0667 58.0805 68.76C58.0805 69.0267 58.0671 69.3067 58.0405 69.6C58.0405 69.8933 58.0405 70.2 58.0405 70.52C58.0405 71.4267 58.0805 72.3467 58.1605 73.28C58.2671 74.1867 58.4538 74.9467 58.7205 75.56C58.9871 76.1733 59.3871 76.48 59.9205 76.48C60.1871 76.48 60.4271 76.4 60.6405 76.24C60.8538 76.08 61.0005 75.9067 61.0805 75.72C61.1605 75.5067 61.2538 75.4 61.3605 75.4C61.5205 75.4 61.6005 75.5333 61.6005 75.8V75.88C61.6005 76.52 61.4005 77.0533 61.0005 77.48C60.6271 77.9067 60.1071 78.12 59.4405 78.12ZM73.6852 76.76C72.3785 76.76 71.2585 76.4533 70.3252 75.84C69.4185 75.2267 68.7118 74.4133 68.2052 73.4C67.7252 72.36 67.4585 71.24 67.4052 70.04V69.24C67.4052 67.96 67.5385 66.68 67.8052 65.4C68.0985 64.12 68.5385 62.9467 69.1252 61.88C69.7118 60.8133 70.4585 59.96 71.3652 59.32C72.2718 58.6533 73.3518 58.32 74.6052 58.32H74.8852C75.6318 58.3467 76.1652 58.6267 76.4852 59.16C76.8318 59.6933 77.0052 60.2667 77.0052 60.88V61.04C77.0052 62.48 76.6718 63.7333 76.0052 64.8C75.3652 65.84 74.5518 66.68 73.5652 67.32C72.5785 67.96 71.5518 68.4 70.4852 68.64V68.84C70.4852 69.5067 70.5385 70.2267 70.6452 71C70.7518 71.7467 70.9518 72.4667 71.2452 73.16C71.5385 73.8533 71.9518 74.4267 72.4852 74.88C73.0185 75.3067 73.6985 75.52 74.5252 75.52C75.5385 75.52 76.3918 75.2 77.0852 74.56C77.7785 73.92 78.3118 73.16 78.6852 72.28C78.8452 71.9067 78.9785 71.4933 79.0852 71.04C79.2185 70.56 79.3385 70.0533 79.4452 69.52C79.4985 69.2 79.6052 69.04 79.7652 69.04C79.9785 69.04 80.0852 69.2667 80.0852 69.72C80.0852 69.8 80.0718 69.8933 80.0452 70C80.0452 70.08 80.0318 70.1867 80.0052 70.32C79.8452 71.2533 79.6185 72.08 79.3252 72.8C78.7918 74.1867 78.0852 75.2 77.2052 75.84C76.3518 76.4533 75.1785 76.76 73.6852 76.76ZM70.5252 67.76C71.3518 67.52 72.0718 67.0933 72.6852 66.48C73.3252 65.84 73.8318 65.0933 74.2052 64.24C74.5785 63.3867 74.7785 62.52 74.8052 61.64V61.4C74.8052 60.9467 74.7252 60.5067 74.5652 60.08C74.4052 59.6533 74.1385 59.44 73.7652 59.44H73.7252C73.2452 59.44 72.8185 59.68 72.4452 60.16C72.0985 60.6133 71.8052 61.2 71.5652 61.92C71.3252 62.64 71.1252 63.3867 70.9652 64.16C70.8052 64.9333 70.6852 65.64 70.6052 66.28C70.5518 66.92 70.5252 67.3867 70.5252 67.68V67.76ZM83.7564 76.4C82.8497 76.4 82.1031 76.12 81.5164 75.56C80.9564 75 80.5164 74.2933 80.1964 73.44C79.8764 72.56 79.6364 71.6667 79.4764 70.76C79.3431 69.8533 79.2631 69.0667 79.2364 68.4C79.2097 67.9467 79.1964 67.5333 79.1964 67.16C79.1964 66.7867 79.1964 66.44 79.1964 66.12V66.08C79.1964 64.6933 79.2364 63.2667 79.3164 61.8C79.3964 60.3333 79.5031 58.92 79.6364 57.56C79.7697 56.1733 79.9164 54.92 80.0764 53.8C80.2364 52.6533 80.3964 51.72 80.5564 51C80.7164 50.3333 80.9697 49.5733 81.3164 48.72C81.6631 47.8667 82.1164 47.1333 82.6764 46.52C83.2364 45.88 83.9031 45.56 84.6764 45.56C85.6097 45.56 86.2497 45.92 86.5964 46.64C86.9431 47.3333 87.1164 48.2 87.1164 49.24C87.1164 50.12 87.0231 51.0667 86.8364 52.08C86.6764 53.0667 86.4631 54.0267 86.1964 54.96C85.9297 55.8933 85.6764 56.72 85.4364 57.44C85.2231 58.16 85.0497 58.68 84.9164 59C84.4897 60.12 83.9964 61.2533 83.4364 62.4C82.9031 63.5467 82.3697 64.5867 81.8364 65.52C81.8364 65.7867 81.8231 66.08 81.7964 66.4C81.7964 66.6933 81.7964 67.0267 81.7964 67.4C81.7964 68.1733 81.8231 69 81.8764 69.88C81.9297 70.76 82.0497 71.5867 82.2364 72.36C82.4231 73.1067 82.6897 73.72 83.0364 74.2C83.3831 74.68 83.8364 74.92 84.3964 74.92C84.9564 74.92 85.4497 74.7067 85.8764 74.28C86.4097 73.7733 86.8097 73.0933 87.0764 72.24C87.3697 71.3867 87.6231 70.52 87.8364 69.64C87.9164 69.2667 88.0497 69.08 88.2364 69.08C88.3697 69.08 88.4364 69.24 88.4364 69.56C88.4364 69.64 88.4231 69.7333 88.3964 69.84C88.3964 69.9467 88.3831 70.0667 88.3564 70.2C88.1964 71.1067 87.9431 72.04 87.5964 73C87.2764 73.96 86.8097 74.7733 86.1964 75.44C85.6097 76.08 84.7964 76.4 83.7564 76.4ZM81.9164 63.84C82.6097 62.4267 83.2497 60.9333 83.8364 59.36C84.4231 57.76 84.8897 56.1867 85.2364 54.64C85.6097 53.0667 85.7964 51.64 85.7964 50.36C85.7964 49.5867 85.7297 48.9467 85.5964 48.44C85.4897 47.9333 85.2764 47.68 84.9564 47.68C84.6364 47.68 84.3297 48.0267 84.0364 48.72C83.7697 49.4133 83.5164 50.32 83.2764 51.44C83.0631 52.56 82.8764 53.7733 82.7164 55.08C82.5564 56.36 82.4097 57.6133 82.2764 58.84C82.1697 60.04 82.0764 61.0933 81.9964 62C81.9431 62.9067 81.9164 63.52 81.9164 63.84ZM91.4748 55.76C90.9682 55.76 90.5148 55.5733 90.1148 55.2C89.7415 54.8267 89.5548 54.3733 89.5548 53.84C89.5548 53.3067 89.7415 52.8533 90.1148 52.48C90.5148 52.1067 90.9682 51.92 91.4748 51.92C92.0082 51.92 92.4615 52.1067 92.8348 52.48C93.2082 52.8533 93.3948 53.3067 93.3948 53.84C93.3948 54.3733 93.2082 54.8267 92.8348 55.2C92.4615 55.5733 92.0082 55.76 91.4748 55.76ZM91.1948 76.2C90.2348 76.2 89.4748 75.8 88.9148 75C88.3815 74.1733 87.9948 73.1333 87.7548 71.88C87.5415 70.6 87.4348 69.2667 87.4348 67.88C87.4348 66.7333 87.4882 65.6267 87.5948 64.56C87.7282 63.4667 87.8748 62.52 88.0348 61.72C88.2215 60.8933 88.3948 60.3067 88.5548 59.96C88.7148 59.64 88.9682 59.3467 89.3148 59.08C89.6882 58.7867 90.1815 58.64 90.7948 58.64C91.1415 58.64 91.4882 58.68 91.8348 58.76C91.5682 59.6933 91.2482 60.9867 90.8748 62.64C90.5015 64.2933 90.3148 66.12 90.3148 68.12C90.3148 68.8133 90.3282 69.56 90.3548 70.36C90.3815 71.1333 90.4482 71.8667 90.5548 72.56C90.6615 73.2267 90.8215 73.7733 91.0348 74.2C91.2748 74.6267 91.5815 74.84 91.9548 74.84H91.9948C92.2082 74.84 92.4348 74.7333 92.6748 74.52C92.9415 74.3067 93.2215 73.9067 93.5148 73.32C93.9148 72.5467 94.2882 71.5467 94.6348 70.32C94.6882 70.08 94.7948 69.96 94.9548 69.96C95.0882 69.96 95.1548 70.12 95.1548 70.44V70.6C95.1015 71.2933 94.9148 72.08 94.5948 72.96C94.2748 73.84 93.8215 74.6 93.2348 75.24C92.6748 75.88 91.9948 76.2 91.1948 76.2ZM100.109 76.6C98.8822 76.6 97.8822 76.32 97.1089 75.76C96.3356 75.1733 95.7489 74.4267 95.3489 73.52C94.9756 72.5867 94.7489 71.5867 94.6689 70.52C94.6422 70.3067 94.6289 70.1067 94.6289 69.92C94.6289 69.7067 94.6289 69.4933 94.6289 69.28C94.6289 68.1867 94.7356 67.0267 94.9489 65.8C95.1889 64.5467 95.5756 63.3733 96.1089 62.28C96.6422 61.1867 97.3356 60.2933 98.1889 59.6C99.0689 58.9067 100.149 58.56 101.429 58.56C102.229 58.56 102.869 58.8667 103.349 59.48C103.856 60.0667 104.109 60.7467 104.109 61.52C104.109 62.3467 103.976 62.96 103.709 63.36C103.442 63.7333 103.122 63.92 102.749 63.92C102.109 63.92 101.789 63.24 101.789 61.88C101.789 61.3467 101.709 60.8533 101.549 60.4C101.389 59.9467 101.082 59.72 100.629 59.72C100.122 59.72 99.6956 59.9733 99.3489 60.48C99.0289 60.96 98.7622 61.5867 98.5489 62.36C98.3356 63.1067 98.1622 63.9067 98.0289 64.76C97.9222 65.5867 97.8422 66.3733 97.7889 67.12C97.7622 67.84 97.7489 68.4 97.7489 68.8V68.96C97.7489 70.0533 97.8422 71.08 98.0289 72.04C98.2156 73 98.5622 73.7733 99.0689 74.36C99.5756 74.9467 100.282 75.24 101.189 75.24C102.069 75.24 102.802 75 103.389 74.52C103.976 74.0133 104.442 73.4 104.789 72.68C105.162 71.9333 105.442 71.1733 105.629 70.4C105.842 69.6267 106.002 68.9733 106.109 68.44C106.189 68.12 106.296 67.96 106.429 67.96C106.616 67.96 106.709 68.1867 106.709 68.64C106.709 68.72 106.696 68.8267 106.669 68.96C106.669 69.0667 106.656 69.1867 106.629 69.32C106.362 70.6267 106.016 71.84 105.589 72.96C105.162 74.0533 104.522 74.9333 103.669 75.6C102.816 76.2667 101.629 76.6 100.109 76.6ZM109.444 55.76C108.937 55.76 108.484 55.5733 108.084 55.2C107.71 54.8267 107.524 54.3733 107.524 53.84C107.524 53.3067 107.71 52.8533 108.084 52.48C108.484 52.1067 108.937 51.92 109.444 51.92C109.977 51.92 110.43 52.1067 110.804 52.48C111.177 52.8533 111.364 53.3067 111.364 53.84C111.364 54.3733 111.177 54.8267 110.804 55.2C110.43 55.5733 109.977 55.76 109.444 55.76ZM109.164 76.2C108.204 76.2 107.444 75.8 106.884 75C106.35 74.1733 105.964 73.1333 105.724 71.88C105.51 70.6 105.404 69.2667 105.404 67.88C105.404 66.7333 105.457 65.6267 105.564 64.56C105.697 63.4667 105.844 62.52 106.004 61.72C106.19 60.8933 106.364 60.3067 106.524 59.96C106.684 59.64 106.937 59.3467 107.284 59.08C107.657 58.7867 108.15 58.64 108.764 58.64C109.11 58.64 109.457 58.68 109.804 58.76C109.537 59.6933 109.217 60.9867 108.844 62.64C108.47 64.2933 108.284 66.12 108.284 68.12C108.284 68.8133 108.297 69.56 108.324 70.36C108.35 71.1333 108.417 71.8667 108.524 72.56C108.63 73.2267 108.79 73.7733 109.004 74.2C109.244 74.6267 109.55 74.84 109.924 74.84H109.964C110.177 74.84 110.404 74.7333 110.644 74.52C110.91 74.3067 111.19 73.9067 111.484 73.32C111.884 72.5467 112.257 71.5467 112.604 70.32C112.657 70.08 112.764 69.96 112.924 69.96C113.057 69.96 113.124 70.12 113.124 70.44V70.6C113.07 71.2933 112.884 72.08 112.564 72.96C112.244 73.84 111.79 74.6 111.204 75.24C110.644 75.88 109.964 76.2 109.164 76.2ZM123.838 76.2C122.878 76.2 122.144 75.8 121.638 75C121.158 74.2 120.824 73.1733 120.638 71.92C120.478 70.6667 120.398 69.36 120.398 68C120.051 69.28 119.611 70.5467 119.078 71.8C118.544 73.0533 117.944 74.0933 117.278 74.92C116.638 75.7467 115.958 76.16 115.238 76.16C114.598 76.16 114.078 75.8667 113.678 75.28C113.278 74.6667 112.984 73.8667 112.798 72.88C112.611 71.8933 112.518 70.8267 112.518 69.68C112.518 68.8533 112.584 67.92 112.718 66.88C112.851 65.84 113.064 64.8 113.358 63.76C113.651 62.72 114.051 61.7733 114.558 60.92C115.091 60.04 115.744 59.3333 116.518 58.8C117.291 58.2667 118.211 58 119.278 58C119.891 58 120.384 58.1333 120.758 58.4C120.811 56.9867 120.878 55.6267 120.958 54.32C121.038 53.0133 121.131 51.9867 121.238 51.24C121.318 50.7333 121.424 50.16 121.558 49.52C121.718 48.88 121.931 48.2667 122.198 47.68C122.491 47.0667 122.838 46.56 123.238 46.16C123.664 45.76 124.171 45.56 124.758 45.56C125.504 45.56 126.064 45.7467 126.438 46.12C126.811 46.4667 127.064 46.92 127.198 47.48C127.358 48.0133 127.438 48.5867 127.438 49.2C127.438 49.5467 127.424 49.9067 127.398 50.28C127.371 50.6267 127.331 50.9467 127.278 51.24C127.118 52.5467 126.811 53.9867 126.358 55.56C125.904 57.1333 125.371 58.6667 124.758 60.16C124.171 61.6267 123.598 62.8933 123.038 63.96C123.011 64.1467 122.984 64.56 122.958 65.2C122.931 65.84 122.918 66.5867 122.918 67.44C122.918 68.24 122.931 69.08 122.958 69.96C123.011 70.8133 123.104 71.6133 123.238 72.36C123.371 73.08 123.544 73.68 123.758 74.16C123.998 74.6133 124.304 74.84 124.678 74.84C125.051 74.84 125.384 74.6667 125.678 74.32C125.971 73.9467 126.238 73.4933 126.478 72.96C126.718 72.4267 126.904 71.92 127.038 71.44C127.198 70.9333 127.318 70.56 127.398 70.32C127.451 70.1067 127.558 70 127.718 70C127.851 70 127.918 70.1467 127.918 70.44V70.64C127.918 71.36 127.744 72.16 127.398 73.04C127.078 73.8933 126.611 74.64 125.998 75.28C125.411 75.8933 124.691 76.2 123.838 76.2ZM122.958 62.2C123.464 61.1067 123.944 59.88 124.398 58.52C124.851 57.1333 125.224 55.72 125.518 54.28C125.838 52.84 125.998 51.4933 125.998 50.24C125.998 50.0267 125.998 49.8267 125.998 49.64C125.998 49.4533 125.984 49.2667 125.958 49.08C125.931 48.7067 125.851 48.3867 125.718 48.12C125.584 47.8267 125.411 47.68 125.198 47.68C125.091 47.68 124.958 47.7733 124.798 47.96C124.638 48.12 124.478 48.4267 124.318 48.88C124.238 49.12 124.131 49.6667 123.998 50.52C123.891 51.3467 123.771 52.3333 123.638 53.48C123.531 54.6 123.424 55.7467 123.318 56.92C123.211 58.0667 123.118 59.1067 123.038 60.04C122.984 60.9467 122.958 61.5867 122.958 61.96V62.2ZM116.638 72.88C117.091 72.88 117.518 72.56 117.918 71.92C118.318 71.2533 118.678 70.4533 118.998 69.52C119.344 68.5867 119.624 67.7067 119.838 66.88C120.131 65.8133 120.331 64.7467 120.438 63.68C120.571 62.5867 120.651 61.4933 120.678 60.4L120.718 59.28C120.558 59.2 120.371 59.16 120.158 59.16C119.571 59.16 118.971 59.4533 118.358 60.04C117.744 60.6 117.251 61.2667 116.878 62.04C116.398 63.0533 116.038 64.24 115.798 65.6C115.584 66.96 115.478 68.24 115.478 69.44C115.478 69.6267 115.478 69.8267 115.478 70.04C115.478 70.2533 115.491 70.4533 115.518 70.64C115.571 71.44 115.704 72.0133 115.918 72.36C116.131 72.7067 116.371 72.88 116.638 72.88ZM138.762 76.2C137.936 76.2 137.269 75.9467 136.762 75.44C136.256 74.9067 135.856 74.24 135.562 73.44C135.296 72.6133 135.109 71.7867 135.002 70.96C134.896 70.1067 134.842 69.36 134.842 68.72C134.522 69.92 134.109 71.0933 133.602 72.24C133.122 73.3867 132.589 74.3333 132.002 75.08C131.416 75.8 130.776 76.16 130.082 76.16H130.042C129.402 76.16 128.869 75.8667 128.442 75.28C128.016 74.6667 127.696 73.8667 127.482 72.88C127.269 71.8933 127.162 70.8267 127.162 69.68V69.28C127.162 68.2133 127.256 67.04 127.442 65.76C127.629 64.4533 127.962 63.2133 128.442 62.04C128.922 60.8667 129.576 59.9067 130.402 59.16C131.256 58.3867 132.336 58 133.642 58C134.149 58 134.602 58.12 135.002 58.36C135.429 58.5733 135.736 58.8933 135.922 59.32C136.109 59.1067 136.362 58.9333 136.682 58.8C137.002 58.6667 137.389 58.6 137.842 58.6C138.002 58.6 138.176 58.6133 138.362 58.64C138.576 58.6667 138.789 58.7067 139.002 58.76C138.842 59.3733 138.656 60.2133 138.442 61.28C138.229 62.3467 138.042 63.52 137.882 64.8C137.749 66.0533 137.682 67.28 137.682 68.48V68.64C137.682 69.1467 137.709 69.7467 137.762 70.44C137.816 71.1333 137.909 71.8133 138.042 72.48C138.176 73.1467 138.362 73.7067 138.602 74.16C138.842 74.6133 139.149 74.84 139.522 74.84H139.562C139.776 74.84 140.002 74.7333 140.242 74.52C140.509 74.3067 140.789 73.9067 141.082 73.32C141.482 72.5467 141.856 71.5467 142.202 70.32C142.256 70.08 142.362 69.96 142.522 69.96C142.656 69.96 142.722 70.12 142.722 70.44V70.6C142.669 71.2933 142.482 72.08 142.162 72.96C141.842 73.84 141.389 74.6 140.802 75.24C140.242 75.88 139.562 76.2 138.762 76.2ZM131.442 72.88C131.869 72.88 132.256 72.5733 132.602 71.96C132.976 71.3467 133.309 70.6 133.602 69.72C133.896 68.84 134.149 67.9867 134.362 67.16C134.682 65.9333 134.896 64.6933 135.002 63.44C135.109 62.16 135.336 60.9067 135.682 59.68C135.362 59.3333 135.002 59.16 134.602 59.16C134.016 59.16 133.416 59.4533 132.802 60.04C132.189 60.6267 131.709 61.2933 131.362 62.04C130.936 62.9733 130.616 64.0667 130.402 65.32C130.216 66.5733 130.122 67.7733 130.122 68.92C130.122 69.2133 130.122 69.5067 130.122 69.8C130.149 70.0933 130.176 70.3733 130.202 70.64C130.256 71.44 130.402 72.0133 130.642 72.36C130.909 72.7067 131.176 72.88 131.442 72.88ZM153.447 76.2C152.487 76.2 151.754 75.8 151.247 75C150.767 74.2 150.434 73.1733 150.247 71.92C150.087 70.6667 150.007 69.36 150.007 68C149.66 69.28 149.22 70.5467 148.687 71.8C148.154 73.0533 147.554 74.0933 146.887 74.92C146.247 75.7467 145.567 76.16 144.847 76.16C144.207 76.16 143.687 75.8667 143.287 75.28C142.887 74.6667 142.594 73.8667 142.407 72.88C142.22 71.8933 142.127 70.8267 142.127 69.68C142.127 68.8533 142.194 67.92 142.327 66.88C142.46 65.84 142.674 64.8 142.967 63.76C143.26 62.72 143.66 61.7733 144.167 60.92C144.7 60.04 145.354 59.3333 146.127 58.8C146.9 58.2667 147.82 58 148.887 58C149.5 58 149.994 58.1333 150.367 58.4C150.42 56.9867 150.487 55.6267 150.567 54.32C150.647 53.0133 150.74 51.9867 150.847 51.24C150.927 50.7333 151.034 50.16 151.167 49.52C151.327 48.88 151.54 48.2667 151.807 47.68C152.1 47.0667 152.447 46.56 152.847 46.16C153.274 45.76 153.78 45.56 154.367 45.56C155.114 45.56 155.674 45.7467 156.047 46.12C156.42 46.4667 156.674 46.92 156.807 47.48C156.967 48.0133 157.047 48.5867 157.047 49.2C157.047 49.5467 157.034 49.9067 157.007 50.28C156.98 50.6267 156.94 50.9467 156.887 51.24C156.727 52.5467 156.42 53.9867 155.967 55.56C155.514 57.1333 154.98 58.6667 154.367 60.16C153.78 61.6267 153.207 62.8933 152.647 63.96C152.62 64.1467 152.594 64.56 152.567 65.2C152.54 65.84 152.527 66.5867 152.527 67.44C152.527 68.24 152.54 69.08 152.567 69.96C152.62 70.8133 152.714 71.6133 152.847 72.36C152.98 73.08 153.154 73.68 153.367 74.16C153.607 74.6133 153.914 74.84 154.287 74.84C154.66 74.84 154.994 74.6667 155.287 74.32C155.58 73.9467 155.847 73.4933 156.087 72.96C156.327 72.4267 156.514 71.92 156.647 71.44C156.807 70.9333 156.927 70.56 157.007 70.32C157.06 70.1067 157.167 70 157.327 70C157.46 70 157.527 70.1467 157.527 70.44V70.64C157.527 71.36 157.354 72.16 157.007 73.04C156.687 73.8933 156.22 74.64 155.607 75.28C155.02 75.8933 154.3 76.2 153.447 76.2ZM152.567 62.2C153.074 61.1067 153.554 59.88 154.007 58.52C154.46 57.1333 154.834 55.72 155.127 54.28C155.447 52.84 155.607 51.4933 155.607 50.24C155.607 50.0267 155.607 49.8267 155.607 49.64C155.607 49.4533 155.594 49.2667 155.567 49.08C155.54 48.7067 155.46 48.3867 155.327 48.12C155.194 47.8267 155.02 47.68 154.807 47.68C154.7 47.68 154.567 47.7733 154.407 47.96C154.247 48.12 154.087 48.4267 153.927 48.88C153.847 49.12 153.74 49.6667 153.607 50.52C153.5 51.3467 153.38 52.3333 153.247 53.48C153.14 54.6 153.034 55.7467 152.927 56.92C152.82 58.0667 152.727 59.1067 152.647 60.04C152.594 60.9467 152.567 61.5867 152.567 61.96V62.2ZM146.247 72.88C146.7 72.88 147.127 72.56 147.527 71.92C147.927 71.2533 148.287 70.4533 148.607 69.52C148.954 68.5867 149.234 67.7067 149.447 66.88C149.74 65.8133 149.94 64.7467 150.047 63.68C150.18 62.5867 150.26 61.4933 150.287 60.4L150.327 59.28C150.167 59.2 149.98 59.16 149.767 59.16C149.18 59.16 148.58 59.4533 147.967 60.04C147.354 60.6 146.86 61.2667 146.487 62.04C146.007 63.0533 145.647 64.24 145.407 65.6C145.194 66.96 145.087 68.24 145.087 69.44C145.087 69.6267 145.087 69.8267 145.087 70.04C145.087 70.2533 145.1 70.4533 145.127 70.64C145.18 71.44 145.314 72.0133 145.527 72.36C145.74 72.7067 145.98 72.88 146.247 72.88ZM162.412 76.76C161.132 76.76 160.092 76.3733 159.292 75.6C158.518 74.8 157.945 73.8267 157.572 72.68C157.225 71.5067 157.052 70.36 157.052 69.24C157.052 67.96 157.185 66.68 157.452 65.4C157.718 64.0933 158.132 62.9067 158.692 61.84C159.278 60.7733 160.012 59.92 160.892 59.28C161.772 58.6133 162.812 58.28 164.012 58.28C164.865 58.28 165.532 58.5333 166.012 59.04C166.492 59.5467 166.732 60.2933 166.732 61.28C166.732 62.6133 166.398 63.8 165.732 64.84C165.092 65.8533 164.278 66.68 163.292 67.32C162.305 67.96 161.278 68.4 160.212 68.64V68.84C160.212 69.9333 160.318 70.96 160.532 71.92C160.772 72.8533 161.145 73.6133 161.652 74.2C162.185 74.76 162.878 75.04 163.732 75.04C164.772 75.04 165.572 74.6133 166.132 73.76C166.692 72.88 167.132 71.7733 167.452 70.44C167.478 70.3333 167.518 70.24 167.572 70.16C167.652 70.0533 167.718 70 167.772 70C168.012 70 168.118 70.1733 168.092 70.52C168.012 71.24 167.852 71.92 167.612 72.56C167.372 73.2 167.118 73.7467 166.852 74.2C166.345 75.0267 165.732 75.6533 165.012 76.08C164.318 76.5333 163.452 76.76 162.412 76.76ZM160.252 67.72C161.105 67.5067 161.852 67.0933 162.492 66.48C163.132 65.84 163.625 65.0933 163.972 64.24C164.345 63.3867 164.532 62.52 164.532 61.64V61.44C164.532 60.96 164.452 60.5067 164.292 60.08C164.158 59.6533 163.892 59.44 163.492 59.44C163.012 59.44 162.585 59.68 162.212 60.16C161.865 60.6133 161.558 61.2 161.292 61.92C161.052 62.64 160.852 63.3867 160.692 64.16C160.532 64.9333 160.412 65.64 160.332 66.28C160.278 66.92 160.252 67.3867 160.252 67.68V67.72Z" fill="white"/>
</g>
<defs>
<filter id="filter0_d_307_7" x="31.1765" y="0" width="144.294" height="58.5588" filterUnits="userSpaceOnUse" color-interpolation-filters="sRGB">
<feFlood flood-opacity="0" result="BackgroundImageFix"/>
<feColorMatrix in="SourceAlpha" type="matrix" values="0 0 0 0 0 0 0 0 0 0 0 0 0 0 0 0 0 0 127 0" result="hardAlpha"/>
<feOffset dx="1"/>
<feGaussianBlur stdDeviation="1"/>
<feComposite in2="hardAlpha" operator="out"/>
<feColorMatrix type="matrix" values="0 0 0 0 0 0 0 0 0 0 0 0 0 0 0 0 0 0 0.15 0"/>
<feBlend mode="normal" in2="BackgroundImageFix" result="effect1_dropShadow_307_7"/>
<feBlend mode="normal" in="SourceGraphic" in2="effect1_dropShadow_307_7" result="shape"/>
</filter>
<filter id="filter1_d_307_7" x="0" y="36.2941" width="204.647" height="56.5588" filterUnits="userSpaceOnUse" color-interpolation-filters="sRGB">
<feFlood flood-opacity="0" result="BackgroundImageFix"/>
<feColorMatrix in="SourceAlpha" type="matrix" values="0 0 0 0 0 0 0 0 0 0 0 0 0 0 0 0 0 0 127 0" result="hardAlpha"/>
<feOffset dy="1"/>
<feGaussianBlur stdDeviation="0.5"/>
<feComposite in2="hardAlpha" operator="out"/>
<feColorMatrix type="matrix" values="0 0 0 0 0 0 0 0 0 0 0 0 0 0 0 0 0 0 0.15 0"/>
<feBlend mode="normal" in2="BackgroundImageFix" result="effect1_dropShadow_307_7"/>
<feBlend mode="normal" in="SourceGraphic" in2="effect1_dropShadow_307_7" result="shape"/>
</filter>
</defs>
</svg>
