<svg width="354" height="136" viewBox="0 0 354 136" fill="none" xmlns="http://www.w3.org/2000/svg">
<g filter="url(#filter0_d_302_64)">
<rect x="2" y="12" width="350" height="120" rx="4" fill="white"/>
</g>
<rect x="13" y="23" width="98" height="98" rx="3" fill="#D9D9D9" stroke="#E61F94" stroke-width="2"/>
<path d="M34.2557 60.3636V72H32.8466V60.3636H34.2557ZM36.8991 72V63.2727H38.1946V64.6364H38.3082C38.4901 64.1705 38.7836 63.8087 39.1889 63.5511C39.5942 63.2898 40.081 63.1591 40.6491 63.1591C41.2249 63.1591 41.7041 63.2898 42.0866 63.5511C42.473 63.8087 42.7741 64.1705 42.9901 64.6364H43.081C43.3045 64.1856 43.6397 63.8277 44.0866 63.5625C44.5336 63.2936 45.0696 63.1591 45.6946 63.1591C46.4749 63.1591 47.1132 63.4034 47.6094 63.892C48.1056 64.3769 48.3537 65.1326 48.3537 66.1591V72H47.0128V66.1591C47.0128 65.5152 46.8366 65.0549 46.4844 64.7784C46.1321 64.5019 45.7173 64.3636 45.2401 64.3636C44.6264 64.3636 44.151 64.5492 43.8139 64.9205C43.4768 65.2879 43.3082 65.7538 43.3082 66.3182V72H41.9446V66.0227C41.9446 65.5265 41.7836 65.1269 41.4616 64.8239C41.1397 64.517 40.7249 64.3636 40.2173 64.3636C39.8688 64.3636 39.5431 64.4564 39.2401 64.642C38.9408 64.8277 38.6984 65.0852 38.5128 65.4148C38.331 65.7405 38.2401 66.1174 38.2401 66.5455V72H36.8991ZM53.3736 72.2045C52.8205 72.2045 52.3187 72.1004 51.8679 71.892C51.4171 71.6799 51.0592 71.375 50.794 70.9773C50.5289 70.5758 50.3963 70.0909 50.3963 69.5227C50.3963 69.0227 50.4948 68.6174 50.6918 68.3068C50.8887 67.9924 51.152 67.7462 51.4815 67.5682C51.8111 67.3902 52.1747 67.2576 52.5724 67.1705C52.974 67.0795 53.3774 67.0076 53.7827 66.9545C54.313 66.8864 54.7429 66.8352 55.0724 66.8011C55.4058 66.7633 55.6482 66.7008 55.7997 66.6136C55.955 66.5265 56.0327 66.375 56.0327 66.1591V66.1136C56.0327 65.553 55.8793 65.1174 55.5724 64.8068C55.2694 64.4962 54.8092 64.3409 54.1918 64.3409C53.5516 64.3409 53.0497 64.4811 52.6861 64.7614C52.3224 65.0417 52.0668 65.3409 51.919 65.6591L50.6463 65.2045C50.8736 64.6742 51.1766 64.2614 51.5554 63.9659C51.938 63.6667 52.3546 63.4583 52.8054 63.3409C53.2599 63.2197 53.7069 63.1591 54.1463 63.1591C54.4266 63.1591 54.7486 63.1932 55.1122 63.2614C55.4796 63.3258 55.8338 63.4602 56.1747 63.6648C56.5194 63.8693 56.8054 64.178 57.0327 64.5909C57.2599 65.0038 57.3736 65.5568 57.3736 66.25V72H56.0327V70.8182H55.9645C55.8736 71.0076 55.7221 71.2102 55.5099 71.4261C55.2978 71.642 55.0156 71.8258 54.6634 71.9773C54.3111 72.1288 53.8812 72.2045 53.3736 72.2045ZM53.5781 71C54.1084 71 54.5554 70.8958 54.919 70.6875C55.2865 70.4792 55.563 70.2102 55.7486 69.8807C55.938 69.5511 56.0327 69.2045 56.0327 68.8409V67.6136C55.9759 67.6818 55.8509 67.7443 55.6577 67.8011C55.4683 67.8542 55.2486 67.9015 54.9986 67.9432C54.7524 67.9811 54.5118 68.0152 54.277 68.0455C54.0459 68.072 53.8584 68.0947 53.7145 68.1136C53.366 68.1591 53.0402 68.233 52.7372 68.3352C52.438 68.4337 52.1955 68.5833 52.0099 68.7841C51.8281 68.9811 51.7372 69.25 51.7372 69.5909C51.7372 70.0568 51.9096 70.4091 52.2543 70.6477C52.6027 70.8826 53.044 71 53.5781 71ZM63.3438 75.4545C62.696 75.4545 62.1392 75.3712 61.6733 75.2045C61.2074 75.0417 60.8191 74.8258 60.5085 74.5568C60.2017 74.2917 59.9574 74.0076 59.7756 73.7045L60.8438 72.9545C60.965 73.1136 61.1184 73.2955 61.304 73.5C61.4896 73.7083 61.7434 73.8883 62.0653 74.0398C62.3911 74.1951 62.8172 74.2727 63.3438 74.2727C64.0483 74.2727 64.6297 74.1023 65.0881 73.7614C65.5464 73.4205 65.7756 72.8864 65.7756 72.1591V70.3864H65.6619C65.5634 70.5455 65.4233 70.7424 65.2415 70.9773C65.0634 71.2083 64.8059 71.4148 64.4688 71.5966C64.1354 71.7746 63.6847 71.8636 63.1165 71.8636C62.4119 71.8636 61.7794 71.697 61.2188 71.3636C60.6619 71.0303 60.2206 70.5455 59.8949 69.9091C59.5729 69.2727 59.4119 68.5 59.4119 67.5909C59.4119 66.697 59.5691 65.9186 59.8835 65.2557C60.1979 64.589 60.6354 64.0739 61.196 63.7102C61.7566 63.3428 62.4044 63.1591 63.1392 63.1591C63.7074 63.1591 64.1581 63.2538 64.4915 63.4432C64.8286 63.6288 65.0862 63.8409 65.2642 64.0795C65.446 64.3144 65.5862 64.5076 65.6847 64.6591H65.821V63.2727H67.1165V72.25C67.1165 73 66.946 73.6098 66.6051 74.0795C66.268 74.553 65.8134 74.8996 65.2415 75.1193C64.6733 75.3428 64.0407 75.4545 63.3438 75.4545ZM63.2983 70.6591C63.8362 70.6591 64.2907 70.536 64.6619 70.2898C65.0331 70.0436 65.3153 69.6894 65.5085 69.2273C65.7017 68.7652 65.7983 68.2121 65.7983 67.5682C65.7983 66.9394 65.7036 66.3845 65.5142 65.9034C65.3248 65.4223 65.0445 65.0455 64.6733 64.7727C64.3021 64.5 63.8438 64.3636 63.2983 64.3636C62.7301 64.3636 62.2566 64.5076 61.8778 64.7955C61.5028 65.0833 61.2206 65.4697 61.0312 65.9545C60.8456 66.4394 60.7528 66.9773 60.7528 67.5682C60.7528 68.1742 60.8475 68.7102 61.0369 69.1761C61.2301 69.6383 61.5142 70.0019 61.8892 70.267C62.268 70.5284 62.7377 70.6591 63.2983 70.6591ZM73.2301 72.1818C72.3892 72.1818 71.6638 71.9962 71.054 71.625C70.4479 71.25 69.9801 70.7273 69.6506 70.0568C69.3248 69.3826 69.1619 68.5985 69.1619 67.7045C69.1619 66.8106 69.3248 66.0227 69.6506 65.3409C69.9801 64.6553 70.4384 64.1212 71.0256 63.7386C71.6165 63.3523 72.3059 63.1591 73.0938 63.1591C73.5483 63.1591 73.9972 63.2348 74.4403 63.3864C74.8835 63.5379 75.2869 63.7841 75.6506 64.125C76.0142 64.4621 76.304 64.9091 76.5199 65.4659C76.7358 66.0227 76.8438 66.7083 76.8438 67.5227V68.0909H70.1165V66.9318H75.4801C75.4801 66.4394 75.3816 66 75.1847 65.6136C74.9915 65.2273 74.715 64.9223 74.3551 64.6989C73.9991 64.4754 73.5786 64.3636 73.0938 64.3636C72.5597 64.3636 72.0975 64.4962 71.7074 64.7614C71.321 65.0227 71.0237 65.3636 70.8153 65.7841C70.607 66.2045 70.5028 66.6553 70.5028 67.1364V67.9091C70.5028 68.5682 70.6165 69.1269 70.8438 69.5852C71.0748 70.0398 71.3949 70.3864 71.804 70.625C72.2131 70.8598 72.6884 70.9773 73.2301 70.9773C73.5824 70.9773 73.9006 70.928 74.1847 70.8295C74.4725 70.7273 74.7206 70.5758 74.929 70.375C75.1373 70.1705 75.2983 69.9167 75.4119 69.6136L76.7074 69.9773C76.571 70.4167 76.3419 70.803 76.0199 71.1364C75.6979 71.4659 75.3002 71.7235 74.8267 71.9091C74.3532 72.0909 73.821 72.1818 73.2301 72.1818ZM78.8835 72V63.2727H80.179V64.6364H80.2926C80.4744 64.1705 80.768 63.8087 81.1733 63.5511C81.5786 63.2898 82.0653 63.1591 82.6335 63.1591C83.2093 63.1591 83.6884 63.2898 84.071 63.5511C84.4574 63.8087 84.7585 64.1705 84.9744 64.6364H85.0653C85.2888 64.1856 85.6241 63.8277 86.071 63.5625C86.518 63.2936 87.054 63.1591 87.679 63.1591C88.4593 63.1591 89.0975 63.4034 89.5938 63.892C90.09 64.3769 90.3381 65.1326 90.3381 66.1591V72H88.9972V66.1591C88.9972 65.5152 88.821 65.0549 88.4688 64.7784C88.1165 64.5019 87.7017 64.3636 87.2244 64.3636C86.6108 64.3636 86.1354 64.5492 85.7983 64.9205C85.4612 65.2879 85.2926 65.7538 85.2926 66.3182V72H83.929V66.0227C83.929 65.5265 83.768 65.1269 83.446 64.8239C83.1241 64.517 82.7093 64.3636 82.2017 64.3636C81.8532 64.3636 81.5275 64.4564 81.2244 64.642C80.9252 64.8277 80.6828 65.0852 80.4972 65.4148C80.3153 65.7405 80.2244 66.1174 80.2244 66.5455V72H78.8835ZM32.9638 91V79.3636H36.8956C37.8085 79.3636 38.5547 79.5284 39.1342 79.858C39.7176 80.1837 40.1494 80.625 40.4297 81.1818C40.71 81.7386 40.8501 82.3598 40.8501 83.0455C40.8501 83.7311 40.71 84.3542 40.4297 84.9148C40.1532 85.4754 39.7251 85.9223 39.1456 86.2557C38.5661 86.5852 37.8236 86.75 36.9183 86.75H34.1001V85.5H36.8729C37.4979 85.5 37.9998 85.392 38.3786 85.1761C38.7573 84.9602 39.032 84.6686 39.2024 84.3011C39.3767 83.9299 39.4638 83.5114 39.4638 83.0455C39.4638 82.5795 39.3767 82.1629 39.2024 81.7955C39.032 81.428 38.7554 81.1402 38.3729 80.9318C37.9903 80.7197 37.4827 80.6136 36.8501 80.6136H34.3729V91H32.9638ZM42.9382 91V82.2727H44.2337V83.5909H44.3246C44.4837 83.1591 44.7715 82.8087 45.1882 82.5398C45.6049 82.2708 46.0746 82.1364 46.5973 82.1364C46.6958 82.1364 46.8189 82.1383 46.9666 82.142C47.1143 82.1458 47.2261 82.1515 47.3018 82.1591V83.5227C47.2564 83.5114 47.1522 83.4943 46.9893 83.4716C46.8303 83.4451 46.6617 83.4318 46.4837 83.4318C46.0594 83.4318 45.6806 83.5208 45.3473 83.6989C45.0178 83.8731 44.7564 84.1155 44.5632 84.4261C44.3738 84.733 44.2791 85.0833 44.2791 85.4773V91H42.9382ZM52.1712 91.1818C51.3833 91.1818 50.692 90.9943 50.0973 90.6193C49.5064 90.2443 49.0443 89.7197 48.7109 89.0455C48.3814 88.3712 48.2166 87.5833 48.2166 86.6818C48.2166 85.7727 48.3814 84.9792 48.7109 84.3011C49.0443 83.6231 49.5064 83.0966 50.0973 82.7216C50.692 82.3466 51.3833 82.1591 52.1712 82.1591C52.959 82.1591 53.6484 82.3466 54.2393 82.7216C54.834 83.0966 55.2962 83.6231 55.6257 84.3011C55.959 84.9792 56.1257 85.7727 56.1257 86.6818C56.1257 87.5833 55.959 88.3712 55.6257 89.0455C55.2962 89.7197 54.834 90.2443 54.2393 90.6193C53.6484 90.9943 52.959 91.1818 52.1712 91.1818ZM52.1712 89.9773C52.7696 89.9773 53.2621 89.8239 53.6484 89.517C54.0348 89.2102 54.3208 88.8068 54.5064 88.3068C54.692 87.8068 54.7848 87.2652 54.7848 86.6818C54.7848 86.0985 54.692 85.5549 54.5064 85.0511C54.3208 84.5473 54.0348 84.1402 53.6484 83.8295C53.2621 83.5189 52.7696 83.3636 52.1712 83.3636C51.5727 83.3636 51.0803 83.5189 50.6939 83.8295C50.3075 84.1402 50.0215 84.5473 49.8359 85.0511C49.6503 85.5549 49.5575 86.0985 49.5575 86.6818C49.5575 87.2652 49.6503 87.8068 49.8359 88.3068C50.0215 88.8068 50.3075 89.2102 50.6939 89.517C51.0803 89.8239 51.5727 89.9773 52.1712 89.9773ZM61.468 91.1818C60.7408 91.1818 60.0987 90.9981 59.5419 90.6307C58.9851 90.2595 58.5495 89.7367 58.2351 89.0625C57.9207 88.3845 57.7635 87.5833 57.7635 86.6591C57.7635 85.7424 57.9207 84.947 58.2351 84.2727C58.5495 83.5985 58.987 83.0777 59.5476 82.7102C60.1082 82.3428 60.7559 82.1591 61.4908 82.1591C62.0589 82.1591 62.5078 82.2538 62.8374 82.4432C63.1707 82.6288 63.4245 82.8409 63.5987 83.0795C63.7768 83.3144 63.915 83.5076 64.0135 83.6591H64.1271V79.3636H65.468V91H64.1726V89.6591H64.0135C63.915 89.8182 63.7749 90.0189 63.593 90.2614C63.4112 90.5 63.1518 90.714 62.8146 90.9034C62.4775 91.089 62.0286 91.1818 61.468 91.1818ZM61.6499 89.9773C62.1877 89.9773 62.6423 89.8371 63.0135 89.5568C63.3847 89.2727 63.6669 88.8807 63.8601 88.3807C64.0533 87.8769 64.1499 87.2955 64.1499 86.6364C64.1499 85.9848 64.0552 85.4148 63.8658 84.9261C63.6764 84.4337 63.3961 84.0511 63.0249 83.7784C62.6536 83.5019 62.1953 83.3636 61.6499 83.3636C61.0817 83.3636 60.6082 83.5095 60.2294 83.8011C59.8544 84.089 59.5722 84.4811 59.3828 84.9773C59.1972 85.4697 59.1044 86.0227 59.1044 86.6364C59.1044 87.2576 59.1991 87.822 59.3885 88.3295C59.5817 88.8333 59.8658 89.2348 60.2408 89.5341C60.6196 89.8295 61.0893 89.9773 61.6499 89.9773ZM73.6101 87.4318V82.2727H74.951V91H73.6101V89.5227H73.5192C73.3146 89.9659 72.9964 90.3428 72.5646 90.6534C72.1328 90.9602 71.5874 91.1136 70.9283 91.1136C70.3828 91.1136 69.898 90.9943 69.4737 90.7557C69.0495 90.5133 68.7161 90.1496 68.4737 89.6648C68.2313 89.1761 68.1101 88.5606 68.1101 87.8182V82.2727H69.451V87.7273C69.451 88.3636 69.629 88.8712 69.9851 89.25C70.3449 89.6288 70.8033 89.8182 71.3601 89.8182C71.6934 89.8182 72.0324 89.733 72.3771 89.5625C72.7256 89.392 73.0173 89.1307 73.2521 88.7784C73.4908 88.4261 73.6101 87.9773 73.6101 87.4318ZM81.2024 82.2727V83.4091H76.6797V82.2727H81.2024ZM77.9979 80.1818H79.3388V88.5C79.3388 88.8788 79.3937 89.1629 79.5036 89.3523C79.6172 89.5379 79.7611 89.6629 79.9354 89.7273C80.1134 89.7879 80.3009 89.8182 80.4979 89.8182C80.6456 89.8182 80.7668 89.8106 80.8615 89.7955C80.9562 89.7765 81.032 89.7614 81.0888 89.75L81.3615 90.9545C81.2706 90.9886 81.1437 91.0227 80.9808 91.0568C80.8179 91.0947 80.6115 91.1136 80.3615 91.1136C79.9827 91.1136 79.6115 91.0322 79.2479 90.8693C78.888 90.7064 78.5888 90.4583 78.3501 90.125C78.1153 89.7917 77.9979 89.3712 77.9979 88.8636V80.1818ZM86.6712 91.1818C85.8833 91.1818 85.192 90.9943 84.5973 90.6193C84.0064 90.2443 83.5443 89.7197 83.2109 89.0455C82.8814 88.3712 82.7166 87.5833 82.7166 86.6818C82.7166 85.7727 82.8814 84.9792 83.2109 84.3011C83.5443 83.6231 84.0064 83.0966 84.5973 82.7216C85.192 82.3466 85.8833 82.1591 86.6712 82.1591C87.459 82.1591 88.1484 82.3466 88.7393 82.7216C89.334 83.0966 89.7962 83.6231 90.1257 84.3011C90.459 84.9792 90.6257 85.7727 90.6257 86.6818C90.6257 87.5833 90.459 88.3712 90.1257 89.0455C89.7962 89.7197 89.334 90.2443 88.7393 90.6193C88.1484 90.9943 87.459 91.1818 86.6712 91.1818ZM86.6712 89.9773C87.2696 89.9773 87.7621 89.8239 88.1484 89.517C88.5348 89.2102 88.8208 88.8068 89.0064 88.3068C89.192 87.8068 89.2848 87.2652 89.2848 86.6818C89.2848 86.0985 89.192 85.5549 89.0064 85.0511C88.8208 84.5473 88.5348 84.1402 88.1484 83.8295C87.7621 83.5189 87.2696 83.3636 86.6712 83.3636C86.0727 83.3636 85.5803 83.5189 85.1939 83.8295C84.8075 84.1402 84.5215 84.5473 84.3359 85.0511C84.1503 85.5549 84.0575 86.0985 84.0575 86.6818C84.0575 87.2652 84.1503 87.8068 84.3359 88.3068C84.5215 88.8068 84.8075 89.2102 85.1939 89.517C85.5803 89.8239 86.0727 89.9773 86.6712 89.9773Z" fill="black"/>
<rect x="157" width="160" height="25" rx="4" fill="#E61F94"/>
<path d="M168.976 14.0879C168.976 15.0267 168.657 15.7467 168.019 16.248C167.381 16.7493 166.453 17 165.236 17H161.483V6.97852H165.052C166.118 6.97852 166.957 7.20638 167.567 7.66211C168.178 8.11784 168.483 8.74219 168.483 9.53516C168.483 10.5013 168.003 11.2168 167.041 11.6816C167.688 11.8457 168.171 12.1488 168.49 12.5908C168.814 13.0283 168.976 13.5273 168.976 14.0879ZM162.81 11.1758H165.038C165.772 11.1758 166.312 11.0596 166.658 10.8271C167.005 10.5902 167.178 10.1982 167.178 9.65137C167.178 9.15918 167.009 8.79004 166.672 8.54395C166.335 8.29329 165.749 8.16797 164.915 8.16797H162.81V11.1758ZM162.81 15.8105H165.223C166.809 15.8105 167.602 15.2363 167.602 14.0879C167.602 13.4909 167.417 13.0557 167.048 12.7822C166.683 12.5042 166.018 12.3652 165.052 12.3652H162.81V15.8105ZM173.733 17.1709C172.667 17.1709 171.81 16.8382 171.163 16.1729C170.516 15.5029 170.192 14.571 170.192 13.377C170.192 12.1921 170.505 11.2646 171.129 10.5947C171.758 9.92025 172.578 9.58301 173.59 9.58301C174.624 9.58301 175.449 9.91341 176.064 10.5742C176.684 11.235 176.994 12.1693 176.994 13.377V13.6846H171.532C171.587 14.5231 171.817 15.1452 172.223 15.5508C172.633 15.9564 173.136 16.1592 173.733 16.1592C174.185 16.1592 174.59 16.0452 174.95 15.8174C175.315 15.585 175.506 15.2568 175.524 14.833H176.857C176.757 15.5804 176.418 16.1569 175.839 16.5625C175.265 16.9681 174.563 17.1709 173.733 17.1709ZM175.634 12.6729C175.529 11.9756 175.294 11.4538 174.93 11.1074C174.565 10.7611 174.118 10.5879 173.59 10.5879C173.075 10.5879 172.633 10.7611 172.264 11.1074C171.895 11.4492 171.66 11.971 171.56 12.6729H175.634ZM188.246 17H186.954V12.3105C186.954 11.709 186.868 11.2806 186.694 11.0254C186.521 10.7702 186.232 10.6426 185.826 10.6426C185.202 10.6426 184.589 11.0299 183.987 11.8047V17H182.702V12.3105C182.702 11.709 182.616 11.2806 182.442 11.0254C182.269 10.7702 181.978 10.6426 181.567 10.6426C180.943 10.6426 180.332 11.0299 179.735 11.8047V17H178.443V9.74707H179.735V10.6699C180.346 9.94531 181.023 9.58301 181.766 9.58301C182.827 9.58301 183.504 10.0205 183.796 10.8955C184.279 10.3258 184.689 9.96582 185.026 9.81543C185.364 9.66048 185.694 9.58301 186.018 9.58301C187.503 9.58301 188.246 10.474 188.246 12.2559V17ZM198.192 17.1709C196.775 17.1709 195.643 16.7061 194.795 15.7764C193.952 14.8421 193.53 13.5798 193.53 11.9893C193.53 10.3988 193.952 9.13867 194.795 8.20898C195.643 7.27474 196.775 6.80762 198.192 6.80762C199.282 6.80762 200.209 7.10156 200.975 7.68945C201.74 8.27734 202.171 9.05208 202.267 10.0137H200.899C200.845 9.38021 200.569 8.87663 200.072 8.50293C199.58 8.12923 198.958 7.94238 198.206 7.94238C197.19 7.94238 196.385 8.29329 195.793 8.99512C195.201 9.69238 194.904 10.6904 194.904 11.9893C194.904 13.2835 195.198 14.2816 195.786 14.9834C196.374 15.6852 197.172 16.0361 198.179 16.0361C198.963 16.0361 199.596 15.8447 200.079 15.4619C200.562 15.0791 200.836 14.5322 200.899 13.8213H202.267C202.171 14.8877 201.752 15.7126 201.009 16.2959C200.266 16.8792 199.327 17.1709 198.192 17.1709ZM205.233 10.6699C205.876 9.94531 206.598 9.58301 207.4 9.58301C209.036 9.58301 209.854 10.474 209.854 12.2559V17H208.562V12.3105C208.562 11.7181 208.455 11.292 208.241 11.0322C208.032 10.7725 207.685 10.6426 207.202 10.6426C206.546 10.6426 205.89 11.0299 205.233 11.8047V17H203.941V6.97852H205.233V10.6699ZM214.674 9.58301C215.708 9.58301 216.533 9.91341 217.148 10.5742C217.768 11.235 218.078 12.1693 218.078 13.377C218.078 14.5801 217.768 15.5143 217.148 16.1797C216.533 16.8405 215.708 17.1709 214.674 17.1709C213.644 17.1709 212.819 16.8405 212.199 16.1797C211.584 15.5143 211.276 14.5801 211.276 13.377C211.276 12.1693 211.584 11.235 212.199 10.5742C212.819 9.91341 213.644 9.58301 214.674 9.58301ZM214.674 16.1592C215.289 16.1592 215.788 15.9268 216.171 15.4619C216.554 14.9925 216.745 14.2975 216.745 13.377C216.745 12.4518 216.554 11.7568 216.171 11.292C215.788 10.8226 215.289 10.5879 214.674 10.5879C214.059 10.5879 213.56 10.8226 213.177 11.292C212.794 11.7568 212.603 12.4518 212.603 13.377C212.603 14.2975 212.794 14.9925 213.177 15.4619C213.56 15.9268 214.059 16.1592 214.674 16.1592ZM222.467 17.1709C221.437 17.1709 220.612 16.8405 219.992 16.1797C219.377 15.5143 219.069 14.5801 219.069 13.377C219.069 12.1693 219.377 11.235 219.992 10.5742C220.612 9.91341 221.437 9.58301 222.467 9.58301C223.26 9.58301 223.921 9.78353 224.449 10.1846C224.982 10.5856 225.297 11.1644 225.393 11.9209H224.066C224.048 11.488 223.884 11.1576 223.574 10.9297C223.269 10.7018 222.9 10.5879 222.467 10.5879C221.852 10.5879 221.353 10.8226 220.97 11.292C220.587 11.7568 220.396 12.4518 220.396 13.377C220.396 14.2975 220.587 14.9925 220.97 15.4619C221.353 15.9268 221.852 16.1592 222.467 16.1592C222.9 16.1592 223.269 16.0452 223.574 15.8174C223.884 15.5895 224.048 15.2614 224.066 14.833H225.393C225.297 15.5895 224.982 16.1683 224.449 16.5693C223.921 16.9704 223.26 17.1709 222.467 17.1709ZM229.467 9.58301C230.501 9.58301 231.326 9.91341 231.941 10.5742C232.561 11.235 232.871 12.1693 232.871 13.377C232.871 14.5801 232.561 15.5143 231.941 16.1797C231.326 16.8405 230.501 17.1709 229.467 17.1709C228.437 17.1709 227.612 16.8405 226.992 16.1797C226.377 15.5143 226.069 14.5801 226.069 13.377C226.069 12.1693 226.377 11.235 226.992 10.5742C227.612 9.91341 228.437 9.58301 229.467 9.58301ZM229.467 16.1592C230.082 16.1592 230.581 15.9268 230.964 15.4619C231.347 14.9925 231.538 14.2975 231.538 13.377C231.538 12.4518 231.347 11.7568 230.964 11.292C230.581 10.8226 230.082 10.5879 229.467 10.5879C228.852 10.5879 228.353 10.8226 227.97 11.292C227.587 11.7568 227.396 12.4518 227.396 13.377C227.396 14.2975 227.587 14.9925 227.97 15.4619C228.353 15.9268 228.852 16.1592 229.467 16.1592ZM235.612 17H234.32V6.97852H235.612V17ZM242.113 15.0928V13.4863H241.231C239.363 13.4863 238.429 13.9945 238.429 15.0107C238.429 15.3799 238.565 15.6647 238.839 15.8652C239.112 16.0612 239.481 16.1592 239.946 16.1592C240.37 16.1592 240.78 16.0635 241.177 15.8721C241.573 15.6807 241.885 15.4209 242.113 15.0928ZM242.113 16.2549C241.457 16.8656 240.612 17.1709 239.577 17.1709C238.857 17.1709 238.265 16.9772 237.8 16.5898C237.335 16.1979 237.103 15.6943 237.103 15.0791C237.103 13.3838 238.563 12.5361 241.484 12.5361H242.113C242.113 12.0166 242.086 11.6406 242.031 11.4082C241.977 11.1712 241.824 10.9753 241.573 10.8203C241.323 10.6654 240.924 10.5879 240.377 10.5879C239.229 10.5879 238.636 10.998 238.6 11.8184H237.314C237.41 10.3281 238.454 9.58301 240.445 9.58301C241.375 9.58301 242.1 9.76758 242.619 10.1367C243.139 10.5059 243.398 11.2305 243.398 12.3105V17H242.113V16.2549ZM248.129 17.0137C247.846 17.0684 247.539 17.0957 247.206 17.0957C246.677 17.0957 246.29 17.0023 246.044 16.8154C245.798 16.624 245.645 16.3802 245.586 16.084C245.527 15.7878 245.497 15.3844 245.497 14.874V10.7588H244.602V9.74707H245.497V7.94238H246.782V9.74707H247.958V10.7588H246.782V14.9424C246.782 15.4391 246.844 15.7559 246.967 15.8926C247.094 16.0247 247.268 16.0908 247.486 16.0908C247.71 16.0908 247.924 16.0726 248.129 16.0361V17.0137ZM253.803 16.0771C253.16 16.8063 252.438 17.1709 251.636 17.1709C250 17.1709 249.182 16.2777 249.182 14.4912V9.74707H250.474V14.4365C250.474 15.029 250.578 15.4551 250.788 15.7148C250.998 15.9746 251.344 16.1045 251.827 16.1045C252.547 16.1045 253.206 15.7171 253.803 14.9424V9.74707H255.088V17H253.803V16.0771ZM261.596 14.915V11.4697C261.04 10.8818 260.404 10.5879 259.688 10.5879C259.137 10.5879 258.695 10.8271 258.362 11.3057C258.034 11.7796 257.87 12.4883 257.87 13.4316C257.87 14.3249 258.025 15.0039 258.335 15.4688C258.649 15.929 259.082 16.1592 259.634 16.1592C260.354 16.1592 261.008 15.7445 261.596 14.915ZM261.596 16.1318C261.021 16.8245 260.331 17.1709 259.524 17.1709C258.576 17.1709 257.843 16.8337 257.323 16.1592C256.804 15.4847 256.544 14.5755 256.544 13.4316C256.544 12.2467 256.833 11.3102 257.412 10.6221C257.995 9.92936 258.727 9.58301 259.606 9.58301C260.39 9.58301 261.053 9.82454 261.596 10.3076V6.97852H262.881V17H261.596V16.1318ZM267.734 9.58301C268.769 9.58301 269.594 9.91341 270.209 10.5742C270.829 11.235 271.139 12.1693 271.139 13.377C271.139 14.5801 270.829 15.5143 270.209 16.1797C269.594 16.8405 268.769 17.1709 267.734 17.1709C266.704 17.1709 265.88 16.8405 265.26 16.1797C264.645 15.5143 264.337 14.5801 264.337 13.377C264.337 12.1693 264.645 11.235 265.26 10.5742C265.88 9.91341 266.704 9.58301 267.734 9.58301ZM267.734 16.1592C268.35 16.1592 268.849 15.9268 269.231 15.4619C269.614 14.9925 269.806 14.2975 269.806 13.377C269.806 12.4518 269.614 11.7568 269.231 11.292C268.849 10.8226 268.35 10.5879 267.734 10.5879C267.119 10.5879 266.62 10.8226 266.237 11.292C265.854 11.7568 265.663 12.4518 265.663 13.377C265.663 14.2975 265.854 14.9925 266.237 15.4619C266.62 15.9268 267.119 16.1592 267.734 16.1592Z" fill="white"/>
<g filter="url(#filter1_d_302_64)">
<path d="M295.126 13.6565C293.4 12.064 293.4 9.48209 295.126 7.88962C296.853 6.29715 299.653 6.29715 301.379 7.88962L308.257 14.2331L302.005 20L295.126 13.6565Z" fill="#BB6B54"/>
<path d="M308.874 13.6503C310.6 12.0578 310.6 9.47589 308.874 7.88342C307.147 6.29096 304.347 6.29095 302.621 7.88342L295.743 14.227L301.995 19.9938L308.874 13.6503Z" fill="#BB6B54"/>
</g>
<g filter="url(#filter2_d_302_64)">
<rect x="22" y="2.22221" width="80" height="32.2222" rx="4" fill="white"/>
<path d="M45.7994 27.272C45.3194 27.272 44.9194 27.096 44.5994 26.744C44.2954 26.392 44.0554 25.92 43.8794 25.328C43.7194 24.736 43.5994 24.08 43.5194 23.36C43.4554 22.624 43.4234 21.88 43.4234 21.128C43.4234 20.808 43.4234 20.504 43.4234 20.216C43.4394 19.912 43.4554 19.608 43.4714 19.304C43.3914 19.32 43.3034 19.328 43.2074 19.328C43.1274 19.328 43.0474 19.328 42.9674 19.328C42.4874 19.328 42.1034 19.28 41.8154 19.184C41.6714 19.136 41.5354 19.016 41.4074 18.824C41.2954 18.632 41.1994 18.424 41.1194 18.2C41.0554 17.976 41.0234 17.808 41.0234 17.696C41.0234 17.616 41.0394 17.576 41.0714 17.576H41.0954C41.4794 17.688 41.8634 17.776 42.2474 17.84C42.6314 17.904 43.0154 17.936 43.3994 17.936H43.5674C43.5994 17.536 43.6314 17.184 43.6634 16.88C43.6954 16.56 43.7194 16.296 43.7354 16.088C43.8314 15.096 43.9434 14.16 44.0714 13.28C44.2154 12.384 44.3674 11.592 44.5274 10.904C43.9514 10.824 43.3674 10.76 42.7754 10.712C42.1994 10.648 41.6074 10.616 40.9994 10.616C40.5354 10.616 40.0554 10.64 39.5594 10.688C39.0794 10.72 38.5914 10.792 38.0954 10.904C37.1194 11.112 36.2954 11.432 35.6234 11.864C34.9514 12.296 34.4474 12.768 34.1114 13.28C33.7754 13.792 33.6074 14.288 33.6074 14.768C33.6074 15.264 33.8074 15.696 34.2074 16.064C34.6234 16.416 35.2474 16.592 36.0794 16.592C36.2074 16.592 36.3354 16.592 36.4634 16.592C36.5914 16.576 36.7274 16.56 36.8714 16.544C37.3034 16.48 37.8234 16.344 38.4314 16.136C39.0394 15.928 39.6634 15.672 40.3034 15.368C40.9594 15.048 41.5434 14.704 42.0554 14.336C42.1034 14.288 42.1994 14.264 42.3434 14.264C42.4074 14.264 42.4394 14.288 42.4394 14.336C42.4394 14.384 42.3994 14.464 42.3194 14.576C42.2554 14.672 42.1274 14.816 41.9354 15.008C41.1354 15.792 40.1994 16.368 39.1274 16.736C38.0714 17.088 37.0314 17.264 36.0074 17.264C35.8474 17.264 35.6874 17.264 35.5274 17.264C35.3834 17.248 35.2394 17.232 35.0954 17.216C34.2154 17.12 33.5274 16.784 33.0314 16.208C32.5514 15.632 32.3114 14.968 32.3114 14.216C32.3114 13.656 32.4634 13.088 32.7674 12.512C33.0714 11.92 33.5354 11.384 34.1594 10.904C34.7994 10.408 35.6234 10.016 36.6314 9.728C37.6394 9.424 38.8474 9.272 40.2554 9.272C40.9274 9.272 41.6554 9.328 42.4394 9.44C43.2234 9.552 44.0234 9.688 44.8394 9.848C44.8554 9.816 44.8634 9.784 44.8634 9.752C44.8794 9.704 44.8954 9.664 44.9114 9.632C44.9274 9.584 44.9594 9.56 45.0074 9.56C45.0714 9.544 45.1274 9.536 45.1754 9.536C45.5754 9.536 45.9194 9.592 46.2074 9.704C46.5114 9.8 46.6634 9.96 46.6634 10.184C47.3674 10.296 48.0474 10.4 48.7034 10.496C49.3754 10.576 50.0074 10.616 50.5994 10.616C51.1594 10.616 51.6634 10.568 52.1114 10.472C52.3834 10.408 52.5914 10.296 52.7354 10.136C52.8794 9.96 52.9514 9.792 52.9514 9.632C52.9514 9.408 52.8474 9.24 52.6394 9.128C52.6234 9.112 52.6154 9.088 52.6154 9.056C52.6154 8.976 52.6474 8.936 52.7114 8.936C53.0154 8.936 53.2714 9.056 53.4794 9.296C53.7034 9.536 53.8154 9.816 53.8154 10.136C53.8154 10.44 53.6714 10.736 53.3834 11.024C53.1114 11.312 52.6314 11.496 51.9434 11.576C51.5114 11.624 51.0714 11.648 50.6234 11.648C49.9354 11.648 49.2394 11.608 48.5354 11.528C47.8474 11.432 47.1514 11.328 46.4474 11.216C46.2874 11.952 46.0954 12.936 45.8714 14.168C45.6634 15.384 45.4714 16.656 45.2954 17.984C46.1594 17.968 47.0074 17.912 47.8394 17.816C48.6874 17.704 49.4074 17.536 49.9994 17.312C50.0794 17.264 50.1354 17.24 50.1674 17.24C50.2794 17.24 50.3434 17.288 50.3594 17.384V17.432C50.3594 17.528 50.3034 17.608 50.1914 17.672C50.0794 17.736 50.0074 17.784 49.9754 17.816C49.6874 17.944 49.2794 18.088 48.7514 18.248C48.2394 18.408 47.6714 18.568 47.0474 18.728C46.4234 18.872 45.7914 19 45.1514 19.112C45.1194 19.56 45.0874 19.992 45.0554 20.408C45.0234 20.824 44.9994 21.24 44.9834 21.656C44.9834 21.816 44.9754 21.984 44.9594 22.16C44.9594 22.336 44.9594 22.52 44.9594 22.712C44.9594 23.256 44.9834 23.808 45.0314 24.368C45.0954 24.912 45.2074 25.368 45.3674 25.736C45.5274 26.104 45.7674 26.288 46.0874 26.288C46.2474 26.288 46.3914 26.24 46.5194 26.144C46.6474 26.048 46.7354 25.944 46.7834 25.832C46.8314 25.704 46.8874 25.64 46.9514 25.64C47.0474 25.64 47.0954 25.72 47.0954 25.88V25.928C47.0954 26.312 46.9754 26.632 46.7354 26.888C46.5114 27.144 46.1994 27.272 45.7994 27.272ZM53.4103 26.168C52.6743 26.168 52.0823 25.992 51.6343 25.64C51.2023 25.288 50.8823 24.832 50.6743 24.272C50.4823 23.696 50.3623 23.088 50.3143 22.448C50.2983 22.32 50.2903 22.184 50.2903 22.04C50.2903 21.896 50.2903 21.76 50.2903 21.632C50.2903 20.88 50.3703 20.128 50.5303 19.376C50.6903 18.624 50.9383 17.944 51.2743 17.336C51.6263 16.712 52.0663 16.216 52.5943 15.848C53.1383 15.464 53.7863 15.272 54.5383 15.272C55.0023 15.272 55.3383 15.44 55.5463 15.776C55.7703 16.112 55.8823 16.464 55.8823 16.832C55.8823 17.68 55.6983 18.424 55.3303 19.064C54.9783 19.704 54.5143 20.232 53.9383 20.648C53.3783 21.064 52.7863 21.36 52.1623 21.536C52.1783 22.016 52.2343 22.544 52.3303 23.12C52.4423 23.68 52.6423 24.168 52.9303 24.584C53.2183 24.984 53.6343 25.184 54.1783 25.184C54.6903 25.184 55.1223 25.032 55.4743 24.728C55.8263 24.408 56.1143 24 56.3383 23.504C56.5623 22.992 56.7303 22.448 56.8423 21.872C56.9703 21.296 57.0663 20.744 57.1303 20.216C57.1943 19.672 57.2423 19.224 57.2743 18.872C57.3063 18.536 57.3303 18.208 57.3463 17.888C57.3623 17.552 57.3703 17.232 57.3703 16.928C57.3703 16.736 57.3703 16.544 57.3703 16.352C57.3703 16.16 57.3543 15.984 57.3223 15.824C56.9863 15.568 56.7303 15.256 56.5543 14.888C56.3943 14.504 56.3143 14.144 56.3143 13.808C56.3143 13.504 56.3783 13.248 56.5063 13.04C56.6503 12.832 56.8583 12.728 57.1303 12.728C57.3063 12.728 57.4823 12.856 57.6583 13.112C57.8343 13.368 57.9543 13.76 58.0183 14.288C58.0503 14.448 58.0663 14.624 58.0663 14.816C58.0663 15.008 58.0663 15.216 58.0663 15.44V15.968C58.2423 16.08 58.4423 16.168 58.6663 16.232C58.9063 16.296 59.1223 16.328 59.3143 16.328C59.4743 16.328 59.6263 16.304 59.7703 16.256C59.9143 16.208 60.0343 16.128 60.1303 16.016C60.2583 15.84 60.3863 15.672 60.5143 15.512C60.6583 15.336 60.9383 15.24 61.3543 15.224H61.5223C61.6343 15.224 61.7543 15.232 61.8823 15.248C62.0103 15.264 62.1543 15.288 62.3143 15.32C62.1223 15.72 61.9623 16.232 61.8343 16.856C61.7063 17.48 61.5943 18.152 61.4983 18.872C61.4183 19.576 61.3543 20.256 61.3063 20.912C61.2743 21.552 61.2583 22.104 61.2583 22.568V22.784C61.2583 23.456 61.3383 24.048 61.4983 24.56C61.6583 25.056 61.9383 25.304 62.3383 25.304C62.5943 25.304 62.8183 25.2 63.0103 24.992C63.2023 24.784 63.3703 24.528 63.5143 24.224C63.6583 23.904 63.7783 23.6 63.8743 23.312C63.9703 23.008 64.0423 22.768 64.0903 22.592C64.1223 22.448 64.1863 22.376 64.2823 22.376C64.3623 22.376 64.4023 22.464 64.4023 22.64V22.76C64.2903 23.864 63.9783 24.704 63.4663 25.28C62.9703 25.84 62.3703 26.12 61.6663 26.12C61.3143 26.12 61.0183 26.048 60.7783 25.904C60.5543 25.76 60.3543 25.56 60.1783 25.304C59.9223 24.92 59.7463 24.392 59.6503 23.72C59.5543 23.048 59.5063 22.328 59.5063 21.56C59.5063 20.696 59.5543 19.848 59.6503 19.016C59.7463 18.184 59.8503 17.496 59.9623 16.952C59.8983 16.968 59.8343 16.984 59.7703 17C59.7063 17 59.6423 17 59.5783 17C59.3063 17 59.0343 16.952 58.7623 16.856C58.5063 16.76 58.2663 16.632 58.0423 16.472C58.0263 16.872 57.9943 17.288 57.9463 17.72C57.8983 18.136 57.8503 18.552 57.8023 18.968C57.7383 19.496 57.6503 20.104 57.5383 20.792C57.4423 21.464 57.2903 22.136 57.0823 22.808C56.8903 23.48 56.6183 24.088 56.2663 24.632C55.9303 25.176 55.4903 25.584 54.9463 25.856C54.5143 26.064 54.0023 26.168 53.4103 26.168ZM52.1623 20.984C52.6583 20.824 53.0823 20.552 53.4343 20.168C53.8023 19.784 54.0823 19.336 54.2743 18.824C54.4823 18.296 54.5863 17.768 54.5863 17.24C54.5863 16.936 54.5383 16.648 54.4423 16.376C54.3463 16.088 54.1623 15.944 53.8903 15.944C53.6023 15.944 53.3543 16.088 53.1463 16.376C52.9543 16.648 52.7943 17 52.6663 17.432C52.5383 17.848 52.4423 18.288 52.3783 18.752C52.3143 19.216 52.2663 19.64 52.2343 20.024C52.2023 20.392 52.1863 20.664 52.1863 20.84C52.1703 20.872 52.1623 20.92 52.1623 20.984ZM68.564 26.12C68.036 26.12 67.62 25.952 67.316 25.616C67.012 25.264 66.796 24.816 66.668 24.272C66.556 23.712 66.5 23.112 66.5 22.472C66.5 21.784 66.54 21.112 66.62 20.456C66.716 19.784 66.812 19.192 66.908 18.68C67.02 18.168 67.1 17.816 67.148 17.624C66.7 17.592 66.348 17.52 66.092 17.408C65.836 17.296 65.62 17.16 65.444 17C65.38 17.768 65.276 18.592 65.132 19.472C65.004 20.352 64.852 21.2 64.676 22.016C64.5 22.816 64.308 23.504 64.1 24.08C64.036 24.288 63.932 24.392 63.788 24.392C63.676 24.392 63.62 24.32 63.62 24.176C63.62 24.144 63.62 24.104 63.62 24.056C63.636 24.008 63.652 23.96 63.668 23.912C63.924 23.176 64.14 22.376 64.316 21.512C64.492 20.632 64.628 19.784 64.724 18.968C64.82 18.152 64.868 17.472 64.868 16.928V16.664C64.468 16.488 64.172 16.232 63.98 15.896C63.804 15.56 63.716 15.24 63.716 14.936C63.716 14.712 63.756 14.512 63.836 14.336C63.932 14.16 64.068 14.072 64.244 14.072H64.292C64.516 14.072 64.716 14.232 64.892 14.552C65.068 14.856 65.212 15.2 65.324 15.584C65.436 15.952 65.492 16.248 65.492 16.472C65.684 16.616 65.892 16.72 66.116 16.784C66.356 16.848 66.556 16.88 66.716 16.88C66.924 16.88 67.06 16.848 67.124 16.784C67.252 16.656 67.404 16.472 67.58 16.232C67.772 15.992 68.068 15.872 68.468 15.872C68.74 15.872 69.068 15.952 69.452 16.112C69.26 16.512 69.084 16.968 68.924 17.48C68.764 17.976 68.628 18.504 68.516 19.064C68.5 19.192 68.46 19.448 68.396 19.832C68.332 20.216 68.276 20.656 68.228 21.152C68.18 21.648 68.156 22.144 68.156 22.64C68.156 23.344 68.228 23.968 68.372 24.512C68.532 25.04 68.82 25.304 69.236 25.304C69.492 25.304 69.716 25.2 69.908 24.992C70.1 24.784 70.268 24.528 70.412 24.224C70.556 23.904 70.676 23.6 70.772 23.312C70.868 23.008 70.94 22.768 70.988 22.592C71.02 22.448 71.084 22.376 71.18 22.376C71.26 22.376 71.3 22.464 71.3 22.64V22.76C71.3 23.496 71.164 24.12 70.892 24.632C70.636 25.128 70.3 25.504 69.884 25.76C69.468 26 69.028 26.12 68.564 26.12ZM73.8946 26.168C73.1586 26.168 72.5666 25.992 72.1186 25.64C71.6866 25.288 71.3666 24.832 71.1586 24.272C70.9666 23.696 70.8466 23.088 70.7986 22.448C70.7826 22.32 70.7746 22.184 70.7746 22.04C70.7746 21.896 70.7746 21.76 70.7746 21.632C70.7746 20.88 70.8546 20.128 71.0146 19.376C71.1746 18.624 71.4226 17.944 71.7586 17.336C72.1106 16.712 72.5506 16.216 73.0786 15.848C73.6226 15.464 74.2706 15.272 75.0226 15.272C75.4866 15.272 75.8226 15.44 76.0306 15.776C76.2546 16.112 76.3666 16.464 76.3666 16.832C76.3666 17.68 76.1826 18.424 75.8146 19.064C75.4626 19.704 74.9986 20.232 74.4226 20.648C73.8626 21.064 73.2706 21.36 72.6466 21.536C72.6626 22.016 72.7186 22.544 72.8146 23.12C72.9266 23.68 73.1266 24.168 73.4146 24.584C73.7026 24.984 74.1186 25.184 74.6626 25.184C75.1746 25.184 75.6066 25.032 75.9586 24.728C76.3106 24.408 76.5986 24 76.8226 23.504C77.0466 22.992 77.2146 22.448 77.3266 21.872C77.4546 21.296 77.5506 20.744 77.6146 20.216C77.6786 19.672 77.7266 19.224 77.7586 18.872C77.7906 18.536 77.8146 18.208 77.8306 17.888C77.8466 17.552 77.8546 17.232 77.8546 16.928C77.8546 16.736 77.8546 16.544 77.8546 16.352C77.8546 16.16 77.8386 15.984 77.8066 15.824C77.4706 15.568 77.2146 15.256 77.0386 14.888C76.8786 14.504 76.7986 14.144 76.7986 13.808C76.7986 13.504 76.8626 13.248 76.9906 13.04C77.1346 12.832 77.3426 12.728 77.6146 12.728C77.7906 12.728 77.9666 12.856 78.1426 13.112C78.3186 13.368 78.4386 13.76 78.5026 14.288C78.5346 14.448 78.5506 14.624 78.5506 14.816C78.5506 15.008 78.5506 15.216 78.5506 15.44V15.968C78.7266 16.08 78.9266 16.168 79.1506 16.232C79.3906 16.296 79.6066 16.328 79.7986 16.328C79.9586 16.328 80.1106 16.304 80.2546 16.256C80.3986 16.208 80.5186 16.128 80.6146 16.016C80.7426 15.84 80.8706 15.672 80.9986 15.512C81.1426 15.336 81.4226 15.24 81.8386 15.224H82.0066C82.1186 15.224 82.2386 15.232 82.3666 15.248C82.4946 15.264 82.6386 15.288 82.7986 15.32C82.6066 15.72 82.4466 16.232 82.3186 16.856C82.1906 17.48 82.0786 18.152 81.9826 18.872C81.9026 19.576 81.8386 20.256 81.7906 20.912C81.7586 21.552 81.7426 22.104 81.7426 22.568V22.784C81.7426 23.456 81.8226 24.048 81.9826 24.56C82.1426 25.056 82.4226 25.304 82.8226 25.304C83.0786 25.304 83.3026 25.2 83.4946 24.992C83.6866 24.784 83.8546 24.528 83.9986 24.224C84.1426 23.904 84.2626 23.6 84.3586 23.312C84.4546 23.008 84.5266 22.768 84.5746 22.592C84.6066 22.448 84.6706 22.376 84.7666 22.376C84.8466 22.376 84.8866 22.464 84.8866 22.64V22.76C84.7746 23.864 84.4626 24.704 83.9506 25.28C83.4546 25.84 82.8546 26.12 82.1506 26.12C81.7986 26.12 81.5026 26.048 81.2626 25.904C81.0386 25.76 80.8386 25.56 80.6626 25.304C80.4066 24.92 80.2306 24.392 80.1346 23.72C80.0386 23.048 79.9906 22.328 79.9906 21.56C79.9906 20.696 80.0386 19.848 80.1346 19.016C80.2306 18.184 80.3346 17.496 80.4466 16.952C80.3826 16.968 80.3186 16.984 80.2546 17C80.1906 17 80.1266 17 80.0626 17C79.7906 17 79.5186 16.952 79.2466 16.856C78.9906 16.76 78.7506 16.632 78.5266 16.472C78.5106 16.872 78.4786 17.288 78.4306 17.72C78.3826 18.136 78.3346 18.552 78.2866 18.968C78.2226 19.496 78.1346 20.104 78.0226 20.792C77.9266 21.464 77.7746 22.136 77.5666 22.808C77.3746 23.48 77.1026 24.088 76.7506 24.632C76.4146 25.176 75.9746 25.584 75.4306 25.856C74.9986 26.064 74.4866 26.168 73.8946 26.168ZM72.6466 20.984C73.1426 20.824 73.5666 20.552 73.9186 20.168C74.2866 19.784 74.5666 19.336 74.7586 18.824C74.9666 18.296 75.0706 17.768 75.0706 17.24C75.0706 16.936 75.0226 16.648 74.9266 16.376C74.8306 16.088 74.6466 15.944 74.3746 15.944C74.0866 15.944 73.8386 16.088 73.6306 16.376C73.4386 16.648 73.2786 17 73.1506 17.432C73.0226 17.848 72.9266 18.288 72.8626 18.752C72.7986 19.216 72.7506 19.64 72.7186 20.024C72.6866 20.392 72.6706 20.664 72.6706 20.84C72.6546 20.872 72.6466 20.92 72.6466 20.984ZM87.1284 26.24C86.5844 26.24 86.1364 26.096 85.7844 25.808C85.4484 25.52 85.1844 25.144 84.9924 24.68C84.8164 24.216 84.6884 23.712 84.6084 23.168C84.5444 22.608 84.5124 22.064 84.5124 21.536C84.5124 21.136 84.5284 20.768 84.5604 20.432C84.5924 20.08 84.6164 19.776 84.6324 19.52C84.7124 18.848 84.8884 18.176 85.1604 17.504C85.4324 16.816 85.8324 16.248 86.3604 15.8C86.8884 15.336 87.5844 15.104 88.4484 15.104C89.0564 15.104 89.5204 15.304 89.8404 15.704C90.1764 16.088 90.4084 16.592 90.5364 17.216C90.6644 17.824 90.7284 18.472 90.7284 19.16C90.7284 19.352 90.7204 19.544 90.7044 19.736C90.7044 19.928 90.6964 20.12 90.6804 20.312C91.0804 20.76 91.5604 20.984 92.1204 20.984C92.5524 20.984 92.9764 20.824 93.3924 20.504C93.4884 20.424 93.5764 20.384 93.6564 20.384C93.7204 20.384 93.7524 20.424 93.7524 20.504C93.7524 20.648 93.7124 20.744 93.6324 20.792C93.3764 21.032 93.1044 21.208 92.8164 21.32C92.5284 21.432 92.2404 21.488 91.9524 21.488C91.4564 21.488 91.0004 21.344 90.5844 21.056C90.5524 21.36 90.5044 21.648 90.4404 21.92C90.3924 22.176 90.3444 22.4 90.2964 22.592C90.1524 23.088 89.9364 23.624 89.6484 24.2C89.3764 24.76 89.0244 25.24 88.5924 25.64C88.1764 26.04 87.6884 26.24 87.1284 26.24ZM87.9204 24.92C88.2564 24.92 88.5364 24.76 88.7604 24.44C89.0004 24.12 89.2004 23.752 89.3604 23.336C89.5204 22.92 89.6324 22.568 89.6964 22.28C89.7444 22.056 89.7844 21.8 89.8164 21.512C89.8484 21.224 89.8724 20.88 89.8884 20.48C89.6644 20.288 89.4724 19.944 89.3124 19.448C89.1684 18.936 89.0964 18.448 89.0964 17.984C89.0964 17.664 89.1364 17.384 89.2164 17.144C89.2964 16.888 89.4164 16.72 89.5764 16.64C89.4804 16.4 89.3524 16.176 89.1924 15.968C89.0324 15.744 88.8084 15.632 88.5204 15.632C88.2484 15.632 88.0004 15.792 87.7764 16.112C87.5684 16.432 87.3844 16.816 87.2244 17.264C87.0644 17.712 86.9364 18.136 86.8404 18.536C86.7604 18.936 86.7124 19.216 86.6964 19.376C86.6804 19.552 86.6564 19.824 86.6244 20.192C86.5924 20.544 86.5764 20.936 86.5764 21.368C86.5764 21.912 86.6084 22.456 86.6724 23C86.7524 23.544 86.8884 24 87.0804 24.368C87.2724 24.736 87.5524 24.92 87.9204 24.92Z" fill="#E61F94"/>
</g>
<path d="M146.746 43.7578C146.746 44.2383 146.576 44.6484 146.236 44.9883C145.9 45.3242 145.494 45.4922 145.018 45.4922C144.537 45.4922 144.127 45.3223 143.787 44.9824C143.451 44.6426 143.283 44.2344 143.283 43.7578C143.283 43.2812 143.451 42.875 143.787 42.5391C144.127 42.1992 144.537 42.0293 145.018 42.0293C145.494 42.0293 145.9 42.1973 146.236 42.5332C146.576 42.8691 146.746 43.2773 146.746 43.7578ZM154.879 39.4102H158.312C158.992 39.4102 159.498 39.4395 159.83 39.498C160.166 39.5527 160.465 39.6699 160.727 39.8496C160.992 40.0293 161.213 40.2695 161.389 40.5703C161.564 40.8672 161.652 41.2012 161.652 41.5723C161.652 41.9746 161.543 42.3438 161.324 42.6797C161.109 43.0156 160.816 43.2676 160.445 43.4355C160.969 43.5879 161.371 43.8477 161.652 44.2148C161.934 44.582 162.074 45.0137 162.074 45.5098C162.074 45.9004 161.982 46.2812 161.799 46.6523C161.619 47.0195 161.371 47.3145 161.055 47.5371C160.742 47.7559 160.355 47.8906 159.895 47.9414C159.605 47.9727 158.908 47.9922 157.803 48H154.879V39.4102ZM156.613 40.8398V42.8262H157.75C158.426 42.8262 158.846 42.8164 159.01 42.7969C159.307 42.7617 159.539 42.6602 159.707 42.4922C159.879 42.3203 159.965 42.0957 159.965 41.8184C159.965 41.5527 159.891 41.3379 159.742 41.1738C159.598 41.0059 159.381 40.9043 159.092 40.8691C158.92 40.8496 158.426 40.8398 157.609 40.8398H156.613ZM156.613 44.2559V46.5527H158.219C158.844 46.5527 159.24 46.5352 159.408 46.5C159.666 46.4531 159.875 46.3398 160.035 46.1602C160.199 45.9766 160.281 45.7324 160.281 45.4277C160.281 45.1699 160.219 44.9512 160.094 44.7715C159.969 44.5918 159.787 44.4609 159.549 44.3789C159.314 44.2969 158.803 44.2559 158.014 44.2559H156.613ZM165.109 48H163.463V41.7773H164.992V42.6621C165.254 42.2441 165.488 41.9688 165.695 41.8359C165.906 41.7031 166.145 41.6367 166.41 41.6367C166.785 41.6367 167.146 41.7402 167.494 41.9473L166.984 43.3828C166.707 43.2031 166.449 43.1133 166.211 43.1133C165.98 43.1133 165.785 43.1777 165.625 43.3066C165.465 43.4316 165.338 43.6602 165.244 43.9922C165.154 44.3242 165.109 45.0195 165.109 46.0781V48ZM168.209 40.9336V39.4102H169.855V40.9336H168.209ZM168.209 48V41.7773H169.855V48H168.209ZM171.396 48.4102L173.277 48.6387C173.309 48.8574 173.381 49.0078 173.494 49.0898C173.65 49.207 173.896 49.2656 174.232 49.2656C174.662 49.2656 174.984 49.2012 175.199 49.0723C175.344 48.9863 175.453 48.8477 175.527 48.6562C175.578 48.5195 175.604 48.2676 175.604 47.9004V46.9922C175.111 47.6641 174.49 48 173.74 48C172.904 48 172.242 47.6465 171.754 46.9395C171.371 46.3809 171.18 45.6855 171.18 44.8535C171.18 43.8105 171.43 43.0137 171.93 42.4629C172.434 41.9121 173.059 41.6367 173.805 41.6367C174.574 41.6367 175.209 41.9746 175.709 42.6504V41.7773H177.25V47.3613C177.25 48.0957 177.189 48.6445 177.068 49.0078C176.947 49.3711 176.777 49.6562 176.559 49.8633C176.34 50.0703 176.047 50.2324 175.68 50.3496C175.316 50.4668 174.855 50.5254 174.297 50.5254C173.242 50.5254 172.494 50.3438 172.053 49.9805C171.611 49.6211 171.391 49.1641 171.391 48.6094C171.391 48.5547 171.393 48.4883 171.396 48.4102ZM172.867 44.7598C172.867 45.4199 172.994 45.9043 173.248 46.2129C173.506 46.5176 173.822 46.6699 174.197 46.6699C174.6 46.6699 174.939 46.5137 175.217 46.2012C175.494 45.8848 175.633 45.418 175.633 44.8008C175.633 44.1562 175.5 43.6777 175.234 43.3652C174.969 43.0527 174.633 42.8965 174.227 42.8965C173.832 42.8965 173.506 43.0508 173.248 43.3594C172.994 43.6641 172.867 44.1309 172.867 44.7598ZM180.115 43.6758L178.621 43.4062C178.789 42.8047 179.078 42.3594 179.488 42.0703C179.898 41.7812 180.508 41.6367 181.316 41.6367C182.051 41.6367 182.598 41.7246 182.957 41.9004C183.316 42.0723 183.568 42.293 183.713 42.5625C183.861 42.8281 183.936 43.3184 183.936 44.0332L183.918 45.9551C183.918 46.502 183.943 46.9062 183.994 47.168C184.049 47.4258 184.148 47.7031 184.293 48H182.664C182.621 47.8906 182.568 47.7285 182.506 47.5137C182.479 47.416 182.459 47.3516 182.447 47.3203C182.166 47.5938 181.865 47.7988 181.545 47.9355C181.225 48.0723 180.883 48.1406 180.52 48.1406C179.879 48.1406 179.373 47.9668 179.002 47.6191C178.635 47.2715 178.451 46.832 178.451 46.3008C178.451 45.9492 178.535 45.6367 178.703 45.3633C178.871 45.0859 179.105 44.875 179.406 44.7305C179.711 44.582 180.148 44.4531 180.719 44.3438C181.488 44.1992 182.021 44.0645 182.318 43.9395V43.7754C182.318 43.459 182.24 43.2344 182.084 43.1016C181.928 42.9648 181.633 42.8965 181.199 42.8965C180.906 42.8965 180.678 42.9551 180.514 43.0723C180.35 43.1855 180.217 43.3867 180.115 43.6758ZM182.318 45.0117C182.107 45.082 181.773 45.166 181.316 45.2637C180.859 45.3613 180.561 45.457 180.42 45.5508C180.205 45.7031 180.098 45.8965 180.098 46.1309C180.098 46.3613 180.184 46.5605 180.355 46.7285C180.527 46.8965 180.746 46.9805 181.012 46.9805C181.309 46.9805 181.592 46.8828 181.861 46.6875C182.061 46.5391 182.191 46.3574 182.254 46.1426C182.297 46.002 182.318 45.7344 182.318 45.3398V45.0117ZM191.271 48H189.742V47.0859C189.488 47.4414 189.188 47.707 188.84 47.8828C188.496 48.0547 188.148 48.1406 187.797 48.1406C187.082 48.1406 186.469 47.8535 185.957 47.2793C185.449 46.7012 185.195 45.8965 185.195 44.8652C185.195 43.8105 185.443 43.0098 185.939 42.4629C186.436 41.9121 187.062 41.6367 187.82 41.6367C188.516 41.6367 189.117 41.9258 189.625 42.5039V39.4102H191.271V48ZM186.877 44.7539C186.877 45.418 186.969 45.8984 187.152 46.1953C187.418 46.625 187.789 46.8398 188.266 46.8398C188.645 46.8398 188.967 46.6797 189.232 46.3594C189.498 46.0352 189.631 45.5527 189.631 44.9121C189.631 44.1973 189.502 43.6836 189.244 43.3711C188.986 43.0547 188.656 42.8965 188.254 42.8965C187.863 42.8965 187.535 43.0527 187.27 43.3652C187.008 43.6738 186.877 44.1367 186.877 44.7539ZM196.504 46.0195L198.145 46.2949C197.934 46.8965 197.6 47.3555 197.143 47.6719C196.689 47.9844 196.121 48.1406 195.438 48.1406C194.355 48.1406 193.555 47.7871 193.035 47.0801C192.625 46.5137 192.42 45.7988 192.42 44.9355C192.42 43.9043 192.689 43.0977 193.229 42.5156C193.768 41.9297 194.449 41.6367 195.273 41.6367C196.199 41.6367 196.93 41.9434 197.465 42.5566C198 43.166 198.256 44.1016 198.232 45.3633H194.107C194.119 45.8516 194.252 46.2324 194.506 46.5059C194.76 46.7754 195.076 46.9102 195.455 46.9102C195.713 46.9102 195.93 46.8398 196.105 46.6992C196.281 46.5586 196.414 46.332 196.504 46.0195ZM196.598 44.3555C196.586 43.8789 196.463 43.5176 196.229 43.2715C195.994 43.0215 195.709 42.8965 195.373 42.8965C195.014 42.8965 194.717 43.0273 194.482 43.2891C194.248 43.5508 194.133 43.9062 194.137 44.3555H196.598ZM199.58 40.9336V39.4102H201.227V40.9336H199.58ZM199.58 48V41.7773H201.227V48H199.58ZM204.496 48H202.85V41.7773H204.379V42.6621C204.641 42.2441 204.875 41.9688 205.082 41.8359C205.293 41.7031 205.531 41.6367 205.797 41.6367C206.172 41.6367 206.533 41.7402 206.881 41.9473L206.371 43.3828C206.094 43.2031 205.836 43.1133 205.598 43.1133C205.367 43.1133 205.172 43.1777 205.012 43.3066C204.852 43.4316 204.725 43.6602 204.631 43.9922C204.541 44.3242 204.496 45.0195 204.496 46.0781V48ZM207.215 44.8008C207.215 44.2539 207.35 43.7246 207.619 43.2129C207.889 42.7012 208.27 42.3105 208.762 42.041C209.258 41.7715 209.811 41.6367 210.42 41.6367C211.361 41.6367 212.133 41.9434 212.734 42.5566C213.336 43.166 213.637 43.9375 213.637 44.8711C213.637 45.8125 213.332 46.5938 212.723 47.2148C212.117 47.832 211.354 48.1406 210.432 48.1406C209.861 48.1406 209.316 48.0117 208.797 47.7539C208.281 47.4961 207.889 47.1191 207.619 46.623C207.35 46.123 207.215 45.5156 207.215 44.8008ZM208.902 44.8887C208.902 45.5059 209.049 45.9785 209.342 46.3066C209.635 46.6348 209.996 46.7988 210.426 46.7988C210.855 46.7988 211.215 46.6348 211.504 46.3066C211.797 45.9785 211.943 45.502 211.943 44.877C211.943 44.2676 211.797 43.7988 211.504 43.4707C211.215 43.1426 210.855 42.9785 210.426 42.9785C209.996 42.9785 209.635 43.1426 209.342 43.4707C209.049 43.7988 208.902 44.2715 208.902 44.8887ZM222.279 44.8418V43.3945H226.018V46.8164C225.654 47.168 225.127 47.4785 224.436 47.748C223.748 48.0137 223.051 48.1465 222.344 48.1465C221.445 48.1465 220.662 47.959 219.994 47.584C219.326 47.2051 218.824 46.666 218.488 45.9668C218.152 45.2637 217.984 44.5 217.984 43.6758C217.984 42.7812 218.172 41.9863 218.547 41.291C218.922 40.5957 219.471 40.0625 220.193 39.6914C220.744 39.4062 221.43 39.2637 222.25 39.2637C223.316 39.2637 224.148 39.4883 224.746 39.9375C225.348 40.3828 225.734 41 225.906 41.7891L224.184 42.1113C224.062 41.6895 223.834 41.3574 223.498 41.1152C223.166 40.8691 222.75 40.7461 222.25 40.7461C221.492 40.7461 220.889 40.9863 220.439 41.4668C219.994 41.9473 219.771 42.6602 219.771 43.6055C219.771 44.625 219.998 45.3906 220.451 45.9023C220.904 46.4102 221.498 46.6641 222.232 46.6641C222.596 46.6641 222.959 46.5938 223.322 46.4531C223.689 46.3086 224.004 46.1348 224.266 45.9316V44.8418H222.279ZM227.23 44.8008C227.23 44.2539 227.365 43.7246 227.635 43.2129C227.904 42.7012 228.285 42.3105 228.777 42.041C229.273 41.7715 229.826 41.6367 230.436 41.6367C231.377 41.6367 232.148 41.9434 232.75 42.5566C233.352 43.166 233.652 43.9375 233.652 44.8711C233.652 45.8125 233.348 46.5938 232.738 47.2148C232.133 47.832 231.369 48.1406 230.447 48.1406C229.877 48.1406 229.332 48.0117 228.812 47.7539C228.297 47.4961 227.904 47.1191 227.635 46.623C227.365 46.123 227.23 45.5156 227.23 44.8008ZM228.918 44.8887C228.918 45.5059 229.064 45.9785 229.357 46.3066C229.65 46.6348 230.012 46.7988 230.441 46.7988C230.871 46.7988 231.23 46.6348 231.52 46.3066C231.812 45.9785 231.959 45.502 231.959 44.877C231.959 44.2676 231.812 43.7988 231.52 43.4707C231.23 43.1426 230.871 42.9785 230.441 42.9785C230.012 42.9785 229.65 43.1426 229.357 43.4707C229.064 43.7988 228.918 44.2715 228.918 44.8887ZM239.043 48V47.0684C238.816 47.4004 238.518 47.6621 238.146 47.8535C237.779 48.0449 237.391 48.1406 236.98 48.1406C236.562 48.1406 236.188 48.0488 235.855 47.8652C235.523 47.6816 235.283 47.4238 235.135 47.0918C234.986 46.7598 234.912 46.3008 234.912 45.7148V41.7773H236.559V44.6367C236.559 45.5117 236.588 46.0488 236.646 46.248C236.709 46.4434 236.82 46.5996 236.98 46.7168C237.141 46.8301 237.344 46.8867 237.59 46.8867C237.871 46.8867 238.123 46.8105 238.346 46.6582C238.568 46.502 238.721 46.3105 238.803 46.084C238.885 45.8535 238.926 45.293 238.926 44.4023V41.7773H240.572V48H239.043ZM243.859 48H242.213V41.7773H243.742V42.6621C244.004 42.2441 244.238 41.9688 244.445 41.8359C244.656 41.7031 244.895 41.6367 245.16 41.6367C245.535 41.6367 245.896 41.7402 246.244 41.9473L245.734 43.3828C245.457 43.2031 245.199 43.1133 244.961 43.1133C244.73 43.1133 244.535 43.1777 244.375 43.3066C244.215 43.4316 244.088 43.6602 243.994 43.9922C243.904 44.3242 243.859 45.0195 243.859 46.0781V48ZM246.836 41.7773H248.354V42.627C248.896 41.9668 249.543 41.6367 250.293 41.6367C250.691 41.6367 251.037 41.7188 251.33 41.8828C251.623 42.0469 251.863 42.2949 252.051 42.627C252.324 42.2949 252.619 42.0469 252.936 41.8828C253.252 41.7188 253.59 41.6367 253.949 41.6367C254.406 41.6367 254.793 41.7305 255.109 41.918C255.426 42.1016 255.662 42.373 255.818 42.7324C255.932 42.998 255.988 43.4277 255.988 44.0215V48H254.342V44.4434C254.342 43.8262 254.285 43.4277 254.172 43.248C254.02 43.0137 253.785 42.8965 253.469 42.8965C253.238 42.8965 253.021 42.9668 252.818 43.1074C252.615 43.248 252.469 43.4551 252.379 43.7285C252.289 43.998 252.244 44.4258 252.244 45.0117V48H250.598V44.5898C250.598 43.9844 250.568 43.5938 250.51 43.418C250.451 43.2422 250.359 43.1113 250.234 43.0254C250.113 42.9395 249.947 42.8965 249.736 42.8965C249.482 42.8965 249.254 42.9648 249.051 43.1016C248.848 43.2383 248.701 43.4355 248.611 43.6934C248.525 43.9512 248.482 44.3789 248.482 44.9766V48H246.836V41.7773ZM261.238 46.0195L262.879 46.2949C262.668 46.8965 262.334 47.3555 261.877 47.6719C261.424 47.9844 260.855 48.1406 260.172 48.1406C259.09 48.1406 258.289 47.7871 257.77 47.0801C257.359 46.5137 257.154 45.7988 257.154 44.9355C257.154 43.9043 257.424 43.0977 257.963 42.5156C258.502 41.9297 259.184 41.6367 260.008 41.6367C260.934 41.6367 261.664 41.9434 262.199 42.5566C262.734 43.166 262.99 44.1016 262.967 45.3633H258.842C258.854 45.8516 258.986 46.2324 259.24 46.5059C259.494 46.7754 259.811 46.9102 260.189 46.9102C260.447 46.9102 260.664 46.8398 260.84 46.6992C261.016 46.5586 261.148 46.332 261.238 46.0195ZM261.332 44.3555C261.32 43.8789 261.197 43.5176 260.963 43.2715C260.729 43.0215 260.443 42.8965 260.107 42.8965C259.748 42.8965 259.451 43.0273 259.217 43.2891C258.982 43.5508 258.867 43.9062 258.871 44.3555H261.332ZM267.168 41.7773V43.0898H266.043V45.5977C266.043 46.1055 266.053 46.4023 266.072 46.4883C266.096 46.5703 266.145 46.6387 266.219 46.6934C266.297 46.748 266.391 46.7754 266.5 46.7754C266.652 46.7754 266.873 46.7227 267.162 46.6172L267.303 47.8945C266.92 48.0586 266.486 48.1406 266.002 48.1406C265.705 48.1406 265.438 48.0918 265.199 47.9941C264.961 47.8926 264.785 47.7637 264.672 47.6074C264.562 47.4473 264.486 47.2324 264.443 46.9629C264.408 46.7715 264.391 46.3848 264.391 45.8027V43.0898H263.635V41.7773H264.391V40.541L266.043 39.5801V41.7773H267.168Z" fill="#E61F94"/>
<path d="M146.746 60.7578C146.746 61.2383 146.576 61.6484 146.236 61.9883C145.9 62.3242 145.494 62.4922 145.018 62.4922C144.537 62.4922 144.127 62.3223 143.787 61.9824C143.451 61.6426 143.283 61.2344 143.283 60.7578C143.283 60.2812 143.451 59.875 143.787 59.5391C144.127 59.1992 144.537 59.0293 145.018 59.0293C145.494 59.0293 145.9 59.1973 146.236 59.5332C146.576 59.8691 146.746 60.2773 146.746 60.7578ZM154.85 65V56.4102H157.445L159.004 62.2695L160.545 56.4102H163.146V65H161.535V58.2383L159.83 65H158.16L156.461 58.2383V65H154.85ZM164.477 61.8008C164.477 61.2539 164.611 60.7246 164.881 60.2129C165.15 59.7012 165.531 59.3105 166.023 59.041C166.52 58.7715 167.072 58.6367 167.682 58.6367C168.623 58.6367 169.395 58.9434 169.996 59.5566C170.598 60.166 170.898 60.9375 170.898 61.8711C170.898 62.8125 170.594 63.5938 169.984 64.2148C169.379 64.832 168.615 65.1406 167.693 65.1406C167.123 65.1406 166.578 65.0117 166.059 64.7539C165.543 64.4961 165.15 64.1191 164.881 63.623C164.611 63.123 164.477 62.5156 164.477 61.8008ZM166.164 61.8887C166.164 62.5059 166.311 62.9785 166.604 63.3066C166.896 63.6348 167.258 63.7988 167.688 63.7988C168.117 63.7988 168.477 63.6348 168.766 63.3066C169.059 62.9785 169.205 62.502 169.205 61.877C169.205 61.2676 169.059 60.7988 168.766 60.4707C168.477 60.1426 168.117 59.9785 167.688 59.9785C167.258 59.9785 166.896 60.1426 166.604 60.4707C166.311 60.7988 166.164 61.2715 166.164 61.8887ZM176.289 65V64.0684C176.062 64.4004 175.764 64.6621 175.393 64.8535C175.025 65.0449 174.637 65.1406 174.227 65.1406C173.809 65.1406 173.434 65.0488 173.102 64.8652C172.77 64.6816 172.529 64.4238 172.381 64.0918C172.232 63.7598 172.158 63.3008 172.158 62.7148V58.7773H173.805V61.6367C173.805 62.5117 173.834 63.0488 173.893 63.248C173.955 63.4434 174.066 63.5996 174.227 63.7168C174.387 63.8301 174.59 63.8867 174.836 63.8867C175.117 63.8867 175.369 63.8105 175.592 63.6582C175.814 63.502 175.967 63.3105 176.049 63.084C176.131 62.8535 176.172 62.293 176.172 61.4023V58.7773H177.818V65H176.289ZM178.949 63.2246L180.602 62.9727C180.672 63.293 180.814 63.5371 181.029 63.7051C181.244 63.8691 181.545 63.9512 181.932 63.9512C182.357 63.9512 182.678 63.873 182.893 63.7168C183.037 63.6074 183.109 63.4609 183.109 63.2773C183.109 63.1523 183.07 63.0488 182.992 62.9668C182.91 62.8887 182.727 62.8164 182.441 62.75C181.113 62.457 180.271 62.1895 179.916 61.9473C179.424 61.6113 179.178 61.1445 179.178 60.5469C179.178 60.0078 179.391 59.5547 179.816 59.1875C180.242 58.8203 180.902 58.6367 181.797 58.6367C182.648 58.6367 183.281 58.7754 183.695 59.0527C184.109 59.3301 184.395 59.7402 184.551 60.2832L182.998 60.5703C182.932 60.3281 182.805 60.1426 182.617 60.0137C182.434 59.8848 182.17 59.8203 181.826 59.8203C181.393 59.8203 181.082 59.8809 180.895 60.002C180.77 60.0879 180.707 60.1992 180.707 60.3359C180.707 60.4531 180.762 60.5527 180.871 60.6348C181.02 60.7441 181.531 60.8984 182.406 61.0977C183.285 61.2969 183.898 61.541 184.246 61.8301C184.59 62.123 184.762 62.5312 184.762 63.0547C184.762 63.625 184.523 64.1152 184.047 64.5254C183.57 64.9355 182.865 65.1406 181.932 65.1406C181.084 65.1406 180.412 64.9688 179.916 64.625C179.424 64.2812 179.102 63.8145 178.949 63.2246ZM185.629 63.2246L187.281 62.9727C187.352 63.293 187.494 63.5371 187.709 63.7051C187.924 63.8691 188.225 63.9512 188.611 63.9512C189.037 63.9512 189.357 63.873 189.572 63.7168C189.717 63.6074 189.789 63.4609 189.789 63.2773C189.789 63.1523 189.75 63.0488 189.672 62.9668C189.59 62.8887 189.406 62.8164 189.121 62.75C187.793 62.457 186.951 62.1895 186.596 61.9473C186.104 61.6113 185.857 61.1445 185.857 60.5469C185.857 60.0078 186.07 59.5547 186.496 59.1875C186.922 58.8203 187.582 58.6367 188.477 58.6367C189.328 58.6367 189.961 58.7754 190.375 59.0527C190.789 59.3301 191.074 59.7402 191.23 60.2832L189.678 60.5703C189.611 60.3281 189.484 60.1426 189.297 60.0137C189.113 59.8848 188.85 59.8203 188.506 59.8203C188.072 59.8203 187.762 59.8809 187.574 60.002C187.449 60.0879 187.387 60.1992 187.387 60.3359C187.387 60.4531 187.441 60.5527 187.551 60.6348C187.699 60.7441 188.211 60.8984 189.086 61.0977C189.965 61.2969 190.578 61.541 190.926 61.8301C191.27 62.123 191.441 62.5312 191.441 63.0547C191.441 63.625 191.203 64.1152 190.727 64.5254C190.25 64.9355 189.545 65.1406 188.611 65.1406C187.764 65.1406 187.092 64.9688 186.596 64.625C186.104 64.2812 185.781 63.8145 185.629 63.2246ZM196.492 63.0195L198.133 63.2949C197.922 63.8965 197.588 64.3555 197.131 64.6719C196.678 64.9844 196.109 65.1406 195.426 65.1406C194.344 65.1406 193.543 64.7871 193.023 64.0801C192.613 63.5137 192.408 62.7988 192.408 61.9355C192.408 60.9043 192.678 60.0977 193.217 59.5156C193.756 58.9297 194.438 58.6367 195.262 58.6367C196.188 58.6367 196.918 58.9434 197.453 59.5566C197.988 60.166 198.244 61.1016 198.221 62.3633H194.096C194.107 62.8516 194.24 63.2324 194.494 63.5059C194.748 63.7754 195.064 63.9102 195.443 63.9102C195.701 63.9102 195.918 63.8398 196.094 63.6992C196.27 63.5586 196.402 63.332 196.492 63.0195ZM196.586 61.3555C196.574 60.8789 196.451 60.5176 196.217 60.2715C195.982 60.0215 195.697 59.8965 195.361 59.8965C195.002 59.8965 194.705 60.0273 194.471 60.2891C194.236 60.5508 194.121 60.9062 194.125 61.3555H196.586ZM208.615 65H207.086V64.0859C206.832 64.4414 206.531 64.707 206.184 64.8828C205.84 65.0547 205.492 65.1406 205.141 65.1406C204.426 65.1406 203.812 64.8535 203.301 64.2793C202.793 63.7012 202.539 62.8965 202.539 61.8652C202.539 60.8105 202.787 60.0098 203.283 59.4629C203.779 58.9121 204.406 58.6367 205.164 58.6367C205.859 58.6367 206.461 58.9258 206.969 59.5039V56.4102H208.615V65ZM204.221 61.7539C204.221 62.418 204.312 62.8984 204.496 63.1953C204.762 63.625 205.133 63.8398 205.609 63.8398C205.988 63.8398 206.311 63.6797 206.576 63.3594C206.842 63.0352 206.975 62.5527 206.975 61.9121C206.975 61.1973 206.846 60.6836 206.588 60.3711C206.33 60.0547 206 59.8965 205.598 59.8965C205.207 59.8965 204.879 60.0527 204.613 60.3652C204.352 60.6738 204.221 61.1367 204.221 61.7539ZM213.848 63.0195L215.488 63.2949C215.277 63.8965 214.943 64.3555 214.486 64.6719C214.033 64.9844 213.465 65.1406 212.781 65.1406C211.699 65.1406 210.898 64.7871 210.379 64.0801C209.969 63.5137 209.764 62.7988 209.764 61.9355C209.764 60.9043 210.033 60.0977 210.572 59.5156C211.111 58.9297 211.793 58.6367 212.617 58.6367C213.543 58.6367 214.273 58.9434 214.809 59.5566C215.344 60.166 215.6 61.1016 215.576 62.3633H211.451C211.463 62.8516 211.596 63.2324 211.85 63.5059C212.104 63.7754 212.42 63.9102 212.799 63.9102C213.057 63.9102 213.273 63.8398 213.449 63.6992C213.625 63.5586 213.758 63.332 213.848 63.0195ZM213.941 61.3555C213.93 60.8789 213.807 60.5176 213.572 60.2715C213.338 60.0215 213.053 59.8965 212.717 59.8965C212.357 59.8965 212.061 60.0273 211.826 60.2891C211.592 60.5508 211.477 60.9062 211.48 61.3555H213.941ZM225.771 61.8418L227.453 62.375C227.195 63.3125 226.766 64.0098 226.164 64.4668C225.566 64.9199 224.807 65.1465 223.885 65.1465C222.744 65.1465 221.807 64.7578 221.072 63.9805C220.338 63.1992 219.971 62.1328 219.971 60.7812C219.971 59.3516 220.34 58.2422 221.078 57.4531C221.816 56.6602 222.787 56.2637 223.99 56.2637C225.041 56.2637 225.895 56.5742 226.551 57.1953C226.941 57.5625 227.234 58.0898 227.43 58.7773L225.713 59.1875C225.611 58.7422 225.398 58.3906 225.074 58.1328C224.754 57.875 224.363 57.7461 223.902 57.7461C223.266 57.7461 222.748 57.9746 222.35 58.4316C221.955 58.8887 221.758 59.6289 221.758 60.6523C221.758 61.7383 221.953 62.5117 222.344 62.9727C222.734 63.4336 223.242 63.6641 223.867 63.6641C224.328 63.6641 224.725 63.5176 225.057 63.2246C225.389 62.9316 225.627 62.4707 225.771 61.8418ZM230.576 56.4102V59.5684C231.107 58.9473 231.742 58.6367 232.48 58.6367C232.859 58.6367 233.201 58.707 233.506 58.8477C233.811 58.9883 234.039 59.168 234.191 59.3867C234.348 59.6055 234.453 59.8477 234.508 60.1133C234.566 60.3789 234.596 60.791 234.596 61.3496V65H232.949V61.7129C232.949 61.0605 232.918 60.6465 232.855 60.4707C232.793 60.2949 232.682 60.1562 232.521 60.0547C232.365 59.9492 232.168 59.8965 231.93 59.8965C231.656 59.8965 231.412 59.9629 231.197 60.0957C230.982 60.2285 230.824 60.4297 230.723 60.6992C230.625 60.9648 230.576 61.3594 230.576 61.8828V65H228.93V56.4102H230.576ZM235.891 61.8008C235.891 61.2539 236.025 60.7246 236.295 60.2129C236.564 59.7012 236.945 59.3105 237.438 59.041C237.934 58.7715 238.486 58.6367 239.096 58.6367C240.037 58.6367 240.809 58.9434 241.41 59.5566C242.012 60.166 242.312 60.9375 242.312 61.8711C242.312 62.8125 242.008 63.5938 241.398 64.2148C240.793 64.832 240.029 65.1406 239.107 65.1406C238.537 65.1406 237.992 65.0117 237.473 64.7539C236.957 64.4961 236.564 64.1191 236.295 63.623C236.025 63.123 235.891 62.5156 235.891 61.8008ZM237.578 61.8887C237.578 62.5059 237.725 62.9785 238.018 63.3066C238.311 63.6348 238.672 63.7988 239.102 63.7988C239.531 63.7988 239.891 63.6348 240.18 63.3066C240.473 62.9785 240.619 62.502 240.619 61.877C240.619 61.2676 240.473 60.7988 240.18 60.4707C239.891 60.1426 239.531 59.9785 239.102 59.9785C238.672 59.9785 238.311 60.1426 238.018 60.4707C237.725 60.7988 237.578 61.2715 237.578 61.8887ZM249.033 60.6172L247.41 60.9102C247.355 60.5859 247.23 60.3418 247.035 60.1777C246.844 60.0137 246.594 59.9316 246.285 59.9316C245.875 59.9316 245.547 60.0742 245.301 60.3594C245.059 60.6406 244.938 61.1133 244.938 61.7773C244.938 62.5156 245.061 63.0371 245.307 63.3418C245.557 63.6465 245.891 63.7988 246.309 63.7988C246.621 63.7988 246.877 63.7109 247.076 63.5352C247.275 63.3555 247.416 63.0488 247.498 62.6152L249.115 62.8906C248.947 63.6328 248.625 64.1934 248.148 64.5723C247.672 64.9512 247.033 65.1406 246.232 65.1406C245.322 65.1406 244.596 64.8535 244.053 64.2793C243.514 63.7051 243.244 62.9102 243.244 61.8945C243.244 60.8672 243.516 60.0684 244.059 59.498C244.602 58.9238 245.336 58.6367 246.262 58.6367C247.02 58.6367 247.621 58.8008 248.066 59.1289C248.516 59.4531 248.838 59.9492 249.033 60.6172ZM249.906 61.8008C249.906 61.2539 250.041 60.7246 250.311 60.2129C250.58 59.7012 250.961 59.3105 251.453 59.041C251.949 58.7715 252.502 58.6367 253.111 58.6367C254.053 58.6367 254.824 58.9434 255.426 59.5566C256.027 60.166 256.328 60.9375 256.328 61.8711C256.328 62.8125 256.023 63.5938 255.414 64.2148C254.809 64.832 254.045 65.1406 253.123 65.1406C252.553 65.1406 252.008 65.0117 251.488 64.7539C250.973 64.4961 250.58 64.1191 250.311 63.623C250.041 63.123 249.906 62.5156 249.906 61.8008ZM251.594 61.8887C251.594 62.5059 251.74 62.9785 252.033 63.3066C252.326 63.6348 252.688 63.7988 253.117 63.7988C253.547 63.7988 253.906 63.6348 254.195 63.3066C254.488 62.9785 254.635 62.502 254.635 61.877C254.635 61.2676 254.488 60.7988 254.195 60.4707C253.906 60.1426 253.547 59.9785 253.117 59.9785C252.688 59.9785 252.326 60.1426 252.033 60.4707C251.74 60.7988 251.594 61.2715 251.594 61.8887ZM257.623 65V56.4102H259.27V65H257.623ZM262.193 60.6758L260.699 60.4062C260.867 59.8047 261.156 59.3594 261.566 59.0703C261.977 58.7812 262.586 58.6367 263.395 58.6367C264.129 58.6367 264.676 58.7246 265.035 58.9004C265.395 59.0723 265.646 59.293 265.791 59.5625C265.939 59.8281 266.014 60.3184 266.014 61.0332L265.996 62.9551C265.996 63.502 266.021 63.9062 266.072 64.168C266.127 64.4258 266.227 64.7031 266.371 65H264.742C264.699 64.8906 264.646 64.7285 264.584 64.5137C264.557 64.416 264.537 64.3516 264.525 64.3203C264.244 64.5938 263.943 64.7988 263.623 64.9355C263.303 65.0723 262.961 65.1406 262.598 65.1406C261.957 65.1406 261.451 64.9668 261.08 64.6191C260.713 64.2715 260.529 63.832 260.529 63.3008C260.529 62.9492 260.613 62.6367 260.781 62.3633C260.949 62.0859 261.184 61.875 261.484 61.7305C261.789 61.582 262.227 61.4531 262.797 61.3438C263.566 61.1992 264.1 61.0645 264.396 60.9395V60.7754C264.396 60.459 264.318 60.2344 264.162 60.1016C264.006 59.9648 263.711 59.8965 263.277 59.8965C262.984 59.8965 262.756 59.9551 262.592 60.0723C262.428 60.1855 262.295 60.3867 262.193 60.6758ZM264.396 62.0117C264.186 62.082 263.852 62.166 263.395 62.2637C262.938 62.3613 262.639 62.457 262.498 62.5508C262.283 62.7031 262.176 62.8965 262.176 63.1309C262.176 63.3613 262.262 63.5605 262.434 63.7285C262.605 63.8965 262.824 63.9805 263.09 63.9805C263.387 63.9805 263.67 63.8828 263.939 63.6875C264.139 63.5391 264.27 63.3574 264.332 63.1426C264.375 63.002 264.396 62.7344 264.396 62.3398V62.0117ZM270.496 58.7773V60.0898H269.371V62.5977C269.371 63.1055 269.381 63.4023 269.4 63.4883C269.424 63.5703 269.473 63.6387 269.547 63.6934C269.625 63.748 269.719 63.7754 269.828 63.7754C269.98 63.7754 270.201 63.7227 270.49 63.6172L270.631 64.8945C270.248 65.0586 269.814 65.1406 269.33 65.1406C269.033 65.1406 268.766 65.0918 268.527 64.9941C268.289 64.8926 268.113 64.7637 268 64.6074C267.891 64.4473 267.814 64.2324 267.771 63.9629C267.736 63.7715 267.719 63.3848 267.719 62.8027V60.0898H266.963V58.7773H267.719V57.541L269.371 56.5801V58.7773H270.496ZM275.242 63.0195L276.883 63.2949C276.672 63.8965 276.338 64.3555 275.881 64.6719C275.428 64.9844 274.859 65.1406 274.176 65.1406C273.094 65.1406 272.293 64.7871 271.773 64.0801C271.363 63.5137 271.158 62.7988 271.158 61.9355C271.158 60.9043 271.428 60.0977 271.967 59.5156C272.506 58.9297 273.188 58.6367 274.012 58.6367C274.938 58.6367 275.668 58.9434 276.203 59.5566C276.738 60.166 276.994 61.1016 276.971 62.3633H272.846C272.857 62.8516 272.99 63.2324 273.244 63.5059C273.498 63.7754 273.814 63.9102 274.193 63.9102C274.451 63.9102 274.668 63.8398 274.844 63.6992C275.02 63.5586 275.152 63.332 275.242 63.0195ZM275.336 61.3555C275.324 60.8789 275.201 60.5176 274.967 60.2715C274.732 60.0215 274.447 59.8965 274.111 59.8965C273.752 59.8965 273.455 60.0273 273.221 60.2891C272.986 60.5508 272.871 60.9062 272.875 61.3555H275.336Z" fill="#E61F94"/>
<path d="M146.746 77.7578C146.746 78.2383 146.576 78.6484 146.236 78.9883C145.9 79.3242 145.494 79.4922 145.018 79.4922C144.537 79.4922 144.127 79.3223 143.787 78.9824C143.451 78.6426 143.283 78.2344 143.283 77.7578C143.283 77.2812 143.451 76.875 143.787 76.5391C144.127 76.1992 144.537 76.0293 145.018 76.0293C145.494 76.0293 145.9 76.1973 146.236 76.5332C146.576 76.8691 146.746 77.2773 146.746 77.7578ZM162.619 82H160.732L159.982 80.0488H156.549L155.84 82H154L157.346 73.4102H159.18L162.619 82ZM159.426 78.6016L158.242 75.4141L157.082 78.6016H159.426ZM163.41 75.7773H164.928V76.627C165.471 75.9668 166.117 75.6367 166.867 75.6367C167.266 75.6367 167.611 75.7188 167.904 75.8828C168.197 76.0469 168.438 76.2949 168.625 76.627C168.898 76.2949 169.193 76.0469 169.51 75.8828C169.826 75.7188 170.164 75.6367 170.523 75.6367C170.98 75.6367 171.367 75.7305 171.684 75.918C172 76.1016 172.236 76.373 172.393 76.7324C172.506 76.998 172.562 77.4277 172.562 78.0215V82H170.916V78.4434C170.916 77.8262 170.859 77.4277 170.746 77.248C170.594 77.0137 170.359 76.8965 170.043 76.8965C169.812 76.8965 169.596 76.9668 169.393 77.1074C169.189 77.248 169.043 77.4551 168.953 77.7285C168.863 77.998 168.818 78.4258 168.818 79.0117V82H167.172V78.5898C167.172 77.9844 167.143 77.5938 167.084 77.418C167.025 77.2422 166.934 77.1113 166.809 77.0254C166.688 76.9395 166.521 76.8965 166.311 76.8965C166.057 76.8965 165.828 76.9648 165.625 77.1016C165.422 77.2383 165.275 77.4355 165.186 77.6934C165.1 77.9512 165.057 78.3789 165.057 78.9766V82H163.41V75.7773ZM177.812 80.0195L179.453 80.2949C179.242 80.8965 178.908 81.3555 178.451 81.6719C177.998 81.9844 177.43 82.1406 176.746 82.1406C175.664 82.1406 174.863 81.7871 174.344 81.0801C173.934 80.5137 173.729 79.7988 173.729 78.9355C173.729 77.9043 173.998 77.0977 174.537 76.5156C175.076 75.9297 175.758 75.6367 176.582 75.6367C177.508 75.6367 178.238 75.9434 178.773 76.5566C179.309 77.166 179.564 78.1016 179.541 79.3633H175.416C175.428 79.8516 175.561 80.2324 175.814 80.5059C176.068 80.7754 176.385 80.9102 176.764 80.9102C177.021 80.9102 177.238 80.8398 177.414 80.6992C177.59 80.5586 177.723 80.332 177.812 80.0195ZM177.906 78.3555C177.895 77.8789 177.771 77.5176 177.537 77.2715C177.303 77.0215 177.018 76.8965 176.682 76.8965C176.322 76.8965 176.025 77.0273 175.791 77.2891C175.557 77.5508 175.441 77.9062 175.445 78.3555H177.906ZM186.549 82H184.902V78.8242C184.902 78.1523 184.867 77.7188 184.797 77.5234C184.727 77.3242 184.611 77.1699 184.451 77.0605C184.295 76.9512 184.105 76.8965 183.883 76.8965C183.598 76.8965 183.342 76.9746 183.115 77.1309C182.889 77.2871 182.732 77.4941 182.646 77.752C182.564 78.0098 182.523 78.4863 182.523 79.1816V82H180.877V75.7773H182.406V76.6914C182.949 75.9883 183.633 75.6367 184.457 75.6367C184.82 75.6367 185.152 75.7031 185.453 75.8359C185.754 75.9648 185.98 76.1309 186.133 76.334C186.289 76.5371 186.396 76.7676 186.455 77.0254C186.518 77.2832 186.549 77.6523 186.549 78.1328V82ZM193.932 82H192.402V81.0859C192.148 81.4414 191.848 81.707 191.5 81.8828C191.156 82.0547 190.809 82.1406 190.457 82.1406C189.742 82.1406 189.129 81.8535 188.617 81.2793C188.109 80.7012 187.855 79.8965 187.855 78.8652C187.855 77.8105 188.104 77.0098 188.6 76.4629C189.096 75.9121 189.723 75.6367 190.48 75.6367C191.176 75.6367 191.777 75.9258 192.285 76.5039V73.4102H193.932V82ZM189.537 78.7539C189.537 79.418 189.629 79.8984 189.812 80.1953C190.078 80.625 190.449 80.8398 190.926 80.8398C191.305 80.8398 191.627 80.6797 191.893 80.3594C192.158 80.0352 192.291 79.5527 192.291 78.9121C192.291 78.1973 192.162 77.6836 191.904 77.3711C191.646 77.0547 191.316 76.8965 190.914 76.8965C190.523 76.8965 190.195 77.0527 189.93 77.3652C189.668 77.6738 189.537 78.1367 189.537 78.7539ZM195.18 78.8008C195.18 78.2539 195.314 77.7246 195.584 77.2129C195.854 76.7012 196.234 76.3105 196.727 76.041C197.223 75.7715 197.775 75.6367 198.385 75.6367C199.326 75.6367 200.098 75.9434 200.699 76.5566C201.301 77.166 201.602 77.9375 201.602 78.8711C201.602 79.8125 201.297 80.5938 200.688 81.2148C200.082 81.832 199.318 82.1406 198.396 82.1406C197.826 82.1406 197.281 82.0117 196.762 81.7539C196.246 81.4961 195.854 81.1191 195.584 80.623C195.314 80.123 195.18 79.5156 195.18 78.8008ZM196.867 78.8887C196.867 79.5059 197.014 79.9785 197.307 80.3066C197.6 80.6348 197.961 80.7988 198.391 80.7988C198.82 80.7988 199.18 80.6348 199.469 80.3066C199.762 79.9785 199.908 79.502 199.908 78.877C199.908 78.2676 199.762 77.7988 199.469 77.4707C199.18 77.1426 198.82 76.9785 198.391 76.9785C197.961 76.9785 197.6 77.1426 197.307 77.4707C197.014 77.7988 196.867 78.2715 196.867 78.8887ZM202.896 74.9336V73.4102H204.543V74.9336H202.896ZM202.896 82V75.7773H204.543V82H202.896ZM211.896 82H210.25V78.8242C210.25 78.1523 210.215 77.7188 210.145 77.5234C210.074 77.3242 209.959 77.1699 209.799 77.0605C209.643 76.9512 209.453 76.8965 209.23 76.8965C208.945 76.8965 208.689 76.9746 208.463 77.1309C208.236 77.2871 208.08 77.4941 207.994 77.752C207.912 78.0098 207.871 78.4863 207.871 79.1816V82H206.225V75.7773H207.754V76.6914C208.297 75.9883 208.98 75.6367 209.805 75.6367C210.168 75.6367 210.5 75.7031 210.801 75.8359C211.102 75.9648 211.328 76.1309 211.48 76.334C211.637 76.5371 211.744 76.7676 211.803 77.0254C211.865 77.2832 211.896 77.6523 211.896 78.1328V82ZM218.857 82V74.8633H216.309V73.4102H223.135V74.8633H220.592V82H218.857ZM225.156 82H223.51V75.7773H225.039V76.6621C225.301 76.2441 225.535 75.9688 225.742 75.8359C225.953 75.7031 226.191 75.6367 226.457 75.6367C226.832 75.6367 227.193 75.7402 227.541 75.9473L227.031 77.3828C226.754 77.2031 226.496 77.1133 226.258 77.1133C226.027 77.1133 225.832 77.1777 225.672 77.3066C225.512 77.4316 225.385 77.6602 225.291 77.9922C225.201 78.3242 225.156 79.0195 225.156 80.0781V82ZM228.256 74.9336V73.4102H229.902V74.9336H228.256ZM228.256 82V75.7773H229.902V82H228.256ZM234.449 75.7773V77.0898H233.324V79.5977C233.324 80.1055 233.334 80.4023 233.354 80.4883C233.377 80.5703 233.426 80.6387 233.5 80.6934C233.578 80.748 233.672 80.7754 233.781 80.7754C233.934 80.7754 234.154 80.7227 234.443 80.6172L234.584 81.8945C234.201 82.0586 233.768 82.1406 233.283 82.1406C232.986 82.1406 232.719 82.0918 232.48 81.9941C232.242 81.8926 232.066 81.7637 231.953 81.6074C231.844 81.4473 231.768 81.2324 231.725 80.9629C231.689 80.7715 231.672 80.3848 231.672 79.8027V77.0898H230.916V75.7773H231.672V74.541L233.324 73.5801V75.7773H234.449ZM239.688 82V81.0684C239.461 81.4004 239.162 81.6621 238.791 81.8535C238.424 82.0449 238.035 82.1406 237.625 82.1406C237.207 82.1406 236.832 82.0488 236.5 81.8652C236.168 81.6816 235.928 81.4238 235.779 81.0918C235.631 80.7598 235.557 80.3008 235.557 79.7148V75.7773H237.203V78.6367C237.203 79.5117 237.232 80.0488 237.291 80.248C237.354 80.4434 237.465 80.5996 237.625 80.7168C237.785 80.8301 237.988 80.8867 238.234 80.8867C238.516 80.8867 238.768 80.8105 238.99 80.6582C239.213 80.502 239.365 80.3105 239.447 80.084C239.529 79.8535 239.57 79.293 239.57 78.4023V75.7773H241.217V82H239.688ZM244.504 82H242.857V75.7773H244.387V76.6621C244.648 76.2441 244.883 75.9688 245.09 75.8359C245.301 75.7031 245.539 75.6367 245.805 75.6367C246.18 75.6367 246.541 75.7402 246.889 75.9473L246.379 77.3828C246.102 77.2031 245.844 77.1133 245.605 77.1133C245.375 77.1133 245.18 77.1777 245.02 77.3066C244.859 77.4316 244.732 77.6602 244.639 77.9922C244.549 78.3242 244.504 79.0195 244.504 80.0781V82ZM248.834 77.6758L247.34 77.4062C247.508 76.8047 247.797 76.3594 248.207 76.0703C248.617 75.7812 249.227 75.6367 250.035 75.6367C250.77 75.6367 251.316 75.7246 251.676 75.9004C252.035 76.0723 252.287 76.293 252.432 76.5625C252.58 76.8281 252.654 77.3184 252.654 78.0332L252.637 79.9551C252.637 80.502 252.662 80.9062 252.713 81.168C252.768 81.4258 252.867 81.7031 253.012 82H251.383C251.34 81.8906 251.287 81.7285 251.225 81.5137C251.197 81.416 251.178 81.3516 251.166 81.3203C250.885 81.5938 250.584 81.7988 250.264 81.9355C249.943 82.0723 249.602 82.1406 249.238 82.1406C248.598 82.1406 248.092 81.9668 247.721 81.6191C247.354 81.2715 247.17 80.832 247.17 80.3008C247.17 79.9492 247.254 79.6367 247.422 79.3633C247.59 79.0859 247.824 78.875 248.125 78.7305C248.43 78.582 248.867 78.4531 249.438 78.3438C250.207 78.1992 250.74 78.0645 251.037 77.9395V77.7754C251.037 77.459 250.959 77.2344 250.803 77.1016C250.646 76.9648 250.352 76.8965 249.918 76.8965C249.625 76.8965 249.396 76.9551 249.232 77.0723C249.068 77.1855 248.936 77.3867 248.834 77.6758ZM251.037 79.0117C250.826 79.082 250.492 79.166 250.035 79.2637C249.578 79.3613 249.279 79.457 249.139 79.5508C248.924 79.7031 248.816 79.8965 248.816 80.1309C248.816 80.3613 248.902 80.5605 249.074 80.7285C249.246 80.8965 249.465 80.9805 249.73 80.9805C250.027 80.9805 250.311 80.8828 250.58 80.6875C250.779 80.5391 250.91 80.3574 250.973 80.1426C251.016 80.002 251.037 79.7344 251.037 79.3398V79.0117ZM259.99 82H258.461V81.0859C258.207 81.4414 257.906 81.707 257.559 81.8828C257.215 82.0547 256.867 82.1406 256.516 82.1406C255.801 82.1406 255.188 81.8535 254.676 81.2793C254.168 80.7012 253.914 79.8965 253.914 78.8652C253.914 77.8105 254.162 77.0098 254.658 76.4629C255.154 75.9121 255.781 75.6367 256.539 75.6367C257.234 75.6367 257.836 75.9258 258.344 76.5039V73.4102H259.99V82ZM255.596 78.7539C255.596 79.418 255.688 79.8984 255.871 80.1953C256.137 80.625 256.508 80.8398 256.984 80.8398C257.363 80.8398 257.686 80.6797 257.951 80.3594C258.217 80.0352 258.35 79.5527 258.35 78.9121C258.35 78.1973 258.221 77.6836 257.963 77.3711C257.705 77.0547 257.375 76.8965 256.973 76.8965C256.582 76.8965 256.254 77.0527 255.988 77.3652C255.727 77.6738 255.596 78.1367 255.596 78.7539ZM261.238 78.8008C261.238 78.2539 261.373 77.7246 261.643 77.2129C261.912 76.7012 262.293 76.3105 262.785 76.041C263.281 75.7715 263.834 75.6367 264.443 75.6367C265.385 75.6367 266.156 75.9434 266.758 76.5566C267.359 77.166 267.66 77.9375 267.66 78.8711C267.66 79.8125 267.355 80.5938 266.746 81.2148C266.141 81.832 265.377 82.1406 264.455 82.1406C263.885 82.1406 263.34 82.0117 262.82 81.7539C262.305 81.4961 261.912 81.1191 261.643 80.623C261.373 80.123 261.238 79.5156 261.238 78.8008ZM262.926 78.8887C262.926 79.5059 263.072 79.9785 263.365 80.3066C263.658 80.6348 264.02 80.7988 264.449 80.7988C264.879 80.7988 265.238 80.6348 265.527 80.3066C265.82 79.9785 265.967 79.502 265.967 78.877C265.967 78.2676 265.82 77.7988 265.527 77.4707C265.238 77.1426 264.879 76.9785 264.449 76.9785C264.02 76.9785 263.658 77.1426 263.365 77.4707C263.072 77.7988 262.926 78.2715 262.926 78.8887Z" fill="#E61F94"/>
<path d="M146.746 94.7578C146.746 95.2383 146.576 95.6484 146.236 95.9883C145.9 96.3242 145.494 96.4922 145.018 96.4922C144.537 96.4922 144.127 96.3223 143.787 95.9824C143.451 95.6426 143.283 95.2344 143.283 94.7578C143.283 94.2812 143.451 93.875 143.787 93.5391C144.127 93.1992 144.537 93.0293 145.018 93.0293C145.494 93.0293 145.9 93.1973 146.236 93.5332C146.576 93.8691 146.746 94.2773 146.746 94.7578ZM154.891 99V90.4102H156.578L160.094 96.1465V90.4102H161.705V99H159.965L156.502 93.3984V99H154.891ZM167.629 99V98.0684C167.402 98.4004 167.104 98.6621 166.732 98.8535C166.365 99.0449 165.977 99.1406 165.566 99.1406C165.148 99.1406 164.773 99.0488 164.441 98.8652C164.109 98.6816 163.869 98.4238 163.721 98.0918C163.572 97.7598 163.498 97.3008 163.498 96.7148V92.7773H165.145V95.6367C165.145 96.5117 165.174 97.0488 165.232 97.248C165.295 97.4434 165.406 97.5996 165.566 97.7168C165.727 97.8301 165.93 97.8867 166.176 97.8867C166.457 97.8867 166.709 97.8105 166.932 97.6582C167.154 97.502 167.307 97.3105 167.389 97.084C167.471 96.8535 167.512 96.293 167.512 95.4023V92.7773H169.158V99H167.629ZM173.723 92.7773V94.0898H172.598V96.5977C172.598 97.1055 172.607 97.4023 172.627 97.4883C172.65 97.5703 172.699 97.6387 172.773 97.6934C172.852 97.748 172.945 97.7754 173.055 97.7754C173.207 97.7754 173.428 97.7227 173.717 97.6172L173.857 98.8945C173.475 99.0586 173.041 99.1406 172.557 99.1406C172.26 99.1406 171.992 99.0918 171.754 98.9941C171.516 98.8926 171.34 98.7637 171.227 98.6074C171.117 98.4473 171.041 98.2324 170.998 97.9629C170.963 97.7715 170.945 97.3848 170.945 96.8027V94.0898H170.189V92.7773H170.945V91.541L172.598 90.5801V92.7773H173.723ZM178.469 97.0195L180.109 97.2949C179.898 97.8965 179.564 98.3555 179.107 98.6719C178.654 98.9844 178.086 99.1406 177.402 99.1406C176.32 99.1406 175.52 98.7871 175 98.0801C174.59 97.5137 174.385 96.7988 174.385 95.9355C174.385 94.9043 174.654 94.0977 175.193 93.5156C175.732 92.9297 176.414 92.6367 177.238 92.6367C178.164 92.6367 178.895 92.9434 179.43 93.5566C179.965 94.166 180.221 95.1016 180.197 96.3633H176.072C176.084 96.8516 176.217 97.2324 176.471 97.5059C176.725 97.7754 177.041 97.9102 177.42 97.9102C177.678 97.9102 177.895 97.8398 178.07 97.6992C178.246 97.5586 178.379 97.332 178.469 97.0195ZM178.562 95.3555C178.551 94.8789 178.428 94.5176 178.193 94.2715C177.959 94.0215 177.674 93.8965 177.338 93.8965C176.979 93.8965 176.682 94.0273 176.447 94.2891C176.213 94.5508 176.098 94.9062 176.102 95.3555H178.562ZM181.545 99V90.4102H183.191V99H181.545ZM184.885 99V90.4102H186.531V99H184.885ZM189.455 94.6758L187.961 94.4062C188.129 93.8047 188.418 93.3594 188.828 93.0703C189.238 92.7812 189.848 92.6367 190.656 92.6367C191.391 92.6367 191.938 92.7246 192.297 92.9004C192.656 93.0723 192.908 93.293 193.053 93.5625C193.201 93.8281 193.275 94.3184 193.275 95.0332L193.258 96.9551C193.258 97.502 193.283 97.9062 193.334 98.168C193.389 98.4258 193.488 98.7031 193.633 99H192.004C191.961 98.8906 191.908 98.7285 191.846 98.5137C191.818 98.416 191.799 98.3516 191.787 98.3203C191.506 98.5938 191.205 98.7988 190.885 98.9355C190.564 99.0723 190.223 99.1406 189.859 99.1406C189.219 99.1406 188.713 98.9668 188.342 98.6191C187.975 98.2715 187.791 97.832 187.791 97.3008C187.791 96.9492 187.875 96.6367 188.043 96.3633C188.211 96.0859 188.445 95.875 188.746 95.7305C189.051 95.582 189.488 95.4531 190.059 95.3438C190.828 95.1992 191.361 95.0645 191.658 94.9395V94.7754C191.658 94.459 191.58 94.2344 191.424 94.1016C191.268 93.9648 190.973 93.8965 190.539 93.8965C190.246 93.8965 190.018 93.9551 189.854 94.0723C189.689 94.1855 189.557 94.3867 189.455 94.6758ZM191.658 96.0117C191.447 96.082 191.113 96.166 190.656 96.2637C190.199 96.3613 189.9 96.457 189.76 96.5508C189.545 96.7031 189.438 96.8965 189.438 97.1309C189.438 97.3613 189.523 97.5605 189.695 97.7285C189.867 97.8965 190.086 97.9805 190.352 97.9805C190.648 97.9805 190.932 97.8828 191.201 97.6875C191.4 97.5391 191.531 97.3574 191.594 97.1426C191.637 97.002 191.658 96.7344 191.658 96.3398V96.0117Z" fill="#E61F94"/>
<path d="M146.746 111.758C146.746 112.238 146.576 112.648 146.236 112.988C145.9 113.324 145.494 113.492 145.018 113.492C144.537 113.492 144.127 113.322 143.787 112.982C143.451 112.643 143.283 112.234 143.283 111.758C143.283 111.281 143.451 110.875 143.787 110.539C144.127 110.199 144.537 110.029 145.018 110.029C145.494 110.029 145.9 110.197 146.236 110.533C146.576 110.869 146.746 111.277 146.746 111.758ZM154.885 116V107.41H160.773V108.863H156.619V110.896H160.205V112.35H156.619V116H154.885ZM165.801 114.02L167.441 114.295C167.23 114.896 166.896 115.355 166.439 115.672C165.986 115.984 165.418 116.141 164.734 116.141C163.652 116.141 162.852 115.787 162.332 115.08C161.922 114.514 161.717 113.799 161.717 112.936C161.717 111.904 161.986 111.098 162.525 110.516C163.064 109.93 163.746 109.637 164.57 109.637C165.496 109.637 166.227 109.943 166.762 110.557C167.297 111.166 167.553 112.102 167.529 113.363H163.404C163.416 113.852 163.549 114.232 163.803 114.506C164.057 114.775 164.373 114.91 164.752 114.91C165.01 114.91 165.227 114.84 165.402 114.699C165.578 114.559 165.711 114.332 165.801 114.02ZM165.895 112.355C165.883 111.879 165.76 111.518 165.525 111.271C165.291 111.021 165.006 110.896 164.67 110.896C164.311 110.896 164.014 111.027 163.779 111.289C163.545 111.551 163.43 111.906 163.434 112.355H165.895ZM170.453 116H168.807V109.777H170.336V110.662C170.598 110.244 170.832 109.969 171.039 109.836C171.25 109.703 171.488 109.637 171.754 109.637C172.129 109.637 172.49 109.74 172.838 109.947L172.328 111.383C172.051 111.203 171.793 111.113 171.555 111.113C171.324 111.113 171.129 111.178 170.969 111.307C170.809 111.432 170.682 111.66 170.588 111.992C170.498 112.324 170.453 113.02 170.453 114.078V116ZM175.129 116H173.482V109.777H175.012V110.662C175.273 110.244 175.508 109.969 175.715 109.836C175.926 109.703 176.164 109.637 176.43 109.637C176.805 109.637 177.166 109.74 177.514 109.947L177.004 111.383C176.727 111.203 176.469 111.113 176.23 111.113C176 111.113 175.805 111.178 175.645 111.307C175.484 111.432 175.357 111.66 175.264 111.992C175.174 112.324 175.129 113.02 175.129 114.078V116ZM181.832 114.02L183.473 114.295C183.262 114.896 182.928 115.355 182.471 115.672C182.018 115.984 181.449 116.141 180.766 116.141C179.684 116.141 178.883 115.787 178.363 115.08C177.953 114.514 177.748 113.799 177.748 112.936C177.748 111.904 178.018 111.098 178.557 110.516C179.096 109.93 179.777 109.637 180.602 109.637C181.527 109.637 182.258 109.943 182.793 110.557C183.328 111.166 183.584 112.102 183.561 113.363H179.436C179.447 113.852 179.58 114.232 179.834 114.506C180.088 114.775 180.404 114.91 180.783 114.91C181.041 114.91 181.258 114.84 181.434 114.699C181.609 114.559 181.742 114.332 181.832 114.02ZM181.926 112.355C181.914 111.879 181.791 111.518 181.557 111.271C181.322 111.021 181.037 110.896 180.701 110.896C180.342 110.896 180.045 111.027 179.811 111.289C179.576 111.551 179.461 111.906 179.465 112.355H181.926ZM186.484 116H184.838V109.777H186.367V110.662C186.629 110.244 186.863 109.969 187.07 109.836C187.281 109.703 187.52 109.637 187.785 109.637C188.16 109.637 188.521 109.74 188.869 109.947L188.359 111.383C188.082 111.203 187.824 111.113 187.586 111.113C187.355 111.113 187.16 111.178 187 111.307C186.84 111.432 186.713 111.66 186.619 111.992C186.529 112.324 186.484 113.02 186.484 114.078V116ZM189.203 112.801C189.203 112.254 189.338 111.725 189.607 111.213C189.877 110.701 190.258 110.311 190.75 110.041C191.246 109.771 191.799 109.637 192.408 109.637C193.35 109.637 194.121 109.943 194.723 110.557C195.324 111.166 195.625 111.938 195.625 112.871C195.625 113.812 195.32 114.594 194.711 115.215C194.105 115.832 193.342 116.141 192.42 116.141C191.85 116.141 191.305 116.012 190.785 115.754C190.27 115.496 189.877 115.119 189.607 114.623C189.338 114.123 189.203 113.516 189.203 112.801ZM190.891 112.889C190.891 113.506 191.037 113.979 191.33 114.307C191.623 114.635 191.984 114.799 192.414 114.799C192.844 114.799 193.203 114.635 193.492 114.307C193.785 113.979 193.932 113.502 193.932 112.877C193.932 112.268 193.785 111.799 193.492 111.471C193.203 111.143 192.844 110.979 192.414 110.979C191.984 110.979 191.623 111.143 191.33 111.471C191.037 111.799 190.891 112.271 190.891 112.889ZM200.277 116V107.41H203.928C204.846 107.41 205.512 107.488 205.926 107.645C206.344 107.797 206.678 108.07 206.928 108.465C207.178 108.859 207.303 109.311 207.303 109.818C207.303 110.463 207.113 110.996 206.734 111.418C206.355 111.836 205.789 112.1 205.035 112.209C205.41 112.428 205.719 112.668 205.961 112.93C206.207 113.191 206.537 113.656 206.951 114.324L208 116H205.926L204.672 114.131C204.227 113.463 203.922 113.043 203.758 112.871C203.594 112.695 203.42 112.576 203.236 112.514C203.053 112.447 202.762 112.414 202.363 112.414H202.012V116H200.277ZM202.012 111.043H203.295C204.127 111.043 204.646 111.008 204.854 110.938C205.061 110.867 205.223 110.746 205.34 110.574C205.457 110.402 205.516 110.188 205.516 109.93C205.516 109.641 205.438 109.408 205.281 109.232C205.129 109.053 204.912 108.939 204.631 108.893C204.49 108.873 204.068 108.863 203.365 108.863H202.012V111.043ZM208.551 112.801C208.551 112.254 208.686 111.725 208.955 111.213C209.225 110.701 209.605 110.311 210.098 110.041C210.594 109.771 211.146 109.637 211.756 109.637C212.697 109.637 213.469 109.943 214.07 110.557C214.672 111.166 214.973 111.938 214.973 112.871C214.973 113.812 214.668 114.594 214.059 115.215C213.453 115.832 212.689 116.141 211.768 116.141C211.197 116.141 210.652 116.012 210.133 115.754C209.617 115.496 209.225 115.119 208.955 114.623C208.686 114.123 208.551 113.516 208.551 112.801ZM210.238 112.889C210.238 113.506 210.385 113.979 210.678 114.307C210.971 114.635 211.332 114.799 211.762 114.799C212.191 114.799 212.551 114.635 212.84 114.307C213.133 113.979 213.279 113.502 213.279 112.877C213.279 112.268 213.133 111.799 212.84 111.471C212.551 111.143 212.191 110.979 211.762 110.979C211.332 110.979 210.971 111.143 210.678 111.471C210.385 111.799 210.238 112.271 210.238 112.889ZM221.693 111.617L220.07 111.91C220.016 111.586 219.891 111.342 219.695 111.178C219.504 111.014 219.254 110.932 218.945 110.932C218.535 110.932 218.207 111.074 217.961 111.359C217.719 111.641 217.598 112.113 217.598 112.777C217.598 113.516 217.721 114.037 217.967 114.342C218.217 114.646 218.551 114.799 218.969 114.799C219.281 114.799 219.537 114.711 219.736 114.535C219.936 114.355 220.076 114.049 220.158 113.615L221.775 113.891C221.607 114.633 221.285 115.193 220.809 115.572C220.332 115.951 219.693 116.141 218.893 116.141C217.982 116.141 217.256 115.854 216.713 115.279C216.174 114.705 215.904 113.91 215.904 112.895C215.904 111.867 216.176 111.068 216.719 110.498C217.262 109.924 217.996 109.637 218.922 109.637C219.68 109.637 220.281 109.801 220.727 110.129C221.176 110.453 221.498 110.949 221.693 111.617ZM224.588 107.41V110.568C225.119 109.947 225.754 109.637 226.492 109.637C226.871 109.637 227.213 109.707 227.518 109.848C227.822 109.988 228.051 110.168 228.203 110.387C228.359 110.605 228.465 110.848 228.52 111.113C228.578 111.379 228.607 111.791 228.607 112.35V116H226.961V112.713C226.961 112.061 226.93 111.646 226.867 111.471C226.805 111.295 226.693 111.156 226.533 111.055C226.377 110.949 226.18 110.896 225.941 110.896C225.668 110.896 225.424 110.963 225.209 111.096C224.994 111.229 224.836 111.43 224.734 111.699C224.637 111.965 224.588 112.359 224.588 112.883V116H222.941V107.41H224.588ZM233.887 114.02L235.527 114.295C235.316 114.896 234.982 115.355 234.525 115.672C234.072 115.984 233.504 116.141 232.82 116.141C231.738 116.141 230.938 115.787 230.418 115.08C230.008 114.514 229.803 113.799 229.803 112.936C229.803 111.904 230.072 111.098 230.611 110.516C231.15 109.93 231.832 109.637 232.656 109.637C233.582 109.637 234.312 109.943 234.848 110.557C235.383 111.166 235.639 112.102 235.615 113.363H231.49C231.502 113.852 231.635 114.232 231.889 114.506C232.143 114.775 232.459 114.91 232.838 114.91C233.096 114.91 233.312 114.84 233.488 114.699C233.664 114.559 233.797 114.332 233.887 114.02ZM233.98 112.355C233.969 111.879 233.846 111.518 233.611 111.271C233.377 111.021 233.092 110.896 232.756 110.896C232.396 110.896 232.1 111.027 231.865 111.289C231.631 111.551 231.516 111.906 231.52 112.355H233.98ZM238.539 116H236.893V109.777H238.422V110.662C238.684 110.244 238.918 109.969 239.125 109.836C239.336 109.703 239.574 109.637 239.84 109.637C240.215 109.637 240.576 109.74 240.924 109.947L240.414 111.383C240.137 111.203 239.879 111.113 239.641 111.113C239.41 111.113 239.215 111.178 239.055 111.307C238.895 111.432 238.768 111.66 238.674 111.992C238.584 112.324 238.539 113.02 238.539 114.078V116Z" fill="#E61F94"/>
<defs>
<filter id="filter0_d_302_64" x="0" y="12" width="354" height="124" filterUnits="userSpaceOnUse" color-interpolation-filters="sRGB">
<feFlood flood-opacity="0" result="BackgroundImageFix"/>
<feColorMatrix in="SourceAlpha" type="matrix" values="0 0 0 0 0 0 0 0 0 0 0 0 0 0 0 0 0 0 127 0" result="hardAlpha"/>
<feOffset dy="2"/>
<feGaussianBlur stdDeviation="1"/>
<feComposite in2="hardAlpha" operator="out"/>
<feColorMatrix type="matrix" values="0 0 0 0 0 0 0 0 0 0 0 0 0 0 0 0 0 0 0.25 0"/>
<feBlend mode="normal" in2="BackgroundImageFix" result="effect1_dropShadow_302_64"/>
<feBlend mode="normal" in="SourceGraphic" in2="effect1_dropShadow_302_64" result="shape"/>
</filter>
<filter id="filter1_d_302_64" x="293.831" y="6.68907" width="18.3372" height="15.3109" filterUnits="userSpaceOnUse" color-interpolation-filters="sRGB">
<feFlood flood-opacity="0" result="BackgroundImageFix"/>
<feColorMatrix in="SourceAlpha" type="matrix" values="0 0 0 0 0 0 0 0 0 0 0 0 0 0 0 0 0 0 127 0" result="hardAlpha"/>
<feOffset dx="1" dy="1"/>
<feGaussianBlur stdDeviation="0.5"/>
<feComposite in2="hardAlpha" operator="out"/>
<feColorMatrix type="matrix" values="0 0 0 0 0 0 0 0 0 0 0 0 0 0 0 0 0 0 0.15 0"/>
<feBlend mode="normal" in2="BackgroundImageFix" result="effect1_dropShadow_302_64"/>
<feBlend mode="normal" in="SourceGraphic" in2="effect1_dropShadow_302_64" result="shape"/>
</filter>
<filter id="filter2_d_302_64" x="21" y="2.22221" width="82" height="34.2222" filterUnits="userSpaceOnUse" color-interpolation-filters="sRGB">
<feFlood flood-opacity="0" result="BackgroundImageFix"/>
<feColorMatrix in="SourceAlpha" type="matrix" values="0 0 0 0 0 0 0 0 0 0 0 0 0 0 0 0 0 0 127 0" result="hardAlpha"/>
<feOffset dy="1"/>
<feGaussianBlur stdDeviation="0.5"/>
<feComposite in2="hardAlpha" operator="out"/>
<feColorMatrix type="matrix" values="0 0 0 0 0 0 0 0 0 0 0 0 0 0 0 0 0 0 0.15 0"/>
<feBlend mode="normal" in2="BackgroundImageFix" result="effect1_dropShadow_302_64"/>
<feBlend mode="normal" in="SourceGraphic" in2="effect1_dropShadow_302_64" result="shape"/>
</filter>
</defs>
</svg>
