<svg width="354" height="136" viewBox="0 0 354 136" fill="none" xmlns="http://www.w3.org/2000/svg">
<g filter="url(#filter0_d_302_63)">
<rect x="2" y="12" width="350" height="120" rx="4" fill="white"/>
</g>
<rect x="13" y="23" width="98" height="98" rx="3" fill="#D9D9D9" stroke="#E61F94" stroke-width="2"/>
<path d="M34.2557 57.3636V69H32.8466V57.3636H34.2557ZM36.8991 69V60.2727H38.1946V61.6364H38.3082C38.4901 61.1705 38.7836 60.8087 39.1889 60.5511C39.5942 60.2898 40.081 60.1591 40.6491 60.1591C41.2249 60.1591 41.7041 60.2898 42.0866 60.5511C42.473 60.8087 42.7741 61.1705 42.9901 61.6364H43.081C43.3045 61.1856 43.6397 60.8277 44.0866 60.5625C44.5336 60.2936 45.0696 60.1591 45.6946 60.1591C46.4749 60.1591 47.1132 60.4034 47.6094 60.892C48.1056 61.3769 48.3537 62.1326 48.3537 63.1591V69H47.0128V63.1591C47.0128 62.5152 46.8366 62.0549 46.4844 61.7784C46.1321 61.5019 45.7173 61.3636 45.2401 61.3636C44.6264 61.3636 44.151 61.5492 43.8139 61.9205C43.4768 62.2879 43.3082 62.7538 43.3082 63.3182V69H41.9446V63.0227C41.9446 62.5265 41.7836 62.1269 41.4616 61.8239C41.1397 61.517 40.7249 61.3636 40.2173 61.3636C39.8688 61.3636 39.5431 61.4564 39.2401 61.642C38.9408 61.8277 38.6984 62.0852 38.5128 62.4148C38.331 62.7405 38.2401 63.1174 38.2401 63.5455V69H36.8991ZM53.3736 69.2045C52.8205 69.2045 52.3187 69.1004 51.8679 68.892C51.4171 68.6799 51.0592 68.375 50.794 67.9773C50.5289 67.5758 50.3963 67.0909 50.3963 66.5227C50.3963 66.0227 50.4948 65.6174 50.6918 65.3068C50.8887 64.9924 51.152 64.7462 51.4815 64.5682C51.8111 64.3902 52.1747 64.2576 52.5724 64.1705C52.974 64.0795 53.3774 64.0076 53.7827 63.9545C54.313 63.8864 54.7429 63.8352 55.0724 63.8011C55.4058 63.7633 55.6482 63.7008 55.7997 63.6136C55.955 63.5265 56.0327 63.375 56.0327 63.1591V63.1136C56.0327 62.553 55.8793 62.1174 55.5724 61.8068C55.2694 61.4962 54.8092 61.3409 54.1918 61.3409C53.5516 61.3409 53.0497 61.4811 52.6861 61.7614C52.3224 62.0417 52.0668 62.3409 51.919 62.6591L50.6463 62.2045C50.8736 61.6742 51.1766 61.2614 51.5554 60.9659C51.938 60.6667 52.3546 60.4583 52.8054 60.3409C53.2599 60.2197 53.7069 60.1591 54.1463 60.1591C54.4266 60.1591 54.7486 60.1932 55.1122 60.2614C55.4796 60.3258 55.8338 60.4602 56.1747 60.6648C56.5194 60.8693 56.8054 61.178 57.0327 61.5909C57.2599 62.0038 57.3736 62.5568 57.3736 63.25V69H56.0327V67.8182H55.9645C55.8736 68.0076 55.7221 68.2102 55.5099 68.4261C55.2978 68.642 55.0156 68.8258 54.6634 68.9773C54.3111 69.1288 53.8812 69.2045 53.3736 69.2045ZM53.5781 68C54.1084 68 54.5554 67.8958 54.919 67.6875C55.2865 67.4792 55.563 67.2102 55.7486 66.8807C55.938 66.5511 56.0327 66.2045 56.0327 65.8409V64.6136C55.9759 64.6818 55.8509 64.7443 55.6577 64.8011C55.4683 64.8542 55.2486 64.9015 54.9986 64.9432C54.7524 64.9811 54.5118 65.0152 54.277 65.0455C54.0459 65.072 53.8584 65.0947 53.7145 65.1136C53.366 65.1591 53.0402 65.233 52.7372 65.3352C52.438 65.4337 52.1955 65.5833 52.0099 65.7841C51.8281 65.9811 51.7372 66.25 51.7372 66.5909C51.7372 67.0568 51.9096 67.4091 52.2543 67.6477C52.6027 67.8826 53.044 68 53.5781 68ZM63.3438 72.4545C62.696 72.4545 62.1392 72.3712 61.6733 72.2045C61.2074 72.0417 60.8191 71.8258 60.5085 71.5568C60.2017 71.2917 59.9574 71.0076 59.7756 70.7045L60.8438 69.9545C60.965 70.1136 61.1184 70.2955 61.304 70.5C61.4896 70.7083 61.7434 70.8883 62.0653 71.0398C62.3911 71.1951 62.8172 71.2727 63.3438 71.2727C64.0483 71.2727 64.6297 71.1023 65.0881 70.7614C65.5464 70.4205 65.7756 69.8864 65.7756 69.1591V67.3864H65.6619C65.5634 67.5455 65.4233 67.7424 65.2415 67.9773C65.0634 68.2083 64.8059 68.4148 64.4688 68.5966C64.1354 68.7746 63.6847 68.8636 63.1165 68.8636C62.4119 68.8636 61.7794 68.697 61.2188 68.3636C60.6619 68.0303 60.2206 67.5455 59.8949 66.9091C59.5729 66.2727 59.4119 65.5 59.4119 64.5909C59.4119 63.697 59.5691 62.9186 59.8835 62.2557C60.1979 61.589 60.6354 61.0739 61.196 60.7102C61.7566 60.3428 62.4044 60.1591 63.1392 60.1591C63.7074 60.1591 64.1581 60.2538 64.4915 60.4432C64.8286 60.6288 65.0862 60.8409 65.2642 61.0795C65.446 61.3144 65.5862 61.5076 65.6847 61.6591H65.821V60.2727H67.1165V69.25C67.1165 70 66.946 70.6098 66.6051 71.0795C66.268 71.553 65.8134 71.8996 65.2415 72.1193C64.6733 72.3428 64.0407 72.4545 63.3438 72.4545ZM63.2983 67.6591C63.8362 67.6591 64.2907 67.536 64.6619 67.2898C65.0331 67.0436 65.3153 66.6894 65.5085 66.2273C65.7017 65.7652 65.7983 65.2121 65.7983 64.5682C65.7983 63.9394 65.7036 63.3845 65.5142 62.9034C65.3248 62.4223 65.0445 62.0455 64.6733 61.7727C64.3021 61.5 63.8438 61.3636 63.2983 61.3636C62.7301 61.3636 62.2566 61.5076 61.8778 61.7955C61.5028 62.0833 61.2206 62.4697 61.0312 62.9545C60.8456 63.4394 60.7528 63.9773 60.7528 64.5682C60.7528 65.1742 60.8475 65.7102 61.0369 66.1761C61.2301 66.6383 61.5142 67.0019 61.8892 67.267C62.268 67.5284 62.7377 67.6591 63.2983 67.6591ZM73.2301 69.1818C72.3892 69.1818 71.6638 68.9962 71.054 68.625C70.4479 68.25 69.9801 67.7273 69.6506 67.0568C69.3248 66.3826 69.1619 65.5985 69.1619 64.7045C69.1619 63.8106 69.3248 63.0227 69.6506 62.3409C69.9801 61.6553 70.4384 61.1212 71.0256 60.7386C71.6165 60.3523 72.3059 60.1591 73.0938 60.1591C73.5483 60.1591 73.9972 60.2348 74.4403 60.3864C74.8835 60.5379 75.2869 60.7841 75.6506 61.125C76.0142 61.4621 76.304 61.9091 76.5199 62.4659C76.7358 63.0227 76.8438 63.7083 76.8438 64.5227V65.0909H70.1165V63.9318H75.4801C75.4801 63.4394 75.3816 63 75.1847 62.6136C74.9915 62.2273 74.715 61.9223 74.3551 61.6989C73.9991 61.4754 73.5786 61.3636 73.0938 61.3636C72.5597 61.3636 72.0975 61.4962 71.7074 61.7614C71.321 62.0227 71.0237 62.3636 70.8153 62.7841C70.607 63.2045 70.5028 63.6553 70.5028 64.1364V64.9091C70.5028 65.5682 70.6165 66.1269 70.8438 66.5852C71.0748 67.0398 71.3949 67.3864 71.804 67.625C72.2131 67.8598 72.6884 67.9773 73.2301 67.9773C73.5824 67.9773 73.9006 67.928 74.1847 67.8295C74.4725 67.7273 74.7206 67.5758 74.929 67.375C75.1373 67.1705 75.2983 66.9167 75.4119 66.6136L76.7074 66.9773C76.571 67.4167 76.3419 67.803 76.0199 68.1364C75.6979 68.4659 75.3002 68.7235 74.8267 68.9091C74.3532 69.0909 73.821 69.1818 73.2301 69.1818ZM78.8835 69V60.2727H80.179V61.6364H80.2926C80.4744 61.1705 80.768 60.8087 81.1733 60.5511C81.5786 60.2898 82.0653 60.1591 82.6335 60.1591C83.2093 60.1591 83.6884 60.2898 84.071 60.5511C84.4574 60.8087 84.7585 61.1705 84.9744 61.6364H85.0653C85.2888 61.1856 85.6241 60.8277 86.071 60.5625C86.518 60.2936 87.054 60.1591 87.679 60.1591C88.4593 60.1591 89.0975 60.4034 89.5938 60.892C90.09 61.3769 90.3381 62.1326 90.3381 63.1591V69H88.9972V63.1591C88.9972 62.5152 88.821 62.0549 88.4688 61.7784C88.1165 61.5019 87.7017 61.3636 87.2244 61.3636C86.6108 61.3636 86.1354 61.5492 85.7983 61.9205C85.4612 62.2879 85.2926 62.7538 85.2926 63.3182V69H83.929V63.0227C83.929 62.5265 83.768 62.1269 83.446 61.8239C83.1241 61.517 82.7093 61.3636 82.2017 61.3636C81.8532 61.3636 81.5275 61.4564 81.2244 61.642C80.9252 61.8277 80.6828 62.0852 80.4972 62.4148C80.3153 62.7405 80.2244 63.1174 80.2244 63.5455V69H78.8835ZM32.9638 88V76.3636H36.8956C37.8085 76.3636 38.5547 76.5284 39.1342 76.858C39.7176 77.1837 40.1494 77.625 40.4297 78.1818C40.71 78.7386 40.8501 79.3598 40.8501 80.0455C40.8501 80.7311 40.71 81.3542 40.4297 81.9148C40.1532 82.4754 39.7251 82.9223 39.1456 83.2557C38.5661 83.5852 37.8236 83.75 36.9183 83.75H34.1001V82.5H36.8729C37.4979 82.5 37.9998 82.392 38.3786 82.1761C38.7573 81.9602 39.032 81.6686 39.2024 81.3011C39.3767 80.9299 39.4638 80.5114 39.4638 80.0455C39.4638 79.5795 39.3767 79.1629 39.2024 78.7955C39.032 78.428 38.7554 78.1402 38.3729 77.9318C37.9903 77.7197 37.4827 77.6136 36.8501 77.6136H34.3729V88H32.9638ZM42.9382 88V79.2727H44.2337V80.5909H44.3246C44.4837 80.1591 44.7715 79.8087 45.1882 79.5398C45.6049 79.2708 46.0746 79.1364 46.5973 79.1364C46.6958 79.1364 46.8189 79.1383 46.9666 79.142C47.1143 79.1458 47.2261 79.1515 47.3018 79.1591V80.5227C47.2564 80.5114 47.1522 80.4943 46.9893 80.4716C46.8303 80.4451 46.6617 80.4318 46.4837 80.4318C46.0594 80.4318 45.6806 80.5208 45.3473 80.6989C45.0178 80.8731 44.7564 81.1155 44.5632 81.4261C44.3738 81.733 44.2791 82.0833 44.2791 82.4773V88H42.9382ZM52.1712 88.1818C51.3833 88.1818 50.692 87.9943 50.0973 87.6193C49.5064 87.2443 49.0443 86.7197 48.7109 86.0455C48.3814 85.3712 48.2166 84.5833 48.2166 83.6818C48.2166 82.7727 48.3814 81.9792 48.7109 81.3011C49.0443 80.6231 49.5064 80.0966 50.0973 79.7216C50.692 79.3466 51.3833 79.1591 52.1712 79.1591C52.959 79.1591 53.6484 79.3466 54.2393 79.7216C54.834 80.0966 55.2962 80.6231 55.6257 81.3011C55.959 81.9792 56.1257 82.7727 56.1257 83.6818C56.1257 84.5833 55.959 85.3712 55.6257 86.0455C55.2962 86.7197 54.834 87.2443 54.2393 87.6193C53.6484 87.9943 52.959 88.1818 52.1712 88.1818ZM52.1712 86.9773C52.7696 86.9773 53.2621 86.8239 53.6484 86.517C54.0348 86.2102 54.3208 85.8068 54.5064 85.3068C54.692 84.8068 54.7848 84.2652 54.7848 83.6818C54.7848 83.0985 54.692 82.5549 54.5064 82.0511C54.3208 81.5473 54.0348 81.1402 53.6484 80.8295C53.2621 80.5189 52.7696 80.3636 52.1712 80.3636C51.5727 80.3636 51.0803 80.5189 50.6939 80.8295C50.3075 81.1402 50.0215 81.5473 49.8359 82.0511C49.6503 82.5549 49.5575 83.0985 49.5575 83.6818C49.5575 84.2652 49.6503 84.8068 49.8359 85.3068C50.0215 85.8068 50.3075 86.2102 50.6939 86.517C51.0803 86.8239 51.5727 86.9773 52.1712 86.9773ZM61.468 88.1818C60.7408 88.1818 60.0987 87.9981 59.5419 87.6307C58.9851 87.2595 58.5495 86.7367 58.2351 86.0625C57.9207 85.3845 57.7635 84.5833 57.7635 83.6591C57.7635 82.7424 57.9207 81.947 58.2351 81.2727C58.5495 80.5985 58.987 80.0777 59.5476 79.7102C60.1082 79.3428 60.7559 79.1591 61.4908 79.1591C62.0589 79.1591 62.5078 79.2538 62.8374 79.4432C63.1707 79.6288 63.4245 79.8409 63.5987 80.0795C63.7768 80.3144 63.915 80.5076 64.0135 80.6591H64.1271V76.3636H65.468V88H64.1726V86.6591H64.0135C63.915 86.8182 63.7749 87.0189 63.593 87.2614C63.4112 87.5 63.1518 87.714 62.8146 87.9034C62.4775 88.089 62.0286 88.1818 61.468 88.1818ZM61.6499 86.9773C62.1877 86.9773 62.6423 86.8371 63.0135 86.5568C63.3847 86.2727 63.6669 85.8807 63.8601 85.3807C64.0533 84.8769 64.1499 84.2955 64.1499 83.6364C64.1499 82.9848 64.0552 82.4148 63.8658 81.9261C63.6764 81.4337 63.3961 81.0511 63.0249 80.7784C62.6536 80.5019 62.1953 80.3636 61.6499 80.3636C61.0817 80.3636 60.6082 80.5095 60.2294 80.8011C59.8544 81.089 59.5722 81.4811 59.3828 81.9773C59.1972 82.4697 59.1044 83.0227 59.1044 83.6364C59.1044 84.2576 59.1991 84.822 59.3885 85.3295C59.5817 85.8333 59.8658 86.2348 60.2408 86.5341C60.6196 86.8295 61.0893 86.9773 61.6499 86.9773ZM73.6101 84.4318V79.2727H74.951V88H73.6101V86.5227H73.5192C73.3146 86.9659 72.9964 87.3428 72.5646 87.6534C72.1328 87.9602 71.5874 88.1136 70.9283 88.1136C70.3828 88.1136 69.898 87.9943 69.4737 87.7557C69.0495 87.5133 68.7161 87.1496 68.4737 86.6648C68.2313 86.1761 68.1101 85.5606 68.1101 84.8182V79.2727H69.451V84.7273C69.451 85.3636 69.629 85.8712 69.9851 86.25C70.3449 86.6288 70.8033 86.8182 71.3601 86.8182C71.6934 86.8182 72.0324 86.733 72.3771 86.5625C72.7256 86.392 73.0173 86.1307 73.2521 85.7784C73.4908 85.4261 73.6101 84.9773 73.6101 84.4318ZM81.2024 79.2727V80.4091H76.6797V79.2727H81.2024ZM77.9979 77.1818H79.3388V85.5C79.3388 85.8788 79.3937 86.1629 79.5036 86.3523C79.6172 86.5379 79.7611 86.6629 79.9354 86.7273C80.1134 86.7879 80.3009 86.8182 80.4979 86.8182C80.6456 86.8182 80.7668 86.8106 80.8615 86.7955C80.9562 86.7765 81.032 86.7614 81.0888 86.75L81.3615 87.9545C81.2706 87.9886 81.1437 88.0227 80.9808 88.0568C80.8179 88.0947 80.6115 88.1136 80.3615 88.1136C79.9827 88.1136 79.6115 88.0322 79.2479 87.8693C78.888 87.7064 78.5888 87.4583 78.3501 87.125C78.1153 86.7917 77.9979 86.3712 77.9979 85.8636V77.1818ZM86.6712 88.1818C85.8833 88.1818 85.192 87.9943 84.5973 87.6193C84.0064 87.2443 83.5443 86.7197 83.2109 86.0455C82.8814 85.3712 82.7166 84.5833 82.7166 83.6818C82.7166 82.7727 82.8814 81.9792 83.2109 81.3011C83.5443 80.6231 84.0064 80.0966 84.5973 79.7216C85.192 79.3466 85.8833 79.1591 86.6712 79.1591C87.459 79.1591 88.1484 79.3466 88.7393 79.7216C89.334 80.0966 89.7962 80.6231 90.1257 81.3011C90.459 81.9792 90.6257 82.7727 90.6257 83.6818C90.6257 84.5833 90.459 85.3712 90.1257 86.0455C89.7962 86.7197 89.334 87.2443 88.7393 87.6193C88.1484 87.9943 87.459 88.1818 86.6712 88.1818ZM86.6712 86.9773C87.2696 86.9773 87.7621 86.8239 88.1484 86.517C88.5348 86.2102 88.8208 85.8068 89.0064 85.3068C89.192 84.8068 89.2848 84.2652 89.2848 83.6818C89.2848 83.0985 89.192 82.5549 89.0064 82.0511C88.8208 81.5473 88.5348 81.1402 88.1484 80.8295C87.7621 80.5189 87.2696 80.3636 86.6712 80.3636C86.0727 80.3636 85.5803 80.5189 85.1939 80.8295C84.8075 81.1402 84.5215 81.5473 84.3359 82.0511C84.1503 82.5549 84.0575 83.0985 84.0575 83.6818C84.0575 84.2652 84.1503 84.8068 84.3359 85.3068C84.5215 85.8068 84.8075 86.2102 85.1939 86.517C85.5803 86.8239 86.0727 86.9773 86.6712 86.9773Z" fill="black"/>
<rect x="157" width="160" height="25" rx="4" fill="#E61F94"/>
<path d="M165.797 6.80762C167.201 6.80762 168.349 7.28158 169.242 8.22949C170.135 9.17741 170.582 10.4307 170.582 11.9893C170.582 13.5479 170.135 14.8011 169.242 15.749C168.349 16.6969 167.201 17.1709 165.797 17.1709C164.389 17.1709 163.236 16.6969 162.338 15.749C161.44 14.7965 160.991 13.5433 160.991 11.9893C160.991 10.4307 161.44 9.17741 162.338 8.22949C163.236 7.28158 164.389 6.80762 165.797 6.80762ZM165.783 16.0361C166.786 16.0361 167.606 15.6807 168.244 14.9697C168.887 14.2588 169.208 13.2653 169.208 11.9893C169.208 10.7132 168.889 9.71973 168.251 9.00879C167.613 8.29785 166.799 7.94238 165.811 7.94238C164.803 7.94238 163.976 8.29785 163.329 9.00879C162.687 9.71973 162.365 10.7132 162.365 11.9893C162.365 13.2607 162.687 14.2542 163.329 14.9697C163.972 15.6807 164.79 16.0361 165.783 16.0361ZM174.772 17.1709C172.79 17.1709 171.753 16.3916 171.662 14.833H172.954C172.963 15.7171 173.565 16.1592 174.759 16.1592C175.292 16.1592 175.698 16.0498 175.976 15.8311C176.258 15.6077 176.399 15.3298 176.399 14.9971C176.399 14.6689 176.263 14.4388 175.989 14.3066C175.716 14.1699 175.151 13.9945 174.294 13.7803C173.442 13.5661 172.817 13.3268 172.421 13.0625C172.029 12.7982 171.833 12.3333 171.833 11.668C171.833 11.0664 172.077 10.5697 172.564 10.1777C173.057 9.78125 173.713 9.58301 174.533 9.58301C176.434 9.58301 177.404 10.2598 177.445 11.6133H176.16C176.115 10.9297 175.602 10.5879 174.622 10.5879C174.189 10.5879 173.829 10.6699 173.542 10.834C173.259 10.998 173.118 11.2373 173.118 11.5518C173.118 11.8343 173.228 12.0394 173.446 12.167C173.665 12.29 174.212 12.4587 175.087 12.6729C175.966 12.8825 176.618 13.1286 177.042 13.4111C177.47 13.6937 177.685 14.1813 177.685 14.874C177.685 15.5348 177.42 16.084 176.892 16.5215C176.368 16.9544 175.661 17.1709 174.772 17.1709ZM192.368 16.8633L191.582 17.7998L189.928 16.4941C189.185 16.9453 188.346 17.1709 187.412 17.1709C186.004 17.1709 184.851 16.6969 183.953 15.749C183.055 14.7965 182.606 13.5433 182.606 11.9893C182.606 10.4307 183.055 9.17741 183.953 8.22949C184.851 7.28158 186.004 6.80762 187.412 6.80762C188.816 6.80762 189.964 7.28158 190.857 8.22949C191.751 9.17741 192.197 10.4307 192.197 11.9893C192.197 13.5023 191.764 14.7441 190.898 15.7148L192.368 16.8633ZM189.9 14.9287C190.516 14.1995 190.823 13.2197 190.823 11.9893C190.823 10.7132 190.504 9.71973 189.866 9.00879C189.228 8.29785 188.415 7.94238 187.426 7.94238C186.419 7.94238 185.591 8.29785 184.944 9.00879C184.302 9.71973 183.98 10.7132 183.98 11.9893C183.98 13.2607 184.302 14.2542 184.944 14.9697C185.587 15.6807 186.405 16.0361 187.398 16.0361C187.927 16.0361 188.431 15.9245 188.909 15.7012L187.911 14.915L188.697 13.9785L189.9 14.9287ZM198.391 16.0771C197.748 16.8063 197.026 17.1709 196.224 17.1709C194.588 17.1709 193.77 16.2777 193.77 14.4912V9.74707H195.062V14.4365C195.062 15.029 195.166 15.4551 195.376 15.7148C195.586 15.9746 195.932 16.1045 196.415 16.1045C197.135 16.1045 197.794 15.7171 198.391 14.9424V9.74707H199.676V17H198.391V16.0771ZM204.673 17.1709C203.606 17.1709 202.75 16.8382 202.103 16.1729C201.455 15.5029 201.132 14.571 201.132 13.377C201.132 12.1921 201.444 11.2646 202.068 10.5947C202.697 9.92025 203.518 9.58301 204.529 9.58301C205.564 9.58301 206.389 9.91341 207.004 10.5742C207.624 11.235 207.934 12.1693 207.934 13.377V13.6846H202.472C202.526 14.5231 202.757 15.1452 203.162 15.5508C203.572 15.9564 204.076 16.1592 204.673 16.1592C205.124 16.1592 205.53 16.0452 205.89 15.8174C206.254 15.585 206.446 15.2568 206.464 14.833H207.797C207.697 15.5804 207.357 16.1569 206.778 16.5625C206.204 16.9681 205.502 17.1709 204.673 17.1709ZM206.573 12.6729C206.468 11.9756 206.234 11.4538 205.869 11.1074C205.505 10.7611 205.058 10.5879 204.529 10.5879C204.014 10.5879 203.572 10.7611 203.203 11.1074C202.834 11.4492 202.599 11.971 202.499 12.6729H206.573ZM213.149 10.9229C212.967 10.8682 212.705 10.8408 212.363 10.8408C211.707 10.8408 211.144 11.1849 210.675 11.873V17H209.383V9.74707H210.675V10.7588C211.217 9.97493 211.846 9.58301 212.562 9.58301C212.744 9.58301 212.94 9.60124 213.149 9.6377V10.9229ZM215.337 17H214.045V9.74707H215.337V17ZM215.337 8.37305H214.045V6.97852H215.337V8.37305ZM221.838 14.915V11.4697C221.282 10.8818 220.646 10.5879 219.931 10.5879C219.379 10.5879 218.937 10.8271 218.604 11.3057C218.276 11.7796 218.112 12.4883 218.112 13.4316C218.112 14.3249 218.267 15.0039 218.577 15.4688C218.892 15.929 219.325 16.1592 219.876 16.1592C220.596 16.1592 221.25 15.7445 221.838 14.915ZM221.838 16.1318C221.264 16.8245 220.573 17.1709 219.767 17.1709C218.819 17.1709 218.085 16.8337 217.565 16.1592C217.046 15.4847 216.786 14.5755 216.786 13.4316C216.786 12.2467 217.076 11.3102 217.654 10.6221C218.238 9.92936 218.969 9.58301 219.849 9.58301C220.632 9.58301 221.296 9.82454 221.838 10.3076V6.97852H223.123V17H221.838V16.1318ZM226.329 17H225.037V9.74707H226.329V17ZM226.329 8.37305H225.037V6.97852H226.329V8.37305ZM229.528 10.6699C230.171 9.94531 230.893 9.58301 231.695 9.58301C233.331 9.58301 234.149 10.474 234.149 12.2559V17H232.857V12.3105C232.857 11.7181 232.75 11.292 232.536 11.0322C232.326 10.7725 231.98 10.6426 231.497 10.6426C230.841 10.6426 230.185 11.0299 229.528 11.8047V17H228.236V9.74707H229.528V10.6699ZM237.321 10.6699C237.964 9.94531 238.686 9.58301 239.488 9.58301C241.124 9.58301 241.942 10.474 241.942 12.2559V17H240.65V12.3105C240.65 11.7181 240.543 11.292 240.329 11.0322C240.119 10.7725 239.773 10.6426 239.29 10.6426C238.634 10.6426 237.978 11.0299 237.321 11.8047V17H236.029V6.97852H237.321V10.6699ZM246.762 9.58301C247.796 9.58301 248.621 9.91341 249.236 10.5742C249.856 11.235 250.166 12.1693 250.166 13.377C250.166 14.5801 249.856 15.5143 249.236 16.1797C248.621 16.8405 247.796 17.1709 246.762 17.1709C245.732 17.1709 244.907 16.8405 244.287 16.1797C243.672 15.5143 243.364 14.5801 243.364 13.377C243.364 12.1693 243.672 11.235 244.287 10.5742C244.907 9.91341 245.732 9.58301 246.762 9.58301ZM246.762 16.1592C247.377 16.1592 247.876 15.9268 248.259 15.4619C248.642 14.9925 248.833 14.2975 248.833 13.377C248.833 12.4518 248.642 11.7568 248.259 11.292C247.876 10.8226 247.377 10.5879 246.762 10.5879C246.146 10.5879 245.647 10.8226 245.265 11.292C244.882 11.7568 244.69 12.4518 244.69 13.377C244.69 14.2975 244.882 14.9925 245.265 15.4619C245.647 15.9268 246.146 16.1592 246.762 16.1592ZM254.206 17.1709C252.224 17.1709 251.187 16.3916 251.096 14.833H252.388C252.397 15.7171 252.998 16.1592 254.192 16.1592C254.726 16.1592 255.131 16.0498 255.409 15.8311C255.692 15.6077 255.833 15.3298 255.833 14.9971C255.833 14.6689 255.696 14.4388 255.423 14.3066C255.149 14.1699 254.584 13.9945 253.728 13.7803C252.875 13.5661 252.251 13.3268 251.854 13.0625C251.463 12.7982 251.267 12.3333 251.267 11.668C251.267 11.0664 251.51 10.5697 251.998 10.1777C252.49 9.78125 253.146 9.58301 253.967 9.58301C255.867 9.58301 256.838 10.2598 256.879 11.6133H255.594C255.548 10.9297 255.035 10.5879 254.056 10.5879C253.623 10.5879 253.263 10.6699 252.976 10.834C252.693 10.998 252.552 11.2373 252.552 11.5518C252.552 11.8343 252.661 12.0394 252.88 12.167C253.099 12.29 253.646 12.4587 254.521 12.6729C255.4 12.8825 256.052 13.1286 256.476 13.4111C256.904 13.6937 257.118 14.1813 257.118 14.874C257.118 15.5348 256.854 16.084 256.325 16.5215C255.801 16.9544 255.095 17.1709 254.206 17.1709Z" fill="white"/>
<g filter="url(#filter1_d_302_63)">
<path d="M295.126 13.6565C293.4 12.064 293.4 9.48209 295.126 7.88962C296.853 6.29715 299.653 6.29715 301.379 7.88962L308.257 14.2331L302.005 20L295.126 13.6565Z" fill="#E0E3E4"/>
<path d="M308.874 13.6503C310.6 12.0578 310.6 9.47589 308.874 7.88342C307.147 6.29096 304.347 6.29095 302.621 7.88342L295.743 14.227L301.995 19.9938L308.874 13.6503Z" fill="#E0E3E4"/>
</g>
<g filter="url(#filter2_d_302_63)">
<rect x="22" y="2.2222" width="80" height="32.2222" rx="4" fill="white"/>
<path d="M41.1074 26.6C40.5794 26.6 40.1154 26.52 39.7154 26.36C39.3314 26.216 39.0594 25.992 38.8994 25.688C38.7874 25.752 38.6114 25.832 38.3714 25.928C38.1314 26.024 37.8914 26.072 37.6514 26.072C37.4114 26.072 37.2114 26.016 37.0514 25.904C36.6674 25.632 36.4034 25.168 36.2594 24.512C36.1154 23.856 36.0114 23.136 35.9474 22.352C35.9314 22.096 35.9154 21.84 35.8994 21.584C35.8994 21.312 35.8994 21.04 35.8994 20.768C35.8994 19.84 35.9394 18.888 36.0194 17.912C36.1154 16.936 36.2274 16.008 36.3554 15.128C36.4994 14.248 36.6514 13.472 36.8114 12.8C36.9714 12.112 37.1154 11.592 37.2434 11.24C37.2754 11.192 37.3714 11.152 37.5314 11.12C37.6914 11.072 37.8754 11.048 38.0834 11.048C38.3074 11.048 38.5234 11.08 38.7314 11.144C38.9394 11.192 39.0914 11.304 39.1874 11.48C39.1394 11.704 39.0274 12.136 38.8514 12.776C38.6754 13.4 38.4834 14.168 38.2754 15.08C38.0834 15.976 37.8994 16.96 37.7234 18.032C37.5634 19.088 37.4674 20.16 37.4354 21.248V21.848C37.4354 22.392 37.4594 22.952 37.5074 23.528C37.5714 24.088 37.6754 24.568 37.8194 24.968C37.9794 25.352 38.1954 25.552 38.4674 25.568H38.5154C38.5634 25.568 38.6114 25.568 38.6594 25.568C38.7234 25.552 38.7874 25.536 38.8514 25.52C38.8194 25.392 38.8034 25.288 38.8034 25.208C38.8034 24.744 39.0434 24.224 39.5234 23.648C40.0034 23.072 40.6674 22.536 41.5154 22.04C42.3794 21.544 43.3554 21.208 44.4434 21.032C44.4914 21.016 44.5314 21.008 44.5634 21.008C44.6114 21.008 44.6434 21.008 44.6594 21.008C44.8354 21.008 44.9234 21.048 44.9234 21.128C44.9234 21.224 44.8034 21.296 44.5634 21.344C43.9554 21.44 43.3714 21.624 42.8114 21.896C42.2514 22.168 41.7474 22.48 41.2994 22.832C40.8514 23.168 40.4914 23.504 40.2194 23.84C39.9634 24.176 39.8354 24.456 39.8354 24.68C39.8354 24.856 39.9234 24.992 40.0994 25.088C40.2754 25.168 40.5074 25.208 40.7954 25.208C41.2274 25.208 41.7314 25.12 42.3074 24.944C42.8834 24.768 43.4434 24.512 43.9874 24.176C44.5474 23.84 45.0034 23.432 45.3554 22.952C45.7234 22.472 45.9074 21.936 45.9074 21.344C45.9074 20.848 45.7554 20.392 45.4514 19.976C45.1634 19.544 44.6754 19.2 43.9874 18.944C43.2994 18.672 42.3794 18.536 41.2274 18.536C40.9234 18.536 40.6114 18.56 40.2914 18.608C39.9714 18.656 39.6594 18.752 39.3554 18.896C39.3074 18.896 39.2594 18.904 39.2114 18.92C39.1794 18.92 39.1474 18.92 39.1154 18.92C38.8114 18.92 38.5954 18.848 38.4674 18.704C38.3394 18.544 38.2754 18.376 38.2754 18.2C38.2754 18.024 38.3234 17.872 38.4194 17.744C38.5154 17.6 38.6194 17.528 38.7314 17.528C39.4834 17.496 40.2034 17.4 40.8914 17.24C41.5794 17.08 42.2594 16.824 42.9314 16.472C43.4274 16.216 43.9474 15.888 44.4914 15.488C45.0514 15.088 45.5234 14.624 45.9074 14.096C46.3074 13.552 46.5074 12.952 46.5074 12.296C46.5074 11.832 46.3554 11.464 46.0514 11.192C45.7634 10.904 45.3714 10.68 44.8754 10.52C44.3954 10.36 43.8674 10.256 43.2914 10.208C42.7154 10.144 42.1474 10.112 41.5874 10.112C41.0434 10.112 40.5314 10.128 40.0514 10.16C39.5874 10.192 39.2194 10.224 38.9474 10.256C38.5634 10.288 38.0194 10.368 37.3154 10.496C36.6114 10.624 35.8514 10.792 35.0354 11C34.2354 11.208 33.4674 11.472 32.7314 11.792C32.0114 12.096 31.4114 12.448 30.9314 12.848C30.4674 13.232 30.2354 13.672 30.2354 14.168C30.2354 14.568 30.3954 14.896 30.7154 15.152C31.0514 15.392 31.4754 15.512 31.9874 15.512C32.5154 15.512 33.1074 15.376 33.7634 15.104C34.4354 14.816 35.1154 14.352 35.8034 13.712C35.8354 13.68 35.8594 13.664 35.8754 13.664C35.9074 13.664 35.9234 13.696 35.9234 13.76C35.9234 13.856 35.8914 13.984 35.8274 14.144C35.7634 14.304 35.6514 14.456 35.4914 14.6C34.9314 15.112 34.3074 15.496 33.6194 15.752C32.9314 15.992 32.2674 16.112 31.6274 16.112C31.4674 16.112 31.3074 16.104 31.1474 16.088C30.9874 16.072 30.8354 16.048 30.6914 16.016C30.1474 15.888 29.7234 15.632 29.4194 15.248C29.0994 14.864 28.9394 14.424 28.9394 13.928C28.9394 13.224 29.1714 12.616 29.6354 12.104C30.0994 11.576 30.7074 11.128 31.4594 10.76C32.2274 10.392 33.0594 10.088 33.9554 9.848C34.8674 9.608 35.7634 9.416 36.6434 9.272C37.0434 9.208 37.5154 9.16 38.0594 9.128C38.6034 9.08 39.1794 9.056 39.7874 9.056C40.6674 9.056 41.5634 9.112 42.4754 9.224C43.3874 9.336 44.2274 9.536 44.9954 9.824C45.7794 10.096 46.4034 10.48 46.8674 10.976C47.3474 11.472 47.5874 12.096 47.5874 12.848C47.5874 13.52 47.4034 14.144 47.0354 14.72C46.6674 15.28 46.1874 15.792 45.5954 16.256C45.0034 16.704 44.3794 17.088 43.7234 17.408C43.0674 17.728 42.4514 17.968 41.8754 18.128C42.7394 18.176 43.5634 18.32 44.3474 18.56C45.1474 18.784 45.7954 19.16 46.2914 19.688C46.8034 20.216 47.0594 20.952 47.0594 21.896C47.0594 22.664 46.8674 23.344 46.4834 23.936C46.0994 24.528 45.6034 25.024 44.9954 25.424C44.3874 25.808 43.7394 26.096 43.0514 26.288C42.3634 26.496 41.7154 26.6 41.1074 26.6ZM52.5093 26.12C51.9813 26.12 51.5653 25.952 51.2613 25.616C50.9573 25.264 50.7413 24.816 50.6133 24.272C50.5013 23.712 50.4453 23.112 50.4453 22.472C50.4453 21.784 50.4853 21.112 50.5653 20.456C50.6613 19.784 50.7573 19.192 50.8533 18.68C50.9653 18.168 51.0453 17.816 51.0933 17.624C50.6453 17.592 50.2933 17.52 50.0373 17.408C49.7813 17.296 49.5653 17.16 49.3893 17C49.3253 17.768 49.2213 18.592 49.0773 19.472C48.9493 20.352 48.7973 21.2 48.6213 22.016C48.4453 22.816 48.2533 23.504 48.0453 24.08C47.9813 24.288 47.8773 24.392 47.7333 24.392C47.6213 24.392 47.5653 24.32 47.5653 24.176C47.5653 24.144 47.5653 24.104 47.5653 24.056C47.5813 24.008 47.5973 23.96 47.6133 23.912C47.8693 23.176 48.0853 22.376 48.2613 21.512C48.4373 20.632 48.5733 19.784 48.6693 18.968C48.7653 18.152 48.8133 17.472 48.8133 16.928V16.664C48.4133 16.488 48.1173 16.232 47.9253 15.896C47.7493 15.56 47.6613 15.24 47.6613 14.936C47.6613 14.712 47.7013 14.512 47.7813 14.336C47.8773 14.16 48.0133 14.072 48.1893 14.072H48.2373C48.4613 14.072 48.6613 14.232 48.8373 14.552C49.0133 14.856 49.1573 15.2 49.2693 15.584C49.3813 15.952 49.4373 16.248 49.4373 16.472C49.6293 16.616 49.8373 16.72 50.0613 16.784C50.3013 16.848 50.5013 16.88 50.6613 16.88C50.8693 16.88 51.0053 16.848 51.0693 16.784C51.1973 16.656 51.3493 16.472 51.5253 16.232C51.7173 15.992 52.0133 15.872 52.4133 15.872C52.6853 15.872 53.0133 15.952 53.3973 16.112C53.2053 16.512 53.0293 16.968 52.8693 17.48C52.7093 17.976 52.5733 18.504 52.4613 19.064C52.4453 19.192 52.4053 19.448 52.3413 19.832C52.2773 20.216 52.2213 20.656 52.1733 21.152C52.1253 21.648 52.1013 22.144 52.1013 22.64C52.1013 23.344 52.1733 23.968 52.3173 24.512C52.4773 25.04 52.7653 25.304 53.1813 25.304C53.4373 25.304 53.6613 25.2 53.8533 24.992C54.0453 24.784 54.2133 24.528 54.3573 24.224C54.5013 23.904 54.6213 23.6 54.7173 23.312C54.8133 23.008 54.8853 22.768 54.9333 22.592C54.9653 22.448 55.0293 22.376 55.1253 22.376C55.2053 22.376 55.2453 22.464 55.2453 22.64V22.76C55.2453 23.496 55.1093 24.12 54.8373 24.632C54.5813 25.128 54.2453 25.504 53.8293 25.76C53.4133 26 52.9733 26.12 52.5093 26.12ZM57.4799 26.24C56.9359 26.24 56.4879 26.096 56.1359 25.808C55.7999 25.52 55.5359 25.144 55.3439 24.68C55.1679 24.216 55.0399 23.712 54.9599 23.168C54.8959 22.608 54.8639 22.064 54.8639 21.536C54.8639 21.136 54.8799 20.768 54.9119 20.432C54.9439 20.08 54.9679 19.776 54.9839 19.52C55.0639 18.848 55.2399 18.176 55.5119 17.504C55.7839 16.816 56.1839 16.248 56.7119 15.8C57.2399 15.336 57.9359 15.104 58.7999 15.104C59.4079 15.104 59.8719 15.304 60.1919 15.704C60.5279 16.088 60.7599 16.592 60.8879 17.216C61.0159 17.824 61.0799 18.472 61.0799 19.16C61.0799 19.352 61.0719 19.544 61.0559 19.736C61.0559 19.928 61.0479 20.12 61.0319 20.312C61.4319 20.76 61.9119 20.984 62.4719 20.984C62.9039 20.984 63.3279 20.824 63.7439 20.504C63.8399 20.424 63.9279 20.384 64.0079 20.384C64.0719 20.384 64.1039 20.424 64.1039 20.504C64.1039 20.648 64.0639 20.744 63.9839 20.792C63.7279 21.032 63.4559 21.208 63.1679 21.32C62.8799 21.432 62.5919 21.488 62.3039 21.488C61.8079 21.488 61.3519 21.344 60.9359 21.056C60.9039 21.36 60.8559 21.648 60.7919 21.92C60.7439 22.176 60.6959 22.4 60.6479 22.592C60.5039 23.088 60.2879 23.624 59.9999 24.2C59.7279 24.76 59.3759 25.24 58.9439 25.64C58.5279 26.04 58.0399 26.24 57.4799 26.24ZM58.2719 24.92C58.6079 24.92 58.8879 24.76 59.1119 24.44C59.3519 24.12 59.5519 23.752 59.7119 23.336C59.8719 22.92 59.9839 22.568 60.0479 22.28C60.0959 22.056 60.1359 21.8 60.1679 21.512C60.1999 21.224 60.2239 20.88 60.2399 20.48C60.0159 20.288 59.8239 19.944 59.6639 19.448C59.5199 18.936 59.4479 18.448 59.4479 17.984C59.4479 17.664 59.4879 17.384 59.5679 17.144C59.6479 16.888 59.7679 16.72 59.9279 16.64C59.8319 16.4 59.7039 16.176 59.5439 15.968C59.3839 15.744 59.1599 15.632 58.8719 15.632C58.5999 15.632 58.3519 15.792 58.1279 16.112C57.9199 16.432 57.7359 16.816 57.5759 17.264C57.4159 17.712 57.2879 18.136 57.1919 18.536C57.1119 18.936 57.0639 19.216 57.0479 19.376C57.0319 19.552 57.0079 19.824 56.9759 20.192C56.9439 20.544 56.9279 20.936 56.9279 21.368C56.9279 21.912 56.9599 22.456 57.0239 23C57.1039 23.544 57.2399 24 57.4319 24.368C57.6239 24.736 57.9039 24.92 58.2719 24.92ZM64.4161 26.12C64.0801 26.12 63.8161 25.968 63.6241 25.664C63.4321 25.344 63.2881 24.968 63.1921 24.536C63.1121 24.104 63.0561 23.728 63.0241 23.408C62.9921 23.056 62.9681 22.704 62.9521 22.352C62.9361 22 62.9281 21.672 62.9281 21.368C62.9281 21.144 62.9281 20.944 62.9281 20.768C62.9281 20.576 62.9361 20.424 62.9521 20.312C62.9841 19.896 63.0321 19.448 63.0961 18.968C63.1761 18.472 63.3041 18.008 63.4801 17.576C63.6721 17.144 63.9281 16.792 64.2481 16.52C64.5841 16.248 65.0161 16.112 65.5441 16.112C65.5921 16.112 65.6401 16.12 65.6881 16.136C65.7361 16.136 65.7841 16.136 65.8321 16.136V16.352C65.6081 16.416 65.4081 16.712 65.2321 17.24C65.0561 17.752 64.9201 18.376 64.8241 19.112C64.7281 19.848 64.6801 20.576 64.6801 21.296C64.6801 21.776 64.7041 22.208 64.7521 22.592C64.8641 23.616 65.1201 24.128 65.5201 24.128C65.8881 24.128 66.2561 23.704 66.6241 22.856C66.9761 22.056 67.2081 21.224 67.3201 20.36C67.4481 19.48 67.5681 18.608 67.6801 17.744C67.7121 17.504 67.7601 17.28 67.8241 17.072C67.8881 16.848 67.9761 16.656 68.0881 16.496C68.1681 16.352 68.4001 16.24 68.7841 16.16C69.1841 16.08 69.5361 16.04 69.8401 16.04C69.9521 16.04 70.0081 16.08 70.0081 16.16C70.0081 16.208 69.9681 16.256 69.8881 16.304C69.7761 16.368 69.6801 16.608 69.6001 17.024C69.5361 17.44 69.4881 17.896 69.4561 18.392C69.4401 18.648 69.4241 18.912 69.4081 19.184C69.4081 19.44 69.4081 19.704 69.4081 19.976C69.4081 20.232 69.4081 20.48 69.4081 20.72C69.4241 20.96 69.4401 21.2 69.4561 21.44C69.4721 21.616 69.4961 21.904 69.5281 22.304C69.5761 22.688 69.6481 23.096 69.7441 23.528C69.8401 23.944 69.9681 24.304 70.1281 24.608C70.3041 24.912 70.5201 25.064 70.7761 25.064C71.0641 25.064 71.3201 24.952 71.5441 24.728C71.7681 24.504 71.9601 24.224 72.1201 23.888C72.2801 23.536 72.4001 23.184 72.4801 22.832C72.5761 22.48 72.6401 22.184 72.6721 21.944C72.7041 21.688 72.7281 21.392 72.7441 21.056C72.7601 20.72 72.7681 20.352 72.7681 19.952C72.7681 19.136 72.7041 18.296 72.5761 17.432C72.4641 16.552 72.2241 15.856 71.8561 15.344C71.7921 15.264 71.7601 15.168 71.7601 15.056C71.7601 14.88 71.8401 14.736 72.0001 14.624C72.1601 14.496 72.3441 14.432 72.5521 14.432C72.6961 14.432 72.8401 14.472 72.9841 14.552C73.1441 14.632 73.2801 14.776 73.3921 14.984C73.5361 15.24 73.6401 15.6 73.7041 16.064C73.7681 16.528 73.8001 17.056 73.8001 17.648C73.8001 18.576 73.7201 19.576 73.5601 20.648C73.4001 21.72 73.1601 22.68 72.8401 23.528C72.7121 23.864 72.5201 24.24 72.2641 24.656C72.0081 25.056 71.6961 25.4 71.3281 25.688C70.9761 25.976 70.5681 26.12 70.1041 26.12C70.0401 26.12 69.9761 26.112 69.9121 26.096C69.8641 26.096 69.8001 26.088 69.7201 26.072C69.1441 25.944 68.6721 25.504 68.3041 24.752C67.9521 24 67.7521 23.016 67.7041 21.8C67.6401 22.104 67.5121 22.496 67.3201 22.976C67.1441 23.456 66.9121 23.936 66.6241 24.416C66.3361 24.896 66.0081 25.304 65.6401 25.64C65.2721 25.96 64.8641 26.12 64.4161 26.12ZM76.046 26.192C75.822 26.192 75.63 26.112 75.47 25.952C75.326 25.776 75.254 25.488 75.254 25.088C75.254 25.024 75.254 24.96 75.254 24.896C75.254 24.816 75.262 24.736 75.278 24.656C75.31 24.368 75.342 23.968 75.374 23.456C75.422 22.944 75.454 22.368 75.47 21.728C75.502 21.088 75.518 20.448 75.518 19.808C75.518 19.136 75.494 18.504 75.446 17.912C75.414 17.304 75.35 16.824 75.254 16.472C75.382 16.44 75.55 16.352 75.758 16.208C75.966 16.064 76.182 15.968 76.406 15.92C76.454 15.904 76.518 15.896 76.598 15.896C76.87 15.896 77.038 16.04 77.102 16.328C77.182 16.616 77.222 16.968 77.222 17.384C77.222 17.672 77.214 18.016 77.198 18.416C77.198 18.8 77.182 19.136 77.15 19.424C77.326 18.912 77.518 18.472 77.726 18.104C77.934 17.72 78.158 17.352 78.398 17C78.638 16.632 78.894 16.272 79.166 15.92C79.438 15.552 79.806 15.368 80.27 15.368C80.75 15.368 81.062 15.528 81.206 15.848C81.35 16.168 81.422 16.52 81.422 16.904C81.422 17.112 81.414 17.312 81.398 17.504C81.382 17.68 81.366 17.848 81.35 18.008C81.35 18.12 81.326 18.416 81.278 18.896C81.23 19.36 81.182 19.912 81.134 20.552C81.086 21.176 81.062 21.808 81.062 22.448C81.062 22.624 81.07 22.872 81.086 23.192C81.102 23.496 81.134 23.808 81.182 24.128C81.23 24.432 81.31 24.696 81.422 24.92C81.55 25.128 81.718 25.232 81.926 25.232C82.054 25.232 82.198 25.184 82.358 25.088C82.534 24.96 82.686 24.792 82.814 24.584C82.958 24.376 83.07 24.168 83.15 23.96C83.214 23.816 83.278 23.656 83.342 23.48C83.406 23.304 83.462 23.12 83.51 22.928C83.574 22.736 83.662 22.64 83.774 22.64C83.854 22.64 83.894 22.72 83.894 22.88V22.976C83.894 23.088 83.87 23.232 83.822 23.408C83.79 23.584 83.742 23.76 83.678 23.936C83.486 24.528 83.198 25.048 82.814 25.496C82.446 25.928 81.926 26.144 81.254 26.144C80.806 26.144 80.454 25.976 80.198 25.64C79.958 25.288 79.782 24.84 79.67 24.296C79.606 23.992 79.558 23.688 79.526 23.384C79.51 23.08 79.502 22.776 79.502 22.472C79.502 21.72 79.55 20.976 79.646 20.24C79.758 19.488 79.814 18.768 79.814 18.08C79.814 17.856 79.782 17.648 79.718 17.456C79.67 17.248 79.55 17.144 79.358 17.144C79.166 17.144 78.934 17.328 78.662 17.696C78.39 18.048 78.11 18.568 77.822 19.256C77.534 19.928 77.294 20.696 77.102 21.56C76.91 22.408 76.814 23.28 76.814 24.176C76.814 24.72 76.862 25.272 76.958 25.832C76.846 25.912 76.702 25.992 76.526 26.072C76.35 26.152 76.19 26.192 76.046 26.192ZM85.8794 13.856C85.5754 13.856 85.3034 13.744 85.0634 13.52C84.8394 13.296 84.7274 13.024 84.7274 12.704C84.7274 12.384 84.8394 12.112 85.0634 11.888C85.3034 11.664 85.5754 11.552 85.8794 11.552C86.1994 11.552 86.4714 11.664 86.6954 11.888C86.9194 12.112 87.0314 12.384 87.0314 12.704C87.0314 13.024 86.9194 13.296 86.6954 13.52C86.4714 13.744 86.1994 13.856 85.8794 13.856ZM85.7114 26.12C85.1354 26.12 84.6794 25.88 84.3434 25.4C84.0234 24.904 83.7914 24.28 83.6474 23.528C83.5194 22.76 83.4554 21.96 83.4554 21.128C83.4554 20.44 83.4874 19.776 83.5514 19.136C83.6314 18.48 83.7194 17.912 83.8154 17.432C83.9274 16.936 84.0314 16.584 84.1274 16.376C84.2234 16.184 84.3754 16.008 84.5834 15.848C84.8074 15.672 85.1034 15.584 85.4714 15.584C85.6794 15.584 85.8874 15.608 86.0954 15.656C85.9354 16.216 85.7434 16.992 85.5194 17.984C85.2954 18.976 85.1834 20.072 85.1834 21.272C85.1834 21.688 85.1914 22.136 85.2074 22.616C85.2234 23.08 85.2634 23.52 85.3274 23.936C85.3914 24.336 85.4874 24.664 85.6154 24.92C85.7594 25.176 85.9434 25.304 86.1674 25.304H86.1914C86.3194 25.304 86.4554 25.24 86.5994 25.112C86.7594 24.984 86.9274 24.744 87.1034 24.392C87.3434 23.928 87.5674 23.328 87.7754 22.592C87.8074 22.448 87.8714 22.376 87.9674 22.376C88.0474 22.376 88.0874 22.472 88.0874 22.664V22.76C88.0554 23.176 87.9434 23.648 87.7514 24.176C87.5594 24.704 87.2874 25.16 86.9354 25.544C86.5994 25.928 86.1914 26.12 85.7114 26.12ZM91.0119 26.456C90.2439 26.456 89.6199 26.224 89.1399 25.76C88.6759 25.28 88.3319 24.696 88.1079 24.008C87.8999 23.304 87.7959 22.616 87.7959 21.944C87.7959 21.176 87.8759 20.408 88.0359 19.64C88.1959 18.856 88.4439 18.144 88.7799 17.504C89.1319 16.864 89.5719 16.352 90.0999 15.968C90.6279 15.568 91.2519 15.368 91.9719 15.368C92.4839 15.368 92.8839 15.52 93.1719 15.824C93.4599 16.128 93.6039 16.576 93.6039 17.168C93.6039 17.968 93.4039 18.68 93.0039 19.304C92.6199 19.912 92.1319 20.408 91.5399 20.792C90.9479 21.176 90.3319 21.44 89.6919 21.584V21.704C89.6919 22.36 89.7559 22.976 89.8839 23.552C90.0279 24.112 90.2519 24.568 90.5559 24.92C90.8759 25.256 91.2919 25.424 91.8039 25.424C92.4279 25.424 92.9079 25.168 93.2439 24.656C93.5799 24.128 93.8439 23.464 94.0359 22.664C94.0519 22.6 94.0759 22.544 94.1079 22.496C94.1559 22.432 94.1959 22.4 94.2279 22.4C94.3719 22.4 94.4359 22.504 94.4199 22.712C94.3719 23.144 94.2759 23.552 94.1319 23.936C93.9879 24.32 93.8359 24.648 93.6759 24.92C93.3719 25.416 93.0039 25.792 92.5719 26.048C92.1559 26.32 91.6359 26.456 91.0119 26.456ZM89.7159 21.032C90.2279 20.904 90.6759 20.656 91.0599 20.288C91.4439 19.904 91.7399 19.456 91.9479 18.944C92.1719 18.432 92.2839 17.912 92.2839 17.384V17.264C92.2839 16.976 92.2359 16.704 92.1399 16.448C92.0599 16.192 91.8999 16.064 91.6599 16.064C91.3719 16.064 91.1159 16.208 90.8919 16.496C90.6839 16.768 90.4999 17.12 90.3399 17.552C90.1959 17.984 90.0759 18.432 89.9799 18.896C89.8839 19.36 89.8119 19.784 89.7639 20.168C89.7319 20.552 89.7159 20.832 89.7159 21.008V21.032Z" fill="#E61F94"/>
</g>
<path d="M146.746 43.7578C146.746 44.2383 146.576 44.6484 146.236 44.9883C145.9 45.3242 145.494 45.4922 145.018 45.4922C144.537 45.4922 144.127 45.3223 143.787 44.9824C143.451 44.6426 143.283 44.2344 143.283 43.7578C143.283 43.2812 143.451 42.875 143.787 42.5391C144.127 42.1992 144.537 42.0293 145.018 42.0293C145.494 42.0293 145.9 42.1973 146.236 42.5332C146.576 42.8691 146.746 43.2773 146.746 43.7578ZM154.879 39.4102H158.312C158.992 39.4102 159.498 39.4395 159.83 39.498C160.166 39.5527 160.465 39.6699 160.727 39.8496C160.992 40.0293 161.213 40.2695 161.389 40.5703C161.564 40.8672 161.652 41.2012 161.652 41.5723C161.652 41.9746 161.543 42.3438 161.324 42.6797C161.109 43.0156 160.816 43.2676 160.445 43.4355C160.969 43.5879 161.371 43.8477 161.652 44.2148C161.934 44.582 162.074 45.0137 162.074 45.5098C162.074 45.9004 161.982 46.2812 161.799 46.6523C161.619 47.0195 161.371 47.3145 161.055 47.5371C160.742 47.7559 160.355 47.8906 159.895 47.9414C159.605 47.9727 158.908 47.9922 157.803 48H154.879V39.4102ZM156.613 40.8398V42.8262H157.75C158.426 42.8262 158.846 42.8164 159.01 42.7969C159.307 42.7617 159.539 42.6602 159.707 42.4922C159.879 42.3203 159.965 42.0957 159.965 41.8184C159.965 41.5527 159.891 41.3379 159.742 41.1738C159.598 41.0059 159.381 40.9043 159.092 40.8691C158.92 40.8496 158.426 40.8398 157.609 40.8398H156.613ZM156.613 44.2559V46.5527H158.219C158.844 46.5527 159.24 46.5352 159.408 46.5C159.666 46.4531 159.875 46.3398 160.035 46.1602C160.199 45.9766 160.281 45.7324 160.281 45.4277C160.281 45.1699 160.219 44.9512 160.094 44.7715C159.969 44.5918 159.787 44.4609 159.549 44.3789C159.314 44.2969 158.803 44.2559 158.014 44.2559H156.613ZM165.109 48H163.463V41.7773H164.992V42.6621C165.254 42.2441 165.488 41.9688 165.695 41.8359C165.906 41.7031 166.145 41.6367 166.41 41.6367C166.785 41.6367 167.146 41.7402 167.494 41.9473L166.984 43.3828C166.707 43.2031 166.449 43.1133 166.211 43.1133C165.98 43.1133 165.785 43.1777 165.625 43.3066C165.465 43.4316 165.338 43.6602 165.244 43.9922C165.154 44.3242 165.109 45.0195 165.109 46.0781V48ZM168.209 40.9336V39.4102H169.855V40.9336H168.209ZM168.209 48V41.7773H169.855V48H168.209ZM171.396 48.4102L173.277 48.6387C173.309 48.8574 173.381 49.0078 173.494 49.0898C173.65 49.207 173.896 49.2656 174.232 49.2656C174.662 49.2656 174.984 49.2012 175.199 49.0723C175.344 48.9863 175.453 48.8477 175.527 48.6562C175.578 48.5195 175.604 48.2676 175.604 47.9004V46.9922C175.111 47.6641 174.49 48 173.74 48C172.904 48 172.242 47.6465 171.754 46.9395C171.371 46.3809 171.18 45.6855 171.18 44.8535C171.18 43.8105 171.43 43.0137 171.93 42.4629C172.434 41.9121 173.059 41.6367 173.805 41.6367C174.574 41.6367 175.209 41.9746 175.709 42.6504V41.7773H177.25V47.3613C177.25 48.0957 177.189 48.6445 177.068 49.0078C176.947 49.3711 176.777 49.6562 176.559 49.8633C176.34 50.0703 176.047 50.2324 175.68 50.3496C175.316 50.4668 174.855 50.5254 174.297 50.5254C173.242 50.5254 172.494 50.3438 172.053 49.9805C171.611 49.6211 171.391 49.1641 171.391 48.6094C171.391 48.5547 171.393 48.4883 171.396 48.4102ZM172.867 44.7598C172.867 45.4199 172.994 45.9043 173.248 46.2129C173.506 46.5176 173.822 46.6699 174.197 46.6699C174.6 46.6699 174.939 46.5137 175.217 46.2012C175.494 45.8848 175.633 45.418 175.633 44.8008C175.633 44.1562 175.5 43.6777 175.234 43.3652C174.969 43.0527 174.633 42.8965 174.227 42.8965C173.832 42.8965 173.506 43.0508 173.248 43.3594C172.994 43.6641 172.867 44.1309 172.867 44.7598ZM180.115 43.6758L178.621 43.4062C178.789 42.8047 179.078 42.3594 179.488 42.0703C179.898 41.7812 180.508 41.6367 181.316 41.6367C182.051 41.6367 182.598 41.7246 182.957 41.9004C183.316 42.0723 183.568 42.293 183.713 42.5625C183.861 42.8281 183.936 43.3184 183.936 44.0332L183.918 45.9551C183.918 46.502 183.943 46.9062 183.994 47.168C184.049 47.4258 184.148 47.7031 184.293 48H182.664C182.621 47.8906 182.568 47.7285 182.506 47.5137C182.479 47.416 182.459 47.3516 182.447 47.3203C182.166 47.5938 181.865 47.7988 181.545 47.9355C181.225 48.0723 180.883 48.1406 180.52 48.1406C179.879 48.1406 179.373 47.9668 179.002 47.6191C178.635 47.2715 178.451 46.832 178.451 46.3008C178.451 45.9492 178.535 45.6367 178.703 45.3633C178.871 45.0859 179.105 44.875 179.406 44.7305C179.711 44.582 180.148 44.4531 180.719 44.3438C181.488 44.1992 182.021 44.0645 182.318 43.9395V43.7754C182.318 43.459 182.24 43.2344 182.084 43.1016C181.928 42.9648 181.633 42.8965 181.199 42.8965C180.906 42.8965 180.678 42.9551 180.514 43.0723C180.35 43.1855 180.217 43.3867 180.115 43.6758ZM182.318 45.0117C182.107 45.082 181.773 45.166 181.316 45.2637C180.859 45.3613 180.561 45.457 180.42 45.5508C180.205 45.7031 180.098 45.8965 180.098 46.1309C180.098 46.3613 180.184 46.5605 180.355 46.7285C180.527 46.8965 180.746 46.9805 181.012 46.9805C181.309 46.9805 181.592 46.8828 181.861 46.6875C182.061 46.5391 182.191 46.3574 182.254 46.1426C182.297 46.002 182.318 45.7344 182.318 45.3398V45.0117ZM191.271 48H189.742V47.0859C189.488 47.4414 189.188 47.707 188.84 47.8828C188.496 48.0547 188.148 48.1406 187.797 48.1406C187.082 48.1406 186.469 47.8535 185.957 47.2793C185.449 46.7012 185.195 45.8965 185.195 44.8652C185.195 43.8105 185.443 43.0098 185.939 42.4629C186.436 41.9121 187.062 41.6367 187.82 41.6367C188.516 41.6367 189.117 41.9258 189.625 42.5039V39.4102H191.271V48ZM186.877 44.7539C186.877 45.418 186.969 45.8984 187.152 46.1953C187.418 46.625 187.789 46.8398 188.266 46.8398C188.645 46.8398 188.967 46.6797 189.232 46.3594C189.498 46.0352 189.631 45.5527 189.631 44.9121C189.631 44.1973 189.502 43.6836 189.244 43.3711C188.986 43.0547 188.656 42.8965 188.254 42.8965C187.863 42.8965 187.535 43.0527 187.27 43.3652C187.008 43.6738 186.877 44.1367 186.877 44.7539ZM196.504 46.0195L198.145 46.2949C197.934 46.8965 197.6 47.3555 197.143 47.6719C196.689 47.9844 196.121 48.1406 195.438 48.1406C194.355 48.1406 193.555 47.7871 193.035 47.0801C192.625 46.5137 192.42 45.7988 192.42 44.9355C192.42 43.9043 192.689 43.0977 193.229 42.5156C193.768 41.9297 194.449 41.6367 195.273 41.6367C196.199 41.6367 196.93 41.9434 197.465 42.5566C198 43.166 198.256 44.1016 198.232 45.3633H194.107C194.119 45.8516 194.252 46.2324 194.506 46.5059C194.76 46.7754 195.076 46.9102 195.455 46.9102C195.713 46.9102 195.93 46.8398 196.105 46.6992C196.281 46.5586 196.414 46.332 196.504 46.0195ZM196.598 44.3555C196.586 43.8789 196.463 43.5176 196.229 43.2715C195.994 43.0215 195.709 42.8965 195.373 42.8965C195.014 42.8965 194.717 43.0273 194.482 43.2891C194.248 43.5508 194.133 43.9062 194.137 44.3555H196.598ZM199.58 40.9336V39.4102H201.227V40.9336H199.58ZM199.58 48V41.7773H201.227V48H199.58ZM204.496 48H202.85V41.7773H204.379V42.6621C204.641 42.2441 204.875 41.9688 205.082 41.8359C205.293 41.7031 205.531 41.6367 205.797 41.6367C206.172 41.6367 206.533 41.7402 206.881 41.9473L206.371 43.3828C206.094 43.2031 205.836 43.1133 205.598 43.1133C205.367 43.1133 205.172 43.1777 205.012 43.3066C204.852 43.4316 204.725 43.6602 204.631 43.9922C204.541 44.3242 204.496 45.0195 204.496 46.0781V48ZM207.215 44.8008C207.215 44.2539 207.35 43.7246 207.619 43.2129C207.889 42.7012 208.27 42.3105 208.762 42.041C209.258 41.7715 209.811 41.6367 210.42 41.6367C211.361 41.6367 212.133 41.9434 212.734 42.5566C213.336 43.166 213.637 43.9375 213.637 44.8711C213.637 45.8125 213.332 46.5938 212.723 47.2148C212.117 47.832 211.354 48.1406 210.432 48.1406C209.861 48.1406 209.316 48.0117 208.797 47.7539C208.281 47.4961 207.889 47.1191 207.619 46.623C207.35 46.123 207.215 45.5156 207.215 44.8008ZM208.902 44.8887C208.902 45.5059 209.049 45.9785 209.342 46.3066C209.635 46.6348 209.996 46.7988 210.426 46.7988C210.855 46.7988 211.215 46.6348 211.504 46.3066C211.797 45.9785 211.943 45.502 211.943 44.877C211.943 44.2676 211.797 43.7988 211.504 43.4707C211.215 43.1426 210.855 42.9785 210.426 42.9785C209.996 42.9785 209.635 43.1426 209.342 43.4707C209.049 43.7988 208.902 44.2715 208.902 44.8887ZM223.979 48H222.449V47.0859C222.195 47.4414 221.895 47.707 221.547 47.8828C221.203 48.0547 220.855 48.1406 220.504 48.1406C219.789 48.1406 219.176 47.8535 218.664 47.2793C218.156 46.7012 217.902 45.8965 217.902 44.8652C217.902 43.8105 218.15 43.0098 218.646 42.4629C219.143 41.9121 219.77 41.6367 220.527 41.6367C221.223 41.6367 221.824 41.9258 222.332 42.5039V39.4102H223.979V48ZM219.584 44.7539C219.584 45.418 219.676 45.8984 219.859 46.1953C220.125 46.625 220.496 46.8398 220.973 46.8398C221.352 46.8398 221.674 46.6797 221.939 46.3594C222.205 46.0352 222.338 45.5527 222.338 44.9121C222.338 44.1973 222.209 43.6836 221.951 43.3711C221.693 43.0547 221.363 42.8965 220.961 42.8965C220.57 42.8965 220.242 43.0527 219.977 43.3652C219.715 43.6738 219.584 44.1367 219.584 44.7539ZM229.211 46.0195L230.852 46.2949C230.641 46.8965 230.307 47.3555 229.85 47.6719C229.396 47.9844 228.828 48.1406 228.145 48.1406C227.062 48.1406 226.262 47.7871 225.742 47.0801C225.332 46.5137 225.127 45.7988 225.127 44.9355C225.127 43.9043 225.396 43.0977 225.936 42.5156C226.475 41.9297 227.156 41.6367 227.98 41.6367C228.906 41.6367 229.637 41.9434 230.172 42.5566C230.707 43.166 230.963 44.1016 230.939 45.3633H226.814C226.826 45.8516 226.959 46.2324 227.213 46.5059C227.467 46.7754 227.783 46.9102 228.162 46.9102C228.42 46.9102 228.637 46.8398 228.812 46.6992C228.988 46.5586 229.121 46.332 229.211 46.0195ZM229.305 44.3555C229.293 43.8789 229.17 43.5176 228.936 43.2715C228.701 43.0215 228.416 42.8965 228.08 42.8965C227.721 42.8965 227.424 43.0273 227.189 43.2891C226.955 43.5508 226.84 43.9062 226.844 44.3555H229.305ZM235.656 48V39.4102H237.344L240.859 45.1465V39.4102H242.471V48H240.73L237.268 42.3984V48H235.656ZM244.299 40.9336V39.4102H245.945V40.9336H244.299ZM244.299 48V41.7773H245.945V48H244.299ZM253.299 48H251.652V44.8242C251.652 44.1523 251.617 43.7188 251.547 43.5234C251.477 43.3242 251.361 43.1699 251.201 43.0605C251.045 42.9512 250.855 42.8965 250.633 42.8965C250.348 42.8965 250.092 42.9746 249.865 43.1309C249.639 43.2871 249.482 43.4941 249.396 43.752C249.314 44.0098 249.273 44.4863 249.273 45.1816V48H247.627V41.7773H249.156V42.6914C249.699 41.9883 250.383 41.6367 251.207 41.6367C251.57 41.6367 251.902 41.7031 252.203 41.8359C252.504 41.9648 252.73 42.1309 252.883 42.334C253.039 42.5371 253.146 42.7676 253.205 43.0254C253.268 43.2832 253.299 43.6523 253.299 44.1328V48ZM256.615 39.4102V42.5684C257.146 41.9473 257.781 41.6367 258.52 41.6367C258.898 41.6367 259.24 41.707 259.545 41.8477C259.85 41.9883 260.078 42.168 260.23 42.3867C260.387 42.6055 260.492 42.8477 260.547 43.1133C260.605 43.3789 260.635 43.791 260.635 44.3496V48H258.988V44.7129C258.988 44.0605 258.957 43.6465 258.895 43.4707C258.832 43.2949 258.721 43.1562 258.561 43.0547C258.404 42.9492 258.207 42.8965 257.969 42.8965C257.695 42.8965 257.451 42.9629 257.236 43.0957C257.021 43.2285 256.863 43.4297 256.762 43.6992C256.664 43.9648 256.615 44.3594 256.615 44.8828V48H254.969V39.4102H256.615ZM261.93 44.8008C261.93 44.2539 262.064 43.7246 262.334 43.2129C262.604 42.7012 262.984 42.3105 263.477 42.041C263.973 41.7715 264.525 41.6367 265.135 41.6367C266.076 41.6367 266.848 41.9434 267.449 42.5566C268.051 43.166 268.352 43.9375 268.352 44.8711C268.352 45.8125 268.047 46.5938 267.438 47.2148C266.832 47.832 266.068 48.1406 265.146 48.1406C264.576 48.1406 264.031 48.0117 263.512 47.7539C262.996 47.4961 262.604 47.1191 262.334 46.623C262.064 46.123 261.93 45.5156 261.93 44.8008ZM263.617 44.8887C263.617 45.5059 263.764 45.9785 264.057 46.3066C264.35 46.6348 264.711 46.7988 265.141 46.7988C265.57 46.7988 265.93 46.6348 266.219 46.3066C266.512 45.9785 266.658 45.502 266.658 44.877C266.658 44.2676 266.512 43.7988 266.219 43.4707C265.93 43.1426 265.57 42.9785 265.141 42.9785C264.711 42.9785 264.35 43.1426 264.057 43.4707C263.764 43.7988 263.617 44.2715 263.617 44.8887Z" fill="#E61F94"/>
<path d="M146.746 60.7578C146.746 61.2383 146.576 61.6484 146.236 61.9883C145.9 62.3242 145.494 62.4922 145.018 62.4922C144.537 62.4922 144.127 62.3223 143.787 61.9824C143.451 61.6426 143.283 61.2344 143.283 60.7578C143.283 60.2812 143.451 59.875 143.787 59.5391C144.127 59.1992 144.537 59.0293 145.018 59.0293C145.494 59.0293 145.9 59.1973 146.236 59.5332C146.576 59.8691 146.746 60.2773 146.746 60.7578ZM154.879 56.4102H158.312C158.992 56.4102 159.498 56.4395 159.83 56.498C160.166 56.5527 160.465 56.6699 160.727 56.8496C160.992 57.0293 161.213 57.2695 161.389 57.5703C161.564 57.8672 161.652 58.2012 161.652 58.5723C161.652 58.9746 161.543 59.3438 161.324 59.6797C161.109 60.0156 160.816 60.2676 160.445 60.4355C160.969 60.5879 161.371 60.8477 161.652 61.2148C161.934 61.582 162.074 62.0137 162.074 62.5098C162.074 62.9004 161.982 63.2812 161.799 63.6523C161.619 64.0195 161.371 64.3145 161.055 64.5371C160.742 64.7559 160.355 64.8906 159.895 64.9414C159.605 64.9727 158.908 64.9922 157.803 65H154.879V56.4102ZM156.613 57.8398V59.8262H157.75C158.426 59.8262 158.846 59.8164 159.01 59.7969C159.307 59.7617 159.539 59.6602 159.707 59.4922C159.879 59.3203 159.965 59.0957 159.965 58.8184C159.965 58.5527 159.891 58.3379 159.742 58.1738C159.598 58.0059 159.381 57.9043 159.092 57.8691C158.92 57.8496 158.426 57.8398 157.609 57.8398H156.613ZM156.613 61.2559V63.5527H158.219C158.844 63.5527 159.24 63.5352 159.408 63.5C159.666 63.4531 159.875 63.3398 160.035 63.1602C160.199 62.9766 160.281 62.7324 160.281 62.4277C160.281 62.1699 160.219 61.9512 160.094 61.7715C159.969 61.5918 159.787 61.4609 159.549 61.3789C159.314 61.2969 158.803 61.2559 158.014 61.2559H156.613ZM165.109 65H163.463V58.7773H164.992V59.6621C165.254 59.2441 165.488 58.9688 165.695 58.8359C165.906 58.7031 166.145 58.6367 166.41 58.6367C166.785 58.6367 167.146 58.7402 167.494 58.9473L166.984 60.3828C166.707 60.2031 166.449 60.1133 166.211 60.1133C165.98 60.1133 165.785 60.1777 165.625 60.3066C165.465 60.4316 165.338 60.6602 165.244 60.9922C165.154 61.3242 165.109 62.0195 165.109 63.0781V65ZM168.209 57.9336V56.4102H169.855V57.9336H168.209ZM168.209 65V58.7773H169.855V65H168.209ZM171.396 65.4102L173.277 65.6387C173.309 65.8574 173.381 66.0078 173.494 66.0898C173.65 66.207 173.896 66.2656 174.232 66.2656C174.662 66.2656 174.984 66.2012 175.199 66.0723C175.344 65.9863 175.453 65.8477 175.527 65.6562C175.578 65.5195 175.604 65.2676 175.604 64.9004V63.9922C175.111 64.6641 174.49 65 173.74 65C172.904 65 172.242 64.6465 171.754 63.9395C171.371 63.3809 171.18 62.6855 171.18 61.8535C171.18 60.8105 171.43 60.0137 171.93 59.4629C172.434 58.9121 173.059 58.6367 173.805 58.6367C174.574 58.6367 175.209 58.9746 175.709 59.6504V58.7773H177.25V64.3613C177.25 65.0957 177.189 65.6445 177.068 66.0078C176.947 66.3711 176.777 66.6562 176.559 66.8633C176.34 67.0703 176.047 67.2324 175.68 67.3496C175.316 67.4668 174.855 67.5254 174.297 67.5254C173.242 67.5254 172.494 67.3438 172.053 66.9805C171.611 66.6211 171.391 66.1641 171.391 65.6094C171.391 65.5547 171.393 65.4883 171.396 65.4102ZM172.867 61.7598C172.867 62.4199 172.994 62.9043 173.248 63.2129C173.506 63.5176 173.822 63.6699 174.197 63.6699C174.6 63.6699 174.939 63.5137 175.217 63.2012C175.494 62.8848 175.633 62.418 175.633 61.8008C175.633 61.1562 175.5 60.6777 175.234 60.3652C174.969 60.0527 174.633 59.8965 174.227 59.8965C173.832 59.8965 173.506 60.0508 173.248 60.3594C172.994 60.6641 172.867 61.1309 172.867 61.7598ZM180.115 60.6758L178.621 60.4062C178.789 59.8047 179.078 59.3594 179.488 59.0703C179.898 58.7812 180.508 58.6367 181.316 58.6367C182.051 58.6367 182.598 58.7246 182.957 58.9004C183.316 59.0723 183.568 59.293 183.713 59.5625C183.861 59.8281 183.936 60.3184 183.936 61.0332L183.918 62.9551C183.918 63.502 183.943 63.9062 183.994 64.168C184.049 64.4258 184.148 64.7031 184.293 65H182.664C182.621 64.8906 182.568 64.7285 182.506 64.5137C182.479 64.416 182.459 64.3516 182.447 64.3203C182.166 64.5938 181.865 64.7988 181.545 64.9355C181.225 65.0723 180.883 65.1406 180.52 65.1406C179.879 65.1406 179.373 64.9668 179.002 64.6191C178.635 64.2715 178.451 63.832 178.451 63.3008C178.451 62.9492 178.535 62.6367 178.703 62.3633C178.871 62.0859 179.105 61.875 179.406 61.7305C179.711 61.582 180.148 61.4531 180.719 61.3438C181.488 61.1992 182.021 61.0645 182.318 60.9395V60.7754C182.318 60.459 182.24 60.2344 182.084 60.1016C181.928 59.9648 181.633 59.8965 181.199 59.8965C180.906 59.8965 180.678 59.9551 180.514 60.0723C180.35 60.1855 180.217 60.3867 180.115 60.6758ZM182.318 62.0117C182.107 62.082 181.773 62.166 181.316 62.2637C180.859 62.3613 180.561 62.457 180.42 62.5508C180.205 62.7031 180.098 62.8965 180.098 63.1309C180.098 63.3613 180.184 63.5605 180.355 63.7285C180.527 63.8965 180.746 63.9805 181.012 63.9805C181.309 63.9805 181.592 63.8828 181.861 63.6875C182.061 63.5391 182.191 63.3574 182.254 63.1426C182.297 63.002 182.318 62.7344 182.318 62.3398V62.0117ZM191.271 65H189.742V64.0859C189.488 64.4414 189.188 64.707 188.84 64.8828C188.496 65.0547 188.148 65.1406 187.797 65.1406C187.082 65.1406 186.469 64.8535 185.957 64.2793C185.449 63.7012 185.195 62.8965 185.195 61.8652C185.195 60.8105 185.443 60.0098 185.939 59.4629C186.436 58.9121 187.062 58.6367 187.82 58.6367C188.516 58.6367 189.117 58.9258 189.625 59.5039V56.4102H191.271V65ZM186.877 61.7539C186.877 62.418 186.969 62.8984 187.152 63.1953C187.418 63.625 187.789 63.8398 188.266 63.8398C188.645 63.8398 188.967 63.6797 189.232 63.3594C189.498 63.0352 189.631 62.5527 189.631 61.9121C189.631 61.1973 189.502 60.6836 189.244 60.3711C188.986 60.0547 188.656 59.8965 188.254 59.8965C187.863 59.8965 187.535 60.0527 187.27 60.3652C187.008 60.6738 186.877 61.1367 186.877 61.7539ZM196.504 63.0195L198.145 63.2949C197.934 63.8965 197.6 64.3555 197.143 64.6719C196.689 64.9844 196.121 65.1406 195.438 65.1406C194.355 65.1406 193.555 64.7871 193.035 64.0801C192.625 63.5137 192.42 62.7988 192.42 61.9355C192.42 60.9043 192.689 60.0977 193.229 59.5156C193.768 58.9297 194.449 58.6367 195.273 58.6367C196.199 58.6367 196.93 58.9434 197.465 59.5566C198 60.166 198.256 61.1016 198.232 62.3633H194.107C194.119 62.8516 194.252 63.2324 194.506 63.5059C194.76 63.7754 195.076 63.9102 195.455 63.9102C195.713 63.9102 195.93 63.8398 196.105 63.6992C196.281 63.5586 196.414 63.332 196.504 63.0195ZM196.598 61.3555C196.586 60.8789 196.463 60.5176 196.229 60.2715C195.994 60.0215 195.709 59.8965 195.373 59.8965C195.014 59.8965 194.717 60.0273 194.482 60.2891C194.248 60.5508 194.133 60.9062 194.137 61.3555H196.598ZM199.58 57.9336V56.4102H201.227V57.9336H199.58ZM199.58 65V58.7773H201.227V65H199.58ZM204.496 65H202.85V58.7773H204.379V59.6621C204.641 59.2441 204.875 58.9688 205.082 58.8359C205.293 58.7031 205.531 58.6367 205.797 58.6367C206.172 58.6367 206.533 58.7402 206.881 58.9473L206.371 60.3828C206.094 60.2031 205.836 60.1133 205.598 60.1133C205.367 60.1133 205.172 60.1777 205.012 60.3066C204.852 60.4316 204.725 60.6602 204.631 60.9922C204.541 61.3242 204.496 62.0195 204.496 63.0781V65ZM207.215 61.8008C207.215 61.2539 207.35 60.7246 207.619 60.2129C207.889 59.7012 208.27 59.3105 208.762 59.041C209.258 58.7715 209.811 58.6367 210.42 58.6367C211.361 58.6367 212.133 58.9434 212.734 59.5566C213.336 60.166 213.637 60.9375 213.637 61.8711C213.637 62.8125 213.332 63.5938 212.723 64.2148C212.117 64.832 211.354 65.1406 210.432 65.1406C209.861 65.1406 209.316 65.0117 208.797 64.7539C208.281 64.4961 207.889 64.1191 207.619 63.623C207.35 63.123 207.215 62.5156 207.215 61.8008ZM208.902 61.8887C208.902 62.5059 209.049 62.9785 209.342 63.3066C209.635 63.6348 209.996 63.7988 210.426 63.7988C210.855 63.7988 211.215 63.6348 211.504 63.3066C211.797 62.9785 211.943 62.502 211.943 61.877C211.943 61.2676 211.797 60.7988 211.504 60.4707C211.215 60.1426 210.855 59.9785 210.426 59.9785C209.996 59.9785 209.635 60.1426 209.342 60.4707C209.049 60.7988 208.902 61.2715 208.902 61.8887ZM222.279 61.8418V60.3945H226.018V63.8164C225.654 64.168 225.127 64.4785 224.436 64.748C223.748 65.0137 223.051 65.1465 222.344 65.1465C221.445 65.1465 220.662 64.959 219.994 64.584C219.326 64.2051 218.824 63.666 218.488 62.9668C218.152 62.2637 217.984 61.5 217.984 60.6758C217.984 59.7812 218.172 58.9863 218.547 58.291C218.922 57.5957 219.471 57.0625 220.193 56.6914C220.744 56.4062 221.43 56.2637 222.25 56.2637C223.316 56.2637 224.148 56.4883 224.746 56.9375C225.348 57.3828 225.734 58 225.906 58.7891L224.184 59.1113C224.062 58.6895 223.834 58.3574 223.498 58.1152C223.166 57.8691 222.75 57.7461 222.25 57.7461C221.492 57.7461 220.889 57.9863 220.439 58.4668C219.994 58.9473 219.771 59.6602 219.771 60.6055C219.771 61.625 219.998 62.3906 220.451 62.9023C220.904 63.4102 221.498 63.6641 222.232 63.6641C222.596 63.6641 222.959 63.5938 223.322 63.4531C223.689 63.3086 224.004 63.1348 224.266 62.9316V61.8418H222.279ZM227.23 61.8008C227.23 61.2539 227.365 60.7246 227.635 60.2129C227.904 59.7012 228.285 59.3105 228.777 59.041C229.273 58.7715 229.826 58.6367 230.436 58.6367C231.377 58.6367 232.148 58.9434 232.75 59.5566C233.352 60.166 233.652 60.9375 233.652 61.8711C233.652 62.8125 233.348 63.5938 232.738 64.2148C232.133 64.832 231.369 65.1406 230.447 65.1406C229.877 65.1406 229.332 65.0117 228.812 64.7539C228.297 64.4961 227.904 64.1191 227.635 63.623C227.365 63.123 227.23 62.5156 227.23 61.8008ZM228.918 61.8887C228.918 62.5059 229.064 62.9785 229.357 63.3066C229.65 63.6348 230.012 63.7988 230.441 63.7988C230.871 63.7988 231.23 63.6348 231.52 63.3066C231.812 62.9785 231.959 62.502 231.959 61.877C231.959 61.2676 231.812 60.7988 231.52 60.4707C231.23 60.1426 230.871 59.9785 230.441 59.9785C230.012 59.9785 229.65 60.1426 229.357 60.4707C229.064 60.7988 228.918 61.2715 228.918 61.8887ZM239.043 65V64.0684C238.816 64.4004 238.518 64.6621 238.146 64.8535C237.779 65.0449 237.391 65.1406 236.98 65.1406C236.562 65.1406 236.188 65.0488 235.855 64.8652C235.523 64.6816 235.283 64.4238 235.135 64.0918C234.986 63.7598 234.912 63.3008 234.912 62.7148V58.7773H236.559V61.6367C236.559 62.5117 236.588 63.0488 236.646 63.248C236.709 63.4434 236.82 63.5996 236.98 63.7168C237.141 63.8301 237.344 63.8867 237.59 63.8867C237.871 63.8867 238.123 63.8105 238.346 63.6582C238.568 63.502 238.721 63.3105 238.803 63.084C238.885 62.8535 238.926 62.293 238.926 61.4023V58.7773H240.572V65H239.043ZM243.859 65H242.213V58.7773H243.742V59.6621C244.004 59.2441 244.238 58.9688 244.445 58.8359C244.656 58.7031 244.895 58.6367 245.16 58.6367C245.535 58.6367 245.896 58.7402 246.244 58.9473L245.734 60.3828C245.457 60.2031 245.199 60.1133 244.961 60.1133C244.73 60.1133 244.535 60.1777 244.375 60.3066C244.215 60.4316 244.088 60.6602 243.994 60.9922C243.904 61.3242 243.859 62.0195 243.859 63.0781V65ZM246.836 58.7773H248.354V59.627C248.896 58.9668 249.543 58.6367 250.293 58.6367C250.691 58.6367 251.037 58.7188 251.33 58.8828C251.623 59.0469 251.863 59.2949 252.051 59.627C252.324 59.2949 252.619 59.0469 252.936 58.8828C253.252 58.7188 253.59 58.6367 253.949 58.6367C254.406 58.6367 254.793 58.7305 255.109 58.918C255.426 59.1016 255.662 59.373 255.818 59.7324C255.932 59.998 255.988 60.4277 255.988 61.0215V65H254.342V61.4434C254.342 60.8262 254.285 60.4277 254.172 60.248C254.02 60.0137 253.785 59.8965 253.469 59.8965C253.238 59.8965 253.021 59.9668 252.818 60.1074C252.615 60.248 252.469 60.4551 252.379 60.7285C252.289 60.998 252.244 61.4258 252.244 62.0117V65H250.598V61.5898C250.598 60.9844 250.568 60.5938 250.51 60.418C250.451 60.2422 250.359 60.1113 250.234 60.0254C250.113 59.9395 249.947 59.8965 249.736 59.8965C249.482 59.8965 249.254 59.9648 249.051 60.1016C248.848 60.2383 248.701 60.4355 248.611 60.6934C248.525 60.9512 248.482 61.3789 248.482 61.9766V65H246.836V58.7773ZM261.238 63.0195L262.879 63.2949C262.668 63.8965 262.334 64.3555 261.877 64.6719C261.424 64.9844 260.855 65.1406 260.172 65.1406C259.09 65.1406 258.289 64.7871 257.77 64.0801C257.359 63.5137 257.154 62.7988 257.154 61.9355C257.154 60.9043 257.424 60.0977 257.963 59.5156C258.502 58.9297 259.184 58.6367 260.008 58.6367C260.934 58.6367 261.664 58.9434 262.199 59.5566C262.734 60.166 262.99 61.1016 262.967 62.3633H258.842C258.854 62.8516 258.986 63.2324 259.24 63.5059C259.494 63.7754 259.811 63.9102 260.189 63.9102C260.447 63.9102 260.664 63.8398 260.84 63.6992C261.016 63.5586 261.148 63.332 261.238 63.0195ZM261.332 61.3555C261.32 60.8789 261.197 60.5176 260.963 60.2715C260.729 60.0215 260.443 59.8965 260.107 59.8965C259.748 59.8965 259.451 60.0273 259.217 60.2891C258.982 60.5508 258.867 60.9062 258.871 61.3555H261.332ZM267.168 58.7773V60.0898H266.043V62.5977C266.043 63.1055 266.053 63.4023 266.072 63.4883C266.096 63.5703 266.145 63.6387 266.219 63.6934C266.297 63.748 266.391 63.7754 266.5 63.7754C266.652 63.7754 266.873 63.7227 267.162 63.6172L267.303 64.8945C266.92 65.0586 266.486 65.1406 266.002 65.1406C265.705 65.1406 265.438 65.0918 265.199 64.9941C264.961 64.8926 264.785 64.7637 264.672 64.6074C264.562 64.4473 264.486 64.2324 264.443 63.9629C264.408 63.7715 264.391 63.3848 264.391 62.8027V60.0898H263.635V58.7773H264.391V57.541L266.043 56.5801V58.7773H267.168Z" fill="#E61F94"/>
<path d="M146.746 77.7578C146.746 78.2383 146.576 78.6484 146.236 78.9883C145.9 79.3242 145.494 79.4922 145.018 79.4922C144.537 79.4922 144.127 79.3223 143.787 78.9824C143.451 78.6426 143.283 78.2344 143.283 77.7578C143.283 77.2812 143.451 76.875 143.787 76.5391C144.127 76.1992 144.537 76.0293 145.018 76.0293C145.494 76.0293 145.9 76.1973 146.236 76.5332C146.576 76.8691 146.746 77.2773 146.746 77.7578ZM154.879 73.4102H158.312C158.992 73.4102 159.498 73.4395 159.83 73.498C160.166 73.5527 160.465 73.6699 160.727 73.8496C160.992 74.0293 161.213 74.2695 161.389 74.5703C161.564 74.8672 161.652 75.2012 161.652 75.5723C161.652 75.9746 161.543 76.3438 161.324 76.6797C161.109 77.0156 160.816 77.2676 160.445 77.4355C160.969 77.5879 161.371 77.8477 161.652 78.2148C161.934 78.582 162.074 79.0137 162.074 79.5098C162.074 79.9004 161.982 80.2812 161.799 80.6523C161.619 81.0195 161.371 81.3145 161.055 81.5371C160.742 81.7559 160.355 81.8906 159.895 81.9414C159.605 81.9727 158.908 81.9922 157.803 82H154.879V73.4102ZM156.613 74.8398V76.8262H157.75C158.426 76.8262 158.846 76.8164 159.01 76.7969C159.307 76.7617 159.539 76.6602 159.707 76.4922C159.879 76.3203 159.965 76.0957 159.965 75.8184C159.965 75.5527 159.891 75.3379 159.742 75.1738C159.598 75.0059 159.381 74.9043 159.092 74.8691C158.92 74.8496 158.426 74.8398 157.609 74.8398H156.613ZM156.613 78.2559V80.5527H158.219C158.844 80.5527 159.24 80.5352 159.408 80.5C159.666 80.4531 159.875 80.3398 160.035 80.1602C160.199 79.9766 160.281 79.7324 160.281 79.4277C160.281 79.1699 160.219 78.9512 160.094 78.7715C159.969 78.5918 159.787 78.4609 159.549 78.3789C159.314 78.2969 158.803 78.2559 158.014 78.2559H156.613ZM165.109 82H163.463V75.7773H164.992V76.6621C165.254 76.2441 165.488 75.9688 165.695 75.8359C165.906 75.7031 166.145 75.6367 166.41 75.6367C166.785 75.6367 167.146 75.7402 167.494 75.9473L166.984 77.3828C166.707 77.2031 166.449 77.1133 166.211 77.1133C165.98 77.1133 165.785 77.1777 165.625 77.3066C165.465 77.4316 165.338 77.6602 165.244 77.9922C165.154 78.3242 165.109 79.0195 165.109 80.0781V82ZM167.828 78.8008C167.828 78.2539 167.963 77.7246 168.232 77.2129C168.502 76.7012 168.883 76.3105 169.375 76.041C169.871 75.7715 170.424 75.6367 171.033 75.6367C171.975 75.6367 172.746 75.9434 173.348 76.5566C173.949 77.166 174.25 77.9375 174.25 78.8711C174.25 79.8125 173.945 80.5938 173.336 81.2148C172.73 81.832 171.967 82.1406 171.045 82.1406C170.475 82.1406 169.93 82.0117 169.41 81.7539C168.895 81.4961 168.502 81.1191 168.232 80.623C167.963 80.123 167.828 79.5156 167.828 78.8008ZM169.516 78.8887C169.516 79.5059 169.662 79.9785 169.955 80.3066C170.248 80.6348 170.609 80.7988 171.039 80.7988C171.469 80.7988 171.828 80.6348 172.117 80.3066C172.41 79.9785 172.557 79.502 172.557 78.877C172.557 78.2676 172.41 77.7988 172.117 77.4707C171.828 77.1426 171.469 76.9785 171.039 76.9785C170.609 76.9785 170.248 77.1426 169.955 77.4707C169.662 77.7988 169.516 78.2715 169.516 78.8887ZM176.705 82L174.736 75.7773H176.336L177.502 79.8555L178.574 75.7773H180.162L181.199 79.8555L182.389 75.7773H184.012L182.014 82H180.432L179.359 77.998L178.305 82H176.705ZM190.545 82H188.898V78.8242C188.898 78.1523 188.863 77.7188 188.793 77.5234C188.723 77.3242 188.607 77.1699 188.447 77.0605C188.291 76.9512 188.102 76.8965 187.879 76.8965C187.594 76.8965 187.338 76.9746 187.111 77.1309C186.885 77.2871 186.729 77.4941 186.643 77.752C186.561 78.0098 186.52 78.4863 186.52 79.1816V82H184.873V75.7773H186.402V76.6914C186.945 75.9883 187.629 75.6367 188.453 75.6367C188.816 75.6367 189.148 75.7031 189.449 75.8359C189.75 75.9648 189.977 76.1309 190.129 76.334C190.285 76.5371 190.393 76.7676 190.451 77.0254C190.514 77.2832 190.545 77.6523 190.545 78.1328V82ZM192.221 74.9336V73.4102H193.867V74.9336H192.221ZM192.221 82V75.7773H193.867V82H192.221ZM199.164 80.0195L200.805 80.2949C200.594 80.8965 200.26 81.3555 199.803 81.6719C199.35 81.9844 198.781 82.1406 198.098 82.1406C197.016 82.1406 196.215 81.7871 195.695 81.0801C195.285 80.5137 195.08 79.7988 195.08 78.9355C195.08 77.9043 195.35 77.0977 195.889 76.5156C196.428 75.9297 197.109 75.6367 197.934 75.6367C198.859 75.6367 199.59 75.9434 200.125 76.5566C200.66 77.166 200.916 78.1016 200.893 79.3633H196.768C196.779 79.8516 196.912 80.2324 197.166 80.5059C197.42 80.7754 197.736 80.9102 198.115 80.9102C198.373 80.9102 198.59 80.8398 198.766 80.6992C198.941 80.5586 199.074 80.332 199.164 80.0195ZM199.258 78.3555C199.246 77.8789 199.123 77.5176 198.889 77.2715C198.654 77.0215 198.369 76.8965 198.033 76.8965C197.674 76.8965 197.377 77.0273 197.143 77.2891C196.908 77.5508 196.793 77.9062 196.797 78.3555H199.258Z" fill="#E61F94"/>
<path d="M146.746 94.7578C146.746 95.2383 146.576 95.6484 146.236 95.9883C145.9 96.3242 145.494 96.4922 145.018 96.4922C144.537 96.4922 144.127 96.3223 143.787 95.9824C143.451 95.6426 143.283 95.2344 143.283 94.7578C143.283 94.2812 143.451 93.875 143.787 93.5391C144.127 93.1992 144.537 93.0293 145.018 93.0293C145.494 93.0293 145.9 93.1973 146.236 93.5332C146.576 93.8691 146.746 94.2773 146.746 94.7578ZM154.891 99V90.4102H156.578L160.094 96.1465V90.4102H161.705V99H159.965L156.502 93.3984V99H154.891ZM167.629 99V98.0684C167.402 98.4004 167.104 98.6621 166.732 98.8535C166.365 99.0449 165.977 99.1406 165.566 99.1406C165.148 99.1406 164.773 99.0488 164.441 98.8652C164.109 98.6816 163.869 98.4238 163.721 98.0918C163.572 97.7598 163.498 97.3008 163.498 96.7148V92.7773H165.145V95.6367C165.145 96.5117 165.174 97.0488 165.232 97.248C165.295 97.4434 165.406 97.5996 165.566 97.7168C165.727 97.8301 165.93 97.8867 166.176 97.8867C166.457 97.8867 166.709 97.8105 166.932 97.6582C167.154 97.502 167.307 97.3105 167.389 97.084C167.471 96.8535 167.512 96.293 167.512 95.4023V92.7773H169.158V99H167.629ZM173.723 92.7773V94.0898H172.598V96.5977C172.598 97.1055 172.607 97.4023 172.627 97.4883C172.65 97.5703 172.699 97.6387 172.773 97.6934C172.852 97.748 172.945 97.7754 173.055 97.7754C173.207 97.7754 173.428 97.7227 173.717 97.6172L173.857 98.8945C173.475 99.0586 173.041 99.1406 172.557 99.1406C172.26 99.1406 171.992 99.0918 171.754 98.9941C171.516 98.8926 171.34 98.7637 171.227 98.6074C171.117 98.4473 171.041 98.2324 170.998 97.9629C170.963 97.7715 170.945 97.3848 170.945 96.8027V94.0898H170.189V92.7773H170.945V91.541L172.598 90.5801V92.7773H173.723ZM178.469 97.0195L180.109 97.2949C179.898 97.8965 179.564 98.3555 179.107 98.6719C178.654 98.9844 178.086 99.1406 177.402 99.1406C176.32 99.1406 175.52 98.7871 175 98.0801C174.59 97.5137 174.385 96.7988 174.385 95.9355C174.385 94.9043 174.654 94.0977 175.193 93.5156C175.732 92.9297 176.414 92.6367 177.238 92.6367C178.164 92.6367 178.895 92.9434 179.43 93.5566C179.965 94.166 180.221 95.1016 180.197 96.3633H176.072C176.084 96.8516 176.217 97.2324 176.471 97.5059C176.725 97.7754 177.041 97.9102 177.42 97.9102C177.678 97.9102 177.895 97.8398 178.07 97.6992C178.246 97.5586 178.379 97.332 178.469 97.0195ZM178.562 95.3555C178.551 94.8789 178.428 94.5176 178.193 94.2715C177.959 94.0215 177.674 93.8965 177.338 93.8965C176.979 93.8965 176.682 94.0273 176.447 94.2891C176.213 94.5508 176.098 94.9062 176.102 95.3555H178.562ZM181.545 99V90.4102H183.191V99H181.545ZM184.885 99V90.4102H186.531V99H184.885ZM189.455 94.6758L187.961 94.4062C188.129 93.8047 188.418 93.3594 188.828 93.0703C189.238 92.7812 189.848 92.6367 190.656 92.6367C191.391 92.6367 191.938 92.7246 192.297 92.9004C192.656 93.0723 192.908 93.293 193.053 93.5625C193.201 93.8281 193.275 94.3184 193.275 95.0332L193.258 96.9551C193.258 97.502 193.283 97.9062 193.334 98.168C193.389 98.4258 193.488 98.7031 193.633 99H192.004C191.961 98.8906 191.908 98.7285 191.846 98.5137C191.818 98.416 191.799 98.3516 191.787 98.3203C191.506 98.5938 191.205 98.7988 190.885 98.9355C190.564 99.0723 190.223 99.1406 189.859 99.1406C189.219 99.1406 188.713 98.9668 188.342 98.6191C187.975 98.2715 187.791 97.832 187.791 97.3008C187.791 96.9492 187.875 96.6367 188.043 96.3633C188.211 96.0859 188.445 95.875 188.746 95.7305C189.051 95.582 189.488 95.4531 190.059 95.3438C190.828 95.1992 191.361 95.0645 191.658 94.9395V94.7754C191.658 94.459 191.58 94.2344 191.424 94.1016C191.268 93.9648 190.973 93.8965 190.539 93.8965C190.246 93.8965 190.018 93.9551 189.854 94.0723C189.689 94.1855 189.557 94.3867 189.455 94.6758ZM191.658 96.0117C191.447 96.082 191.113 96.166 190.656 96.2637C190.199 96.3613 189.9 96.457 189.76 96.5508C189.545 96.7031 189.438 96.8965 189.438 97.1309C189.438 97.3613 189.523 97.5605 189.695 97.7285C189.867 97.8965 190.086 97.9805 190.352 97.9805C190.648 97.9805 190.932 97.8828 191.201 97.6875C191.4 97.5391 191.531 97.3574 191.594 97.1426C191.637 97.002 191.658 96.7344 191.658 96.3398V96.0117Z" fill="#E61F94"/>
<path d="M146.746 111.758C146.746 112.238 146.576 112.648 146.236 112.988C145.9 113.324 145.494 113.492 145.018 113.492C144.537 113.492 144.127 113.322 143.787 112.982C143.451 112.643 143.283 112.234 143.283 111.758C143.283 111.281 143.451 110.875 143.787 110.539C144.127 110.199 144.537 110.029 145.018 110.029C145.494 110.029 145.9 110.197 146.236 110.533C146.576 110.869 146.746 111.277 146.746 111.758ZM160.369 112.842L162.051 113.375C161.793 114.312 161.363 115.01 160.762 115.467C160.164 115.92 159.404 116.146 158.482 116.146C157.342 116.146 156.404 115.758 155.67 114.98C154.936 114.199 154.568 113.133 154.568 111.781C154.568 110.352 154.938 109.242 155.676 108.453C156.414 107.66 157.385 107.264 158.588 107.264C159.639 107.264 160.492 107.574 161.148 108.195C161.539 108.562 161.832 109.09 162.027 109.777L160.311 110.188C160.209 109.742 159.996 109.391 159.672 109.133C159.352 108.875 158.961 108.746 158.5 108.746C157.863 108.746 157.346 108.975 156.947 109.432C156.553 109.889 156.355 110.629 156.355 111.652C156.355 112.738 156.551 113.512 156.941 113.973C157.332 114.434 157.84 114.664 158.465 114.664C158.926 114.664 159.322 114.518 159.654 114.225C159.986 113.932 160.225 113.471 160.369 112.842ZM165.174 107.41V110.568C165.705 109.947 166.34 109.637 167.078 109.637C167.457 109.637 167.799 109.707 168.104 109.848C168.408 109.988 168.637 110.168 168.789 110.387C168.945 110.605 169.051 110.848 169.105 111.113C169.164 111.379 169.193 111.791 169.193 112.35V116H167.547V112.713C167.547 112.061 167.516 111.646 167.453 111.471C167.391 111.295 167.279 111.156 167.119 111.055C166.963 110.949 166.766 110.896 166.527 110.896C166.254 110.896 166.01 110.963 165.795 111.096C165.58 111.229 165.422 111.43 165.32 111.699C165.223 111.965 165.174 112.359 165.174 112.883V116H163.527V107.41H165.174ZM172.1 111.676L170.605 111.406C170.773 110.805 171.062 110.359 171.473 110.07C171.883 109.781 172.492 109.637 173.301 109.637C174.035 109.637 174.582 109.725 174.941 109.9C175.301 110.072 175.553 110.293 175.697 110.562C175.846 110.828 175.92 111.318 175.92 112.033L175.902 113.955C175.902 114.502 175.928 114.906 175.979 115.168C176.033 115.426 176.133 115.703 176.277 116H174.648C174.605 115.891 174.553 115.729 174.49 115.514C174.463 115.416 174.443 115.352 174.432 115.32C174.15 115.594 173.85 115.799 173.529 115.936C173.209 116.072 172.867 116.141 172.504 116.141C171.863 116.141 171.357 115.967 170.986 115.619C170.619 115.271 170.436 114.832 170.436 114.301C170.436 113.949 170.52 113.637 170.688 113.363C170.855 113.086 171.09 112.875 171.391 112.73C171.695 112.582 172.133 112.453 172.703 112.344C173.473 112.199 174.006 112.064 174.303 111.939V111.775C174.303 111.459 174.225 111.234 174.068 111.102C173.912 110.965 173.617 110.896 173.184 110.896C172.891 110.896 172.662 110.955 172.498 111.072C172.334 111.186 172.201 111.387 172.1 111.676ZM174.303 113.012C174.092 113.082 173.758 113.166 173.301 113.264C172.844 113.361 172.545 113.457 172.404 113.551C172.189 113.703 172.082 113.896 172.082 114.131C172.082 114.361 172.168 114.561 172.34 114.729C172.512 114.896 172.73 114.98 172.996 114.98C173.293 114.98 173.576 114.883 173.846 114.688C174.045 114.539 174.176 114.357 174.238 114.143C174.281 114.002 174.303 113.734 174.303 113.34V113.012ZM183.209 116H181.562V112.824C181.562 112.152 181.527 111.719 181.457 111.523C181.387 111.324 181.271 111.17 181.111 111.061C180.955 110.951 180.766 110.896 180.543 110.896C180.258 110.896 180.002 110.975 179.775 111.131C179.549 111.287 179.393 111.494 179.307 111.752C179.225 112.01 179.184 112.486 179.184 113.182V116H177.537V109.777H179.066V110.691C179.609 109.988 180.293 109.637 181.117 109.637C181.48 109.637 181.812 109.703 182.113 109.836C182.414 109.965 182.641 110.131 182.793 110.334C182.949 110.537 183.057 110.768 183.115 111.025C183.178 111.283 183.209 111.652 183.209 112.133V116ZM187.738 109.777V111.09H186.613V113.598C186.613 114.105 186.623 114.402 186.643 114.488C186.666 114.57 186.715 114.639 186.789 114.693C186.867 114.748 186.961 114.775 187.07 114.775C187.223 114.775 187.443 114.723 187.732 114.617L187.873 115.895C187.49 116.059 187.057 116.141 186.572 116.141C186.275 116.141 186.008 116.092 185.77 115.994C185.531 115.893 185.355 115.764 185.242 115.607C185.133 115.447 185.057 115.232 185.014 114.963C184.979 114.771 184.961 114.385 184.961 113.803V111.09H184.205V109.777H184.961V108.541L186.613 107.58V109.777H187.738ZM188.881 108.934V107.41H190.527V108.934H188.881ZM188.881 116V109.777H190.527V116H188.881ZM197.881 116H196.234V112.824C196.234 112.152 196.199 111.719 196.129 111.523C196.059 111.324 195.943 111.17 195.783 111.061C195.627 110.951 195.438 110.896 195.215 110.896C194.93 110.896 194.674 110.975 194.447 111.131C194.221 111.287 194.064 111.494 193.979 111.752C193.896 112.01 193.855 112.486 193.855 113.182V116H192.209V109.777H193.738V110.691C194.281 109.988 194.965 109.637 195.789 109.637C196.152 109.637 196.484 109.703 196.785 109.836C197.086 109.965 197.312 110.131 197.465 110.334C197.621 110.537 197.729 110.768 197.787 111.025C197.85 111.283 197.881 111.652 197.881 112.133V116ZM199.557 108.934V107.41H201.203V108.934H199.557ZM199.557 116V109.777H201.203V116H199.557ZM208.557 116H206.91V112.824C206.91 112.152 206.875 111.719 206.805 111.523C206.734 111.324 206.619 111.17 206.459 111.061C206.303 110.951 206.113 110.896 205.891 110.896C205.605 110.896 205.35 110.975 205.123 111.131C204.896 111.287 204.74 111.494 204.654 111.752C204.572 112.01 204.531 112.486 204.531 113.182V116H202.885V109.777H204.414V110.691C204.957 109.988 205.641 109.637 206.465 109.637C206.828 109.637 207.16 109.703 207.461 109.836C207.762 109.965 207.988 110.131 208.141 110.334C208.297 110.537 208.404 110.768 208.463 111.025C208.525 111.283 208.557 111.652 208.557 112.133V116ZM211.873 107.41V110.568C212.404 109.947 213.039 109.637 213.777 109.637C214.156 109.637 214.498 109.707 214.803 109.848C215.107 109.988 215.336 110.168 215.488 110.387C215.645 110.605 215.75 110.848 215.805 111.113C215.863 111.379 215.893 111.791 215.893 112.35V116H214.246V112.713C214.246 112.061 214.215 111.646 214.152 111.471C214.09 111.295 213.979 111.156 213.818 111.055C213.662 110.949 213.465 110.896 213.227 110.896C212.953 110.896 212.709 110.963 212.494 111.096C212.279 111.229 212.121 111.43 212.02 111.699C211.922 111.965 211.873 112.359 211.873 112.883V116H210.227V107.41H211.873ZM217.188 112.801C217.188 112.254 217.322 111.725 217.592 111.213C217.861 110.701 218.242 110.311 218.734 110.041C219.23 109.771 219.783 109.637 220.393 109.637C221.334 109.637 222.105 109.943 222.707 110.557C223.309 111.166 223.609 111.938 223.609 112.871C223.609 113.812 223.305 114.594 222.695 115.215C222.09 115.832 221.326 116.141 220.404 116.141C219.834 116.141 219.289 116.012 218.77 115.754C218.254 115.496 217.861 115.119 217.592 114.623C217.322 114.123 217.188 113.516 217.188 112.801ZM218.875 112.889C218.875 113.506 219.021 113.979 219.314 114.307C219.607 114.635 219.969 114.799 220.398 114.799C220.828 114.799 221.188 114.635 221.477 114.307C221.77 113.979 221.916 113.502 221.916 112.877C221.916 112.268 221.77 111.799 221.477 111.471C221.188 111.143 220.828 110.979 220.398 110.979C219.969 110.979 219.607 111.143 219.314 111.471C219.021 111.799 218.875 112.271 218.875 112.889Z" fill="#E61F94"/>
<defs>
<filter id="filter0_d_302_63" x="0" y="12" width="354" height="124" filterUnits="userSpaceOnUse" color-interpolation-filters="sRGB">
<feFlood flood-opacity="0" result="BackgroundImageFix"/>
<feColorMatrix in="SourceAlpha" type="matrix" values="0 0 0 0 0 0 0 0 0 0 0 0 0 0 0 0 0 0 127 0" result="hardAlpha"/>
<feOffset dy="2"/>
<feGaussianBlur stdDeviation="1"/>
<feComposite in2="hardAlpha" operator="out"/>
<feColorMatrix type="matrix" values="0 0 0 0 0 0 0 0 0 0 0 0 0 0 0 0 0 0 0.25 0"/>
<feBlend mode="normal" in2="BackgroundImageFix" result="effect1_dropShadow_302_63"/>
<feBlend mode="normal" in="SourceGraphic" in2="effect1_dropShadow_302_63" result="shape"/>
</filter>
<filter id="filter1_d_302_63" x="293.831" y="6.68909" width="18.3372" height="15.3109" filterUnits="userSpaceOnUse" color-interpolation-filters="sRGB">
<feFlood flood-opacity="0" result="BackgroundImageFix"/>
<feColorMatrix in="SourceAlpha" type="matrix" values="0 0 0 0 0 0 0 0 0 0 0 0 0 0 0 0 0 0 127 0" result="hardAlpha"/>
<feOffset dx="1" dy="1"/>
<feGaussianBlur stdDeviation="0.5"/>
<feComposite in2="hardAlpha" operator="out"/>
<feColorMatrix type="matrix" values="0 0 0 0 0 0 0 0 0 0 0 0 0 0 0 0 0 0 0.15 0"/>
<feBlend mode="normal" in2="BackgroundImageFix" result="effect1_dropShadow_302_63"/>
<feBlend mode="normal" in="SourceGraphic" in2="effect1_dropShadow_302_63" result="shape"/>
</filter>
<filter id="filter2_d_302_63" x="21" y="2.2222" width="82" height="34.2222" filterUnits="userSpaceOnUse" color-interpolation-filters="sRGB">
<feFlood flood-opacity="0" result="BackgroundImageFix"/>
<feColorMatrix in="SourceAlpha" type="matrix" values="0 0 0 0 0 0 0 0 0 0 0 0 0 0 0 0 0 0 127 0" result="hardAlpha"/>
<feOffset dy="1"/>
<feGaussianBlur stdDeviation="0.5"/>
<feComposite in2="hardAlpha" operator="out"/>
<feColorMatrix type="matrix" values="0 0 0 0 0 0 0 0 0 0 0 0 0 0 0 0 0 0 0.15 0"/>
<feBlend mode="normal" in2="BackgroundImageFix" result="effect1_dropShadow_302_63"/>
<feBlend mode="normal" in="SourceGraphic" in2="effect1_dropShadow_302_63" result="shape"/>
</filter>
</defs>
</svg>
